<svg width="24" height="28" viewBox="0 0 24 28" fill="none" xmlns="http://www.w3.org/2000/svg">
<path d="M13.248 27.468C11.808 27.468 10.344 26.832 8.856 25.56L8.568 27H3.384L8.28 4.104L13.608 3.384L9.288 23.58C9.96 24.06 10.644 24.3 11.34 24.3C12.708 24.3 13.908 23.508 14.94 21.924C15.996 20.34 16.812 18.324 17.388 15.876C17.964 13.428 18.252 10.956 18.252 8.46C18.252 6.108 17.784 4.392 16.848 3.312C15.936 2.208 14.652 1.656 12.996 1.656C11.196 1.656 9.576 2.016 8.136 2.736C6.72 3.432 5.604 4.44 4.788 5.76C3.972 7.08 3.564 8.628 3.564 10.404C3.564 11.292 3.648 11.916 3.816 12.276C3.984 12.612 4.068 12.804 4.068 12.852C2.82 12.852 1.86 12.588 1.188 12.06C0.54 11.532 0.216 10.68 0.216 9.504C0.216 7.872 0.828 6.324 2.052 4.86C3.276 3.396 4.908 2.22 6.948 1.332C9.012 0.443998 11.232 -2.14577e-06 13.608 -2.14577e-06C16.896 -2.14577e-06 19.32 0.971998 20.88 2.916C22.44 4.86 23.22 7.344 23.22 10.368C23.22 13.104 22.752 15.804 21.816 18.468C20.904 21.108 19.68 23.268 18.144 24.948C16.608 26.628 14.976 27.468 13.248 27.468Z" fill="#286BC8"/>
</svg>
