<svg width="34" height="52" viewBox="0 0 34 52" fill="none" xmlns="http://www.w3.org/2000/svg">
<path d="M5.488 51.408C3.952 51.408 2.62933 51.1307 1.52 50.576C0.837333 50.192 0.496 49.744 0.496 49.232C0.496 48.72 0.624 48.3147 0.88 48.016C1.136 47.6747 1.49867 47.504 1.968 47.504C2.39467 47.504 3.01333 47.6747 3.824 48.016C4.72 48.3573 5.27467 48.528 5.488 48.528C6.29867 48.528 7.024 48.1867 7.664 47.504C8.34667 46.7787 8.88 45.84 9.264 44.688C10.032 42.5547 10.416 40.6347 10.416 38.928C10.416 37.0933 10.1173 35.1733 9.52 33.168C8.96533 31.12 8.19733 29.136 7.216 27.216L6.192 25.168C5.12533 23.0347 4.29333 21.3493 3.696 20.112C3.14133 18.8747 2.65067 17.5307 2.224 16.08C1.584 14.032 1.264 12.048 1.264 10.128C1.264 8.592 1.52 7.14133 2.032 5.776C2.58667 4.41066 3.39733 3.25866 4.464 2.32C5.53067 1.296 6.85333 0.783997 8.432 0.783997C9.2 0.783997 9.94667 1.01866 10.672 1.488C11.3973 1.91467 11.9093 2.46933 12.208 3.152L11.12 4.496C10.0107 4.496 9.17867 4.28267 8.624 3.856C7.856 3.94133 7.17333 4.32533 6.576 5.008C6.02133 5.648 5.59467 6.39466 5.296 7.248C5.04 8.05866 4.912 8.86933 4.912 9.68C4.912 11.3013 5.12533 12.9653 5.552 14.672C6.02133 16.336 6.61867 17.9147 7.344 19.408L11.824 28.368C12.5493 29.904 13.1253 31.632 13.552 33.552C13.9787 35.472 14.192 37.392 14.192 39.312C14.192 42.128 13.5093 44.7733 12.144 47.248C11.4187 48.528 10.48 49.5307 9.328 50.256C8.176 51.024 6.896 51.408 5.488 51.408ZM23.641 50.32C23.1717 50.32 22.7877 50.128 22.489 49.744C22.233 49.3173 22.105 48.8053 22.105 48.208L22.233 37.456C22.361 32.2507 22.425 28.2187 22.425 25.36C22.425 15.4187 21.8703 7.80266 20.761 2.512C21.401 1.53066 22.2117 1.04 23.193 1.04C24.7717 1.04 26.201 1.40266 27.481 2.128C28.8037 2.81066 29.8917 3.74933 30.745 4.944C32.409 7.41866 33.241 10.192 33.241 13.264C33.241 16.464 32.5583 19.3227 31.193 21.84C29.8277 24.3573 27.8437 26.32 25.241 27.728L25.369 34.192L25.497 37.584C25.5397 38.3093 25.561 39.3547 25.561 40.72C25.689 43.5787 25.753 45.904 25.753 47.696C25.753 48.5067 25.5823 49.1467 25.241 49.616C24.8997 50.0853 24.3663 50.32 23.641 50.32ZM25.113 24.656C26.777 23.0773 27.993 21.4347 28.761 19.728C29.5717 17.9787 29.977 16.016 29.977 13.84V13.776C29.977 12.7947 29.8703 11.5573 29.657 10.064C29.529 9.552 29.2943 9.04 28.953 8.528C28.6117 8.016 28.4197 7.71733 28.377 7.632C28.0783 7.20533 27.289 6.544 26.009 5.648L24.345 4.432C24.345 6.608 24.473 9.97867 24.729 14.544L25.113 24.656Z" fill="#F4F4F3"/>
</svg>
