<svg xmlns="http://www.w3.org/2000/svg" width="323" height="323" fill="none" xmlns:v="https://vecta.io/nano"><style><![CDATA[.B{fill:#f4f4f3}.C{fill-opacity:.7}]]></style><mask id="A" maskUnits="userSpaceOnUse" x="0" y="0" width="323" height="323" mask-type="alpha"><path fill="url(#B)" d="M0 0h323v323H0z"/></mask><g mask="url(#A)"><path fill="url(#C)" d="M0 0h323v323H0z"/><path d="M39.799 5.264c-9.365 6.065-14.922 14.742-21.176 22.802a52.84 52.84 0 0 0 2.063-6.196c1.288-6.264 2.399-12.565 3.528-18.86a5.3 5.3 0 0 0-.291-1.728c-.593.225-1.132.57-1.585 1.013-3.511 5.75-7.31 11.365-10.31 17.376-2.651 5.314-4.392 11.082-6.534 16.649C8.911 25.084 9.457 13.468 9.993 1.752 3.247 7.602 1.621 15.849-.402 23.44L-.707.483c-5.805 5.809-7.305 13.419-9.246 21.413l-4.564-18.26-.948-.008c-2.647 6.549-.769 13.718-2.37 20.53-.123-8.48-4.866-15.119-8.665-22.679-2.789 7.945-.075 15.733-1.49 23.721-2.358-6.139-3.793-12.248-7.777-17.204-1.139 17.612 1.641 34.052 13.894 47.916-.654.11-.936.183-1.222.202-3.2.21-3.443.369-3.392 3.438.044 2.643.25 5.288.485 7.923l1.733 17.644c.082.379.253.732.5 1.031s.56.535.916.689a41.83 41.83 0 0 0 7.558 1.328c3.47.178 6.982-.12 10.442.023a10.39 10.39 0 0 1 1.306-.064 7.82 7.82 0 0 1 2.616-.077c.575-.132 1.162-.199 1.752-.201.541.001 1.081.054 1.612.158 1.938-.504 3.96-.598 5.936-.277l1.084-.131a36.26 36.26 0 0 1 3.397-.198c.729-.696 1.194-1.623 1.319-2.623l.399-14.096c.124-2.447.23-4.944 2.158-6.942.598-.764.88-1.729.787-2.696-.181-1.933-.685-3.836-1.054-5.738l-2.391-.368c.371-.602.583-.988.833-1.346 2.424-3.475 4.981-6.865 7.243-10.442a96.02 96.02 0 0 0 5.001-9.155L39.798 7.635c.134-.785.134-1.586.001-2.371zm-7.304 7.443l.694.584c-2.94 1.523-2.321 5.965-5.773 7.068l-.657-.527 5.735-7.125zm-6.614 8.635l.621.371a2.93 2.93 0 0 1-.165 1.224c-4.579 6.578-7.577 13.913-10.441 21.335a32.75 32.75 0 0 1-3.526 6.335c-.362.539-1.595.491-2.429.713a10.03 10.03 0 0 1-.278-2.123 9.42 9.42 0 0 1 .665-1.426c.401-1.456 1.037-2.335 2.72-1.535a2.09 2.09 0 0 0 1.017-.188c-2.018-1.41-1.812-2.669-1.106-4.738.978-2.867 3.24.189 4.366-1.518-1.512-.994-3.391-2.007-1.472-4.082 1.097-1.187 2.374-2.207 3.813-3.525l-1.207-1.031c2.574-3.154 4.299-7.026 7.421-9.812zM11.234 53.548c-.604 2.43-1.419 2.836-4.472 2.378.77-3.313 1.216-3.561 4.472-2.378h0zm3.415-19.054l7.392-27.126c-2.116 9.113-3.363 18.501-7.392 27.127h0zm2.248-21.661c.761-1.419 1.723-2.731 2.61-4.082l.295.228a40.2 40.2 0 0 1-.92 4.558c-.134.434-1.057.623-1.619.924-.139-.551-.565-1.257-.367-1.627h0zm-2.551 4.931c1.114-2.393 1.161-2.371 3.853-1.236l-1.254 4.51a4.62 4.62 0 0 0-1.702-.476c-.641.212-1.251.507-1.815.877a4.04 4.04 0 0 0 1.4.877c1.484.166 1.795.879 1.3 2.164-.108.28-.163.581-.26.866-.961 2.807-.962 2.807-3.692 1.564l-1.556-.731 3.727-8.415h0zm-4.315 10.568l4.461 1.038-1.612 5.472-4.961-.956 2.112-5.555zm2.399 8.153l-2.357 5.163-4.051-1.692c.719-4.345 2.156-5.183 6.408-3.471h0zM6.938 23.153l-2.954-.155 3.367-7.921.326.088-.74 7.989h0zm.76-17.054c-.29 7.445-3.699 13.617-6.83 19.855 1.438-6.873 2.897-13.706 6.83-19.855h0zM1.695 30.738c.851-.587 2.27-.35 3.441-.472l.157-.695-3.083-1.054c-.308-2.993.402-3.706 4.424-3.729-.579 2.99-1.335 5.943-2.263 8.844-.211.574-2.38.426-4.369.716.715-1.641.901-3.064 1.692-3.61h0zM.03 37.228c.502-2.264 2.243-1.145 4.192-1.123-1.422 1.541.132 4.311-2.862 4.361-2.737.046-1.586-2.084-1.33-3.239zm-1.087 9.403l.312-4.325 3.381-.045-2.703 10.555c-2.646-1.077-2.443-2.281.672-5.39l-1.663-.795zm-3.634-26.503l2.259.705c.771 11.599-1.113 23.093-2.66 34.943l3.87-2.121-.224 2.691.478.288 4.015-3.835c-.033-1.304.025-2.608.174-3.904.332-1.702.774-3.38 1.324-5.024.786-2.466 1.165-2.59 3.576-1.457.397.187.78.403 1.358.703l-1.804 3.662-2.95-1.048c-.3 1.34-.3 1.34 2.372 2.916-1.007 2.382-2.154 4.703-3.433 6.951-.454.72-1.98.878-3.055 1.062-1.133.113-2.272.157-3.41.133-4.151.194-5.487-1.29-5.1-5.694l3.049-1.042-.113-.651c-.477-.121-.941-.289-1.385-.501-.731-.435-1.909-.885-2.001-1.469-.196-1.26-.19-2.767 1.784-3.038.715-.236 1.385-.592 1.979-1.055-2.888-.217-3.883-.726-3.56-2.361a4.2 4.2 0 0 1 1.499-1.733c.839-.761 1.747-1.445 2.625-2.162l-.427-.532a1.55 1.55 0 0 0-.611.019c-1.022.507-2.13 1.322-2.726-.421a2.76 2.76 0 0 1 .137-2.196 2.76 2.76 0 0 1 1.699-1.398c1.049-.397 2.073-.859 3.065-1.383l-.252-.718-3.476.289c-.748-2.864-.038-4.109 2.582-4.926a6.47 6.47 0 0 0 1.632-1.164l-.232-.537a7.53 7.53 0 0 1-1.367.105c-.582-.099-1.157-.238-1.721-.414l3.222-13.192c-.845 3.09 1.848 6.85-2.189 9.51zm1.563-13.64l-6.245 28.455A60.34 60.34 0 0 1-3.128 6.488zm-9.73 35.36l-.734-.028c.004-1.16-1.409-2.389.683-3.809l.051 3.837zm-1.358-5.256c-.327-2.331-.746-4.657-.908-7-.033-.483.889-1.032 1.69-1.894l.117 8.798-.899.096h0zm-.806-19.053a3.79 3.79 0 0 1 1.164 1.262c.294 1.298.117 2.455-2.245 2.137l1.081-3.399zm1.488 4.914c.636 3.644.523 3.906-1.819 4.246-1.299-2.983-1.106-3.432 1.819-4.246zm-2.472 11.08l1.648 14.312-.728.069-1.3-14.291.38-.089zm3.603 22.534l.738-.09-1.634-11.832.821-.188a25.78 25.78 0 0 1 .828 2.948c.267 1.639.326 3.312.612 4.946.247.54.559 1.047.928 1.512.472.971.873 1.977 1.303 2.968-.703.434-1.479.737-2.289.897-.783.087-1.572-.102-2.231-.534s-1.146-1.08-1.379-1.833c-1.144-3.031-2.844-5.853-3.969-8.889-.372-1.004.307-2.397.544-3.848l-2.194.708-.989-1.759c.038-.137.095-.268.169-.39l2.648-2.169c1.485 6.214 2.022 12.557 6.093 17.555h0zm-3.718.01c-2.571.683-3.243.261-3.35-2.113-.097-2.176-.072-4.357-.109-7.095l3.458 9.208h0zm-4.535-30.978c.062.294.092.595.089.896.83 4.402.832 4.402-3.535 6.452-1.839-3.558 1.918-3.365 3.224-4.78-1.075-.849-1.075-.849-4.783.652.04-1.073-.251-2.466.167-2.729a16.03 16.03 0 0 1 4.133-1.519c.32.276.563.63.705 1.027zm-.811-3.035l-4.356 1.235c-.883-2.637-.653-2.885 3.621-3.861l.735 2.627h0zm-1.372-4.523l-3.099 1.409c-.036-1.815-.465-3.442 2.165-3.405l.934 1.995zm-3.374-3.474l-.076-5.692c1.73 2.146 1.913 4.889.076 5.692zm2.216 33.137l-2.473.656-.974-3.552c-.72-.924-1.934-1.802-1.967-2.723-.03-.836 1.226-1.718 2.361-3.138l-3.404.442c-1.831-2.837-1.617-3.766 1.308-5.198l.073-.676-3.205-.245c-.532-1.258-.532-1.258 1.629-4.284l-2.479.185c-1.251-2.911-1.251-2.911 1.58-4.905l-2.894-1.187-.686-8.383.587-.13a6.3 6.3 0 0 1 .918 1.415l11.607 37.001c-1.306-1.523-4.279-2.215-1.982-5.278h0zm1.971-7.899c-1.855-4.181-1.81-4.889.31-6.55 1.475-1.155 2.224-.836 2.612 1.002.549 2.602-.521 4.312-2.922 5.548h0zm33.833 46.822c-1.692-.112-2.778-.275-3.858-.239l-14.531.539c-3.399.056-6.803-.149-10.205-.261-.828-.027-1.653-.142-2.478-.229-2.06-.219-3.22-1.149-3.359-3.43-.147-2.412-.688-4.799-1.049-7.198-.18-1.197-.271-2.331 1.42-2.495.269-.037.542-.004.795.094s.476.26.649.468.29.458.34.725.031.541-.055.799c-.601 3.034 1.527 2.962 3.365 3.24.741.112 1.522-.067 2.274.007 2.096.206 3.026-.593 2.59-2.759-.3-1.488.194-2.28 1.876-2.288 1.586-.008 2.706.167 2.476 2.197-.192 1.695.575 2.501 2.411 2.328 1.734-.164 3.509.051 5.23-.175.405-.065.789-.225 1.121-.467s.601-.559.786-.925c.391-3.031.298-3.043 3.416-2.971.071.368.134.587.154.81.111 1.195-.126 2.613.453 3.498.306.468 2.046-.128 3.107.003 1.191.222 2.365.524 3.516.903-.429 2.868.594 5.678-.443 7.829zm1.66-18.378c-.412 2.518-.587 5.074-.875 7.732-1.248-.056-2.08-.145-2.908-.115-.733.026-1.461.185-2.195.286-.329-1.516-.192-3.433-1.037-4.093-.912-.711-2.784-.047-4.159-.345-1.664-.36-2.851-.309-2.562 1.754.337 2.41-.903 2.898-2.88 2.72-.822-.074-1.642-.172-2.67-.281l-.271-3.754c-2.328-.252-4.611-.592-6.9-.643-.327-.007-.987 1.394-.974 2.134.052 2.981-.22 3.353-3.187 2.907a2.16 2.16 0 0 1-1.514-1.207c-.98-4.1-.937-4.11-5.063-4.039l-.32-3.963c3.746.297 7.127.784 10.508.784 5.965.001 11.936-.202 17.894-.513 2.479-.129 4.927-.784 7.398-1.14 1.304-.188 1.975.191 1.715 1.775zm1.127-10.932c.135.157.247.332.333.521 1.164 6.456 1.164 6.467-5.499 7.024-6.552.548-13.1 1.362-19.661 1.504-4.277.093-8.578-.793-12.865-1.262-1.983-.217-2.459-1.437-2.105-3.227.205-1.036.31-2.093.518-3.546 13.089 1.177 26.27.837 39.28-1.014h0zm-2.04-2.504c3.45-7.639 6.281-14.909 9.942-21.733 3.65-6.805 8.132-13.164 12.25-19.719l.767.467c-6.646 13.977-12.789 28.23-22.958 40.985h0z" class="B C"/><path d="M201.596 5.264c-9.365 6.065-14.922 14.742-21.176 22.802a53.12 53.12 0 0 0 2.063-6.196c1.288-6.264 2.399-12.565 3.527-18.86 0-.588-.099-1.172-.291-1.728-.592.225-1.132.57-1.585 1.013-3.512 5.75-7.31 11.365-10.31 17.376-2.651 5.314-4.391 11.082-6.534 16.649 3.418-11.236 3.964-22.852 4.5-34.568-6.746 5.85-8.372 14.097-10.395 21.688L161.09.483c-5.805 5.809-7.305 13.419-9.246 21.413l-4.564-18.26-.948-.008c-2.647 6.549-.769 13.718-2.37 20.53-.123-8.48-4.866-15.119-8.665-22.679-2.789 7.945-.076 15.733-1.49 23.721-2.358-6.139-3.792-12.248-7.777-17.204-1.139 17.612 1.641 34.052 13.894 47.916-.654.11-.936.183-1.223.202-3.199.21-3.443.369-3.392 3.438.044 2.643.25 5.288.485 7.923l1.733 17.644c.082.379.253.732.5 1.031a2.43 2.43 0 0 0 .916.689c2.473.673 5.003 1.118 7.558 1.328 3.47.178 6.981-.12 10.442.023a10.38 10.38 0 0 1 1.305-.064c.862-.172 1.746-.199 2.616-.077a7.94 7.94 0 0 1 1.752-.201c.542.001 1.081.054 1.612.158a14.42 14.42 0 0 1 5.937-.277l1.084-.131a36.26 36.26 0 0 1 3.397-.198 4.37 4.37 0 0 0 1.319-2.623l.399-14.096c.124-2.447.23-4.944 2.158-6.942.598-.764.88-1.729.787-2.696-.181-1.933-.685-3.836-1.054-5.738l-2.391-.368c.371-.602.583-.988.833-1.346 2.424-3.475 4.981-6.865 7.242-10.442a95.98 95.98 0 0 0 5.002-9.155l12.654-26.361a7.07 7.07 0 0 0 .001-2.371zm-7.304 7.443l.694.584c-2.94 1.523-2.321 5.965-5.773 7.068l-.657-.527 5.736-7.125zm-6.615 8.635l.621.371a2.93 2.93 0 0 1-.164 1.224c-4.579 6.578-7.577 13.913-10.442 21.335-.937 2.235-2.119 4.36-3.525 6.335-.362.539-1.595.491-2.429.713-.168-.696-.261-1.407-.277-2.123a9.37 9.37 0 0 1 .664-1.426c.401-1.456 1.037-2.335 2.72-1.535a2.09 2.09 0 0 0 1.017-.188c-2.018-1.41-1.812-2.669-1.106-4.738.978-2.867 3.24.189 4.366-1.518-1.512-.994-3.391-2.007-1.471-4.082 1.097-1.187 2.374-2.207 3.813-3.525l-1.207-1.031c2.574-3.154 4.298-7.026 7.42-9.812zm-14.646 32.207c-.604 2.43-1.42 2.836-4.472 2.378.769-3.313 1.215-3.561 4.472-2.378h0zm3.415-19.054l7.393-27.126c-2.116 9.113-3.363 18.501-7.393 27.127h0zm2.248-21.661c.762-1.419 1.724-2.731 2.611-4.082l.294.228a39.96 39.96 0 0 1-.92 4.558c-.134.434-1.057.623-1.618.924-.139-.551-.565-1.257-.367-1.627h0zm-2.55 4.931c1.113-2.393 1.161-2.371 3.852-1.236l-1.254 4.51c-.531-.267-1.109-.428-1.701-.476-.641.212-1.251.507-1.815.877.401.386.877.684 1.399.877 1.485.166 1.796.879 1.3 2.164-.108.28-.163.581-.26.866-.961 2.807-.962 2.807-3.692 1.564l-1.556-.731 3.727-8.415h0zm-4.315 10.568l4.461 1.038-1.612 5.472-4.961-.956 2.112-5.555zm2.399 8.153l-2.357 5.163-4.051-1.692c.719-4.345 2.156-5.183 6.408-3.471h0zm-5.494-13.332l-2.953-.155 3.367-7.921.326.088-.74 7.989h0zm.761-17.054c-.291 7.445-3.7 13.617-6.831 19.855 1.439-6.873 2.897-13.706 6.831-19.855h0zm-6.003 24.638c.851-.587 2.27-.35 3.442-.472l.157-.695-3.083-1.054c-.308-2.993.402-3.706 4.424-3.729a77.18 77.18 0 0 1-2.263 8.844c-.211.574-2.38.426-4.369.716.715-1.641.901-3.064 1.692-3.61h0zm-1.665 6.49c.502-2.264 2.244-1.145 4.192-1.123-1.421 1.541.133 4.311-2.862 4.361-2.737.046-1.586-2.084-1.33-3.239zm-1.087 9.403l.313-4.325 3.381-.045-2.703 10.555c-2.646-1.077-2.444-2.281.672-5.39l-1.663-.795zm-3.634-26.503l2.259.705c.77 11.599-1.114 23.093-2.66 34.943l3.87-2.121-.224 2.691.479.288 4.014-3.835a27.98 27.98 0 0 1 .174-3.904 39.96 39.96 0 0 1 1.324-5.024c.787-2.466 1.165-2.59 3.576-1.457.397.187.78.403 1.357.703l-1.804 3.662-2.95-1.048c-.3 1.34-.3 1.34 2.372 2.916a65.88 65.88 0 0 1-3.434 6.951c-.454.72-1.979.878-3.055 1.062a28.28 28.28 0 0 1-3.41.133c-4.151.194-5.487-1.29-5.1-5.694l3.049-1.042-.113-.651a7.48 7.48 0 0 1-1.385-.501c-.731-.435-1.909-.885-2.001-1.469-.196-1.26-.19-2.767 1.785-3.038a6.59 6.59 0 0 0 1.979-1.055c-2.888-.217-3.883-.726-3.56-2.361.329-.705.848-1.305 1.499-1.733.839-.761 1.747-1.445 2.625-2.162l-.427-.532c-.203-.034-.411-.028-.612.019-1.022.507-2.13 1.322-2.725-.421a2.75 2.75 0 0 1-.16-1.112c.023-.378.124-.747.296-1.084a2.76 2.76 0 0 1 1.699-1.398c1.049-.397 2.072-.859 3.065-1.383l-.253-.718-3.475.289c-.748-2.864-.038-4.109 2.581-4.926a6.47 6.47 0 0 0 1.632-1.164l-.232-.537a7.53 7.53 0 0 1-1.367.105 13.24 13.24 0 0 1-1.721-.414l3.222-13.192c-.844 3.09 1.849 6.85-2.189 9.51zm1.563-13.64l-6.244 28.455a60.34 60.34 0 0 1 6.244-28.455zm-9.73 35.36l-.733-.028c.004-1.16-1.409-2.389.683-3.809l.05 3.837zm-1.357-5.256c-.328-2.331-.746-4.657-.908-7-.033-.483.89-1.032 1.691-1.894l.116 8.798-.899.096h0zm-.806-19.053a3.79 3.79 0 0 1 1.163 1.262c.294 1.298.117 2.455-2.245 2.137l1.082-3.399zm1.488 4.914c.636 3.644.523 3.906-1.819 4.246-1.299-2.983-1.107-3.432 1.819-4.246zm-2.472 11.08l1.648 14.312-.728.069-1.3-14.291.38-.089zm3.603 22.534l.738-.09-1.633-11.832.82-.188a25.74 25.74 0 0 1 .828 2.948c.266 1.639.326 3.312.612 4.946.246.54.558 1.047.928 1.512.473.971.873 1.977 1.303 2.968a6.89 6.89 0 0 1-2.289.897c-.783.087-1.572-.102-2.231-.534s-1.146-1.08-1.378-1.833c-1.144-3.031-2.844-5.853-3.969-8.889-.372-1.004.307-2.397.544-3.848l-2.194.708-.988-1.759c.038-.137.095-.268.169-.39l2.648-2.169c1.485 6.214 2.021 12.557 6.092 17.555h0zm-3.718.01c-2.57.683-3.243.261-3.349-2.113-.098-2.176-.072-4.357-.109-7.095l3.458 9.208h0zm-4.535-30.978a4.15 4.15 0 0 1 .089.896c.83 4.402.831 4.402-3.535 6.452-1.839-3.558 1.918-3.365 3.224-4.78-1.076-.849-1.076-.849-4.783.652.04-1.073-.251-2.466.167-2.729a16.03 16.03 0 0 1 4.133-1.519c.32.276.563.63.705 1.027zm-.811-3.035l-4.356 1.235c-.883-2.637-.653-2.885 3.621-3.861l.735 2.627h0zm-1.372-4.523l-3.098 1.409c-.036-1.815-.465-3.442 2.164-3.405l.934 1.995zm-3.374-3.474l-.076-5.692c1.73 2.146 1.914 4.889.076 5.692zm2.216 33.137l-2.474.656-.974-3.552c-.72-.924-1.934-1.802-1.967-2.723-.03-.836 1.226-1.718 2.362-3.138l-3.404.442c-1.832-2.837-1.618-3.766 1.308-5.198l.073-.676-3.205-.245c-.532-1.258-.532-1.258 1.629-4.284l-2.479.185c-1.25-2.911-1.25-2.911 1.58-4.905l-2.894-1.187-.686-8.383.588-.13c.368.428.676.904.918 1.415l11.607 37.001c-1.306-1.523-4.279-2.215-1.982-5.278h0zm1.97-7.899c-1.855-4.181-1.81-4.889.31-6.55 1.475-1.155 2.224-.836 2.612 1.002.549 2.602-.521 4.312-2.922 5.548h0zm33.833 46.822c-1.692-.112-2.778-.275-3.858-.239l-14.53.539c-3.4.056-6.804-.149-10.205-.261-.827-.027-1.653-.142-2.478-.229-2.06-.219-3.22-1.149-3.359-3.43-.148-2.412-.688-4.799-1.049-7.198-.181-1.197-.272-2.331 1.42-2.495a1.59 1.59 0 0 1 1.443.562 1.6 1.6 0 0 1 .34.725 1.59 1.59 0 0 1-.055.799c-.601 3.034 1.527 2.962 3.365 3.24.741.112 1.522-.067 2.273.007 2.096.206 3.026-.593 2.59-2.759-.3-1.488.194-2.28 1.876-2.288 1.585-.008 2.706.167 2.476 2.197-.191 1.695.575 2.501 2.411 2.328 1.734-.164 3.509.051 5.23-.175.405-.065.789-.225 1.121-.467a2.61 2.61 0 0 0 .786-.925c.39-3.031.297-3.043 3.416-2.971.071.368.134.587.154.81.111 1.195-.126 2.613.454 3.498.306.468 2.045-.128 3.107.003 1.191.222 2.365.524 3.516.903-.43 2.868.594 5.678-.444 7.829zm1.66-18.378c-.412 2.518-.586 5.074-.874 7.732-1.248-.056-2.081-.145-2.908-.115-.733.026-1.461.185-2.196.286-.328-1.516-.192-3.433-1.036-4.093-.912-.711-2.784-.047-4.159-.345-1.665-.36-2.851-.309-2.562 1.754.337 2.41-.903 2.898-2.88 2.72-.822-.074-1.643-.172-2.67-.281l-.272-3.754c-2.328-.252-4.611-.592-6.9-.643-.327-.007-.987 1.394-.974 2.134.052 2.981-.22 3.353-3.187 2.907a2.16 2.16 0 0 1-.9-.424c-.263-.21-.473-.478-.614-.783-.98-4.1-.937-4.11-5.063-4.039l-.32-3.963c3.746.297 7.127.784 10.509.784 5.965.001 11.935-.202 17.893-.513 2.479-.129 4.927-.784 7.398-1.14 1.304-.188 1.975.191 1.715 1.775zm1.127-10.932a2.13 2.13 0 0 1 .333.521c1.164 6.456 1.164 6.467-5.499 7.024-6.552.548-13.099 1.362-19.661 1.504-4.278.093-8.578-.793-12.865-1.262-1.984-.217-2.46-1.437-2.105-3.227.205-1.036.31-2.093.517-3.546 13.089 1.177 26.27.837 39.28-1.014h0zm-2.04-2.504c3.45-7.639 6.282-14.909 9.943-21.733 3.65-6.805 8.132-13.164 12.249-19.719l.767.467c-6.646 13.977-12.789 28.23-22.959 40.985h0z" class="B C"/><path d="M363.393 5.264c-9.365 6.065-14.922 14.742-21.177 22.802a52.94 52.94 0 0 0 2.064-6.196c1.288-6.264 2.398-12.565 3.527-18.86 0-.588-.099-1.172-.291-1.728a4.6 4.6 0 0 0-1.585 1.013c-3.512 5.75-7.311 11.365-10.31 17.376-2.651 5.314-4.391 11.082-6.534 16.649 3.418-11.236 3.963-22.852 4.5-34.568-6.746 5.85-8.372 14.097-10.396 21.688L322.887.483c-5.805 5.809-7.305 13.419-9.247 21.413l-4.564-18.26-.947-.008c-2.647 6.549-.769 13.718-2.37 20.53-.123-8.48-4.866-15.119-8.665-22.679-2.789 7.945-.076 15.733-1.49 23.721-2.358-6.139-3.793-12.248-7.777-17.204-1.139 17.612 1.641 34.052 13.894 47.916-.654.11-.936.183-1.223.202-3.199.21-3.443.369-3.392 3.438.044 2.643.25 5.288.485 7.923l1.733 17.644c.082.379.253.732.499 1.031a2.45 2.45 0 0 0 .916.689c2.474.673 5.004 1.118 7.559 1.328 3.47.178 6.981-.12 10.442.023a10.38 10.38 0 0 1 1.305-.064c.862-.172 1.746-.199 2.616-.077.575-.132 1.162-.199 1.752-.201a8.46 8.46 0 0 1 1.612.158 14.42 14.42 0 0 1 5.937-.277l1.084-.131a36.26 36.26 0 0 1 3.397-.198c.729-.696 1.194-1.623 1.319-2.623l.399-14.096c.124-2.447.23-4.944 2.158-6.942.598-.764.88-1.729.787-2.696-.181-1.933-.685-3.836-1.054-5.738l-2.391-.368c.371-.602.583-.988.833-1.346 2.424-3.475 4.98-6.865 7.242-10.442a95.98 95.98 0 0 0 5.002-9.155l12.654-26.361c.133-.785.134-1.586.001-2.371zm-7.305 7.443l.695.584c-2.94 1.523-2.321 5.965-5.773 7.068l-.657-.527 5.735-7.125zm-6.614 8.635l.621.371a2.93 2.93 0 0 1-.164 1.224c-4.579 6.578-7.577 13.913-10.442 21.335-.937 2.235-2.119 4.36-3.525 6.335-.362.539-1.595.491-2.429.713a10.06 10.06 0 0 1-.278-2.123 9.47 9.47 0 0 1 .665-1.426c.401-1.456 1.037-2.335 2.72-1.535a2.09 2.09 0 0 0 1.017-.188c-2.018-1.41-1.812-2.669-1.106-4.738.978-2.867 3.24.189 4.366-1.518-1.512-.994-3.391-2.007-1.472-4.082 1.098-1.187 2.374-2.207 3.813-3.525l-1.207-1.031c2.575-3.154 4.299-7.026 7.421-9.812zm-14.646 32.207c-.604 2.43-1.42 2.836-4.473 2.378.77-3.313 1.216-3.561 4.473-2.378h0zm3.415-19.054l7.392-27.126c-2.115 9.113-3.362 18.501-7.392 27.127h0zm2.248-21.661c.762-1.419 1.723-2.731 2.611-4.082l.294.228a39.96 39.96 0 0 1-.92 4.558c-.134.434-1.057.623-1.618.924-.139-.551-.566-1.257-.367-1.627h0zm-2.55 4.931c1.113-2.393 1.161-2.371 3.852-1.236l-1.254 4.51c-.531-.267-1.109-.428-1.701-.476-.641.212-1.251.507-1.816.877.402.386.878.684 1.4.877 1.484.166 1.796.879 1.3 2.164-.108.28-.163.581-.26.866-.961 2.807-.962 2.807-3.692 1.564l-1.557-.731 3.728-8.415h0zm-4.315 10.568l4.461 1.038-1.612 5.472-4.961-.956 2.112-5.555zm2.399 8.153l-2.357 5.163-4.051-1.692c.719-4.345 2.156-5.183 6.408-3.471h0zm-5.494-13.332l-2.953-.155 3.367-7.921.326.088-.74 7.989h0zm.76-17.054c-.29 7.445-3.699 13.617-6.83 19.855 1.438-6.873 2.897-13.706 6.83-19.855h0zm-6.002 24.638c.851-.587 2.27-.35 3.441-.472l.157-.695-3.082-1.054c-.308-2.993.402-3.706 4.424-3.729a77.18 77.18 0 0 1-2.263 8.844c-.212.574-2.38.426-4.369.716.715-1.641.901-3.064 1.692-3.61h0zm-1.665 6.49c.502-2.264 2.243-1.145 4.192-1.123-1.422 1.541.132 4.311-2.862 4.361-2.737.046-1.586-2.084-1.33-3.239zm-1.087 9.403l.313-4.325 3.38-.045-2.703 10.555c-2.645-1.077-2.443-2.281.673-5.39l-1.663-.795zm-3.634-26.503l2.259.705c.77 11.599-1.114 23.093-2.66 34.943l3.87-2.121-.224 2.691.479.288 4.014-3.835a27.98 27.98 0 0 1 .174-3.904 39.96 39.96 0 0 1 1.324-5.024c.787-2.466 1.165-2.59 3.576-1.457.397.187.78.403 1.357.703l-1.804 3.662-2.95-1.048c-.3 1.34-.3 1.34 2.372 2.916a66.07 66.07 0 0 1-3.434 6.951c-.454.72-1.98.878-3.055 1.062a28.28 28.28 0 0 1-3.41.133c-4.151.194-5.487-1.29-5.1-5.694l3.049-1.042-.113-.651a7.48 7.48 0 0 1-1.385-.501c-.731-.435-1.91-.885-2.001-1.469-.196-1.26-.19-2.767 1.784-3.038.716-.236 1.385-.592 1.98-1.055-2.888-.217-3.883-.726-3.56-2.361.329-.705.848-1.305 1.499-1.733.839-.761 1.747-1.445 2.625-2.162l-.427-.532c-.203-.034-.411-.028-.612.019-1.022.507-2.13 1.322-2.725-.421a2.75 2.75 0 0 1-.16-1.112c.023-.378.124-.747.296-1.084a2.76 2.76 0 0 1 1.699-1.398c1.049-.397 2.072-.859 3.064-1.383l-.252-.718-3.475.289c-.749-2.864-.038-4.109 2.581-4.926a6.47 6.47 0 0 0 1.632-1.164l-.232-.537c-.452.076-.909.112-1.367.105a13.24 13.24 0 0 1-1.721-.414l3.222-13.192c-.844 3.09 1.849 6.85-2.189 9.51zm1.563-13.64l-6.245 28.455c-.273-9.853 1.871-19.623 6.245-28.455zm-9.73 35.36l-.733-.028c.004-1.16-1.41-2.389.682-3.809l.051 3.837zm-1.357-5.256c-.328-2.331-.746-4.657-.908-7-.033-.483.889-1.032 1.69-1.894l.117 8.798-.899.096h0zm-.806-19.053a3.79 3.79 0 0 1 1.163 1.262c.294 1.298.117 2.455-2.245 2.137l1.082-3.399zm1.488 4.914c.635 3.644.523 3.906-1.819 4.246-1.299-2.983-1.107-3.432 1.819-4.246zm-2.472 11.08l1.648 14.312-.728.069-1.3-14.291.38-.089zm3.603 22.534l.738-.09-1.633-11.832.82-.188a25.74 25.74 0 0 1 .828 2.948c.266 1.639.326 3.312.611 4.946a7.29 7.29 0 0 0 .929 1.512c.472.971.873 1.977 1.303 2.968a6.89 6.89 0 0 1-2.289.897c-.783.087-1.572-.102-2.231-.534a3.39 3.39 0 0 1-1.379-1.833c-1.143-3.031-2.844-5.853-3.968-8.889-.372-1.004.307-2.397.544-3.848l-2.194.708-.988-1.759c.038-.137.095-.268.169-.39l2.647-2.169c1.486 6.214 2.022 12.557 6.093 17.555h0zm-3.718.01c-2.57.683-3.243.261-3.349-2.113-.098-2.176-.073-4.357-.109-7.095l3.458 9.208h0zm-4.535-30.978c.062.294.091.595.088.896.83 4.402.832 4.402-3.534 6.452-1.839-3.558 1.918-3.365 3.224-4.78-1.076-.849-1.076-.849-4.783.652.04-1.073-.251-2.466.167-2.729a16.03 16.03 0 0 1 4.133-1.519c.32.276.563.63.705 1.027zm-.811-3.035l-4.356 1.235c-.883-2.637-.653-2.885 3.62-3.861l.736 2.627h0zm-1.372-4.523l-3.099 1.409c-.035-1.815-.464-3.442 2.165-3.405l.934 1.995zm-3.374-3.474l-.076-5.692c1.73 2.146 1.913 4.889.076 5.692zm2.215 33.137l-2.473.656-.974-3.552c-.72-.924-1.934-1.802-1.967-2.723-.03-.836 1.226-1.718 2.361-3.138l-3.404.442c-1.831-2.837-1.617-3.766 1.308-5.198l.074-.676-3.206-.245c-.531-1.258-.531-1.258 1.63-4.284l-2.479.185c-1.251-2.911-1.251-2.911 1.58-4.905l-2.894-1.187-.686-8.383.587-.13a6.29 6.29 0 0 1 .918 1.415l11.608 37.001c-1.306-1.523-4.279-2.215-1.983-5.278h0zm1.971-7.899c-1.855-4.181-1.81-4.889.31-6.55 1.475-1.155 2.224-.836 2.612 1.002.549 2.602-.522 4.312-2.922 5.548h0zm33.833 46.822c-1.692-.112-2.778-.275-3.858-.239l-14.53.539c-3.4.056-6.804-.149-10.205-.261-.828-.027-1.653-.142-2.478-.229-2.06-.219-3.22-1.149-3.359-3.43-.148-2.412-.688-4.799-1.049-7.198-.181-1.197-.272-2.331 1.419-2.495.269-.037.543-.004.795.094a1.59 1.59 0 0 1 .649.468 1.6 1.6 0 0 1 .34.725 1.59 1.59 0 0 1-.055.799c-.601 3.034 1.527 2.962 3.365 3.24.741.112 1.522-.067 2.273.007 2.096.206 3.026-.593 2.59-2.759-.3-1.488.194-2.28 1.876-2.288 1.585-.008 2.706.167 2.476 2.197-.192 1.695.575 2.501 2.411 2.328 1.734-.164 3.509.051 5.23-.175.405-.065.789-.225 1.121-.467a2.6 2.6 0 0 0 .785-.925c.391-3.031.298-3.043 3.417-2.971.071.368.133.587.154.81.111 1.195-.126 2.613.453 3.498.307.468 2.046-.128 3.108.003 1.191.222 2.365.524 3.516.903-.43 2.868.594 5.678-.444 7.829zm1.66-18.378c-.412 2.518-.587 5.074-.874 7.732-1.249-.056-2.081-.145-2.909-.115-.732.026-1.46.185-2.195.286-.328-1.516-.192-3.433-1.036-4.093-.912-.711-2.785-.047-4.16-.345-1.664-.36-2.85-.309-2.562 1.754.338 2.41-.903 2.898-2.879 2.72-.823-.074-1.643-.172-2.671-.281l-.271-3.754c-2.328-.252-4.611-.592-6.9-.643-.327-.007-.987 1.394-.974 2.134.052 2.981-.22 3.353-3.187 2.907a2.16 2.16 0 0 1-.9-.424c-.263-.21-.473-.478-.614-.783-.98-4.1-.937-4.11-5.063-4.039l-.32-3.963c3.746.297 7.127.784 10.509.784 5.965.001 11.935-.202 17.893-.513 2.479-.129 4.927-.784 7.398-1.14 1.303-.188 1.975.191 1.715 1.775zm1.127-10.932a2.13 2.13 0 0 1 .333.521c1.164 6.456 1.164 6.467-5.499 7.024-6.552.548-13.1 1.362-19.661 1.504-4.278.093-8.578-.793-12.865-1.262-1.984-.217-2.46-1.437-2.105-3.227.205-1.036.309-2.093.517-3.546 13.089 1.177 26.27.837 39.28-1.014h0zm-2.04-2.504c3.45-7.639 6.282-14.909 9.942-21.733 3.651-6.805 8.133-13.164 12.25-19.719l.767.467c-6.646 13.977-12.789 28.23-22.959 40.985h0z" class="B C"/><path d="M120.697 98.005c-9.364 6.065-14.921 14.743-21.176 22.802a52.77 52.77 0 0 0 2.063-6.196c1.288-6.264 2.399-12.564 3.528-18.86a5.32 5.32 0 0 0-.291-1.728 4.6 4.6 0 0 0-1.586 1.013c-3.511 5.75-7.31 11.365-10.309 17.376-2.651 5.314-4.392 11.082-6.534 16.65 3.418-11.236 3.963-22.853 4.499-34.568-6.746 5.85-8.372 14.097-10.395 21.688l-.305-22.957c-5.805 5.809-7.305 13.419-9.246 21.413l-4.564-18.26-.948-.008c-2.647 6.549-.769 13.718-2.37 20.53-.123-8.48-4.866-15.12-8.665-22.68-2.789 7.945-.075 15.734-1.49 23.721-2.358-6.139-3.793-12.248-7.777-17.204-1.139 17.612 1.641 34.051 13.894 47.916-.654.11-.936.183-1.222.202-3.2.21-3.443.369-3.392 3.438.044 2.644.25 5.288.485 7.923l1.733 17.644a2.43 2.43 0 0 0 .5 1.031c.246.3.56.536.916.689 2.473.673 5.003 1.118 7.558 1.329 3.47.177 6.982-.121 10.442.022.433-.048.869-.07 1.306-.064.861-.172 1.746-.198 2.616-.077a7.89 7.89 0 0 1 1.752-.2 8.47 8.47 0 0 1 1.612.158c1.938-.503 3.96-.598 5.936-.276l1.084-.131c1.119-.118 2.256-.186 3.397-.198.729-.696 1.194-1.622 1.319-2.622l.399-14.097c.124-2.446.23-4.944 2.158-6.942a3.79 3.79 0 0 0 .787-2.696c-.181-1.933-.685-3.836-1.054-5.737l-2.391-.368c.371-.602.583-.988.833-1.346 2.424-3.475 4.98-6.866 7.242-10.443a95.88 95.88 0 0 0 5.001-9.155l12.654-26.361c.134-.784.134-1.586.001-2.371zm-7.304 7.443l.695.584c-2.941 1.523-2.321 5.965-5.773 7.068l-.657-.527 5.735-7.125zm-6.614 8.635l.621.371a2.93 2.93 0 0 1-.165 1.224c-4.579 6.578-7.577 13.913-10.441 21.335-.937 2.236-2.119 4.361-3.525 6.335-.362.539-1.595.491-2.429.713a10.02 10.02 0 0 1-.278-2.123c.181-.493.404-.97.665-1.426.401-1.456 1.036-2.334 2.72-1.535.35.024.699-.041 1.017-.188-2.018-1.41-1.812-2.669-1.106-4.738.978-2.867 3.24.188 4.366-1.519-1.512-.994-3.391-2.007-1.472-4.082 1.097-1.186 2.374-2.206 3.813-3.524l-1.207-1.031c2.574-3.154 4.299-7.026 7.421-9.812zM92.132 146.29c-.604 2.43-1.419 2.836-4.472 2.378.77-3.312 1.216-3.561 4.472-2.378h0zm3.415-19.054l7.392-27.127c-2.116 9.114-3.362 18.501-7.392 27.127h0zm2.248-21.662c.761-1.419 1.723-2.73 2.61-4.082l.295.228c-.219 1.536-.526 3.058-.92 4.558-.134.433-1.057.623-1.619.924-.139-.552-.565-1.257-.367-1.627v-.001zm-2.55 4.932c1.113-2.393 1.161-2.371 3.853-1.237l-1.254 4.51a4.62 4.62 0 0 0-1.702-.475c-.641.212-1.251.506-1.815.877.401.385.878.684 1.4.876 1.484.166 1.795.88 1.3 2.164-.108.281-.163.581-.26.866-.961 2.807-.962 2.808-3.692 1.565l-1.556-.731 3.727-8.415h0zm-4.315 10.568l4.461 1.038-1.612 5.473-4.961-.956 2.112-5.555zm2.399 8.153l-2.358 5.163-4.051-1.692c.719-4.345 2.156-5.183 6.408-3.471h0zm-5.494-13.332l-2.954-.155 3.367-7.921.326.088-.74 7.988h0zm.76-17.054c-.29 7.445-3.699 13.617-6.83 19.855 1.438-6.873 2.897-13.706 6.83-19.855h0zm-6.002 24.638c.851-.587 2.27-.35 3.441-.472l.157-.695-3.083-1.054c-.308-2.993.402-3.706 4.424-3.729-.579 2.99-1.335 5.943-2.263 8.844-.211.573-2.38.426-4.369.716.715-1.64.901-3.064 1.692-3.61h0zm-1.665 6.491c.501-2.264 2.243-1.145 4.192-1.123-1.422 1.54.132 4.311-2.862 4.361-2.737.047-1.586-2.084-1.33-3.238zm-1.087 9.403l.312-4.325 3.381-.045-2.703 10.555c-2.646-1.077-2.443-2.281.672-5.391l-1.663-.794zm-3.634-26.503l2.259.705c.77 11.599-1.114 23.093-2.66 34.943l3.87-2.121-.224 2.691.478.288 4.015-3.835a28 28 0 0 1 .174-3.904c.332-1.702.775-3.38 1.324-5.025.787-2.465 1.165-2.59 3.576-1.456.397.186.78.402 1.358.703l-1.804 3.662-2.95-1.048c-.3 1.34-.3 1.34 2.372 2.916-1.007 2.382-2.154 4.703-3.433 6.951-.454.72-1.98.878-3.055 1.061-1.133.113-2.272.157-3.41.133-4.151.194-5.487-1.29-5.1-5.695l3.049-1.041-.113-.652a7.49 7.49 0 0 1-1.385-.5c-.731-.435-1.909-.885-2.001-1.469-.197-1.26-.19-2.767 1.784-3.038.715-.236 1.384-.593 1.979-1.055-2.888-.217-3.883-.726-3.56-2.361.329-.705.849-1.305 1.499-1.732.839-.761 1.746-1.445 2.625-2.162l-.427-.532c-.203-.034-.411-.028-.611.019-1.022.507-2.13 1.323-2.726-.421a2.76 2.76 0 0 1 .137-2.196c.172-.337.412-.635.704-.876s.631-.418.995-.522c1.049-.398 2.073-.86 3.065-1.383l-.252-.718-3.476.289c-.748-2.864-.038-4.109 2.581-4.927a6.43 6.43 0 0 0 1.632-1.164l-.232-.537a7.45 7.45 0 0 1-1.367.105 13.21 13.21 0 0 1-1.721-.414l3.222-13.192c-.845 3.09 1.848 6.85-2.19 9.51zm1.563-13.64l-6.245 28.455c-.274-9.852 1.87-19.622 6.245-28.455zm-9.73 35.36l-.734-.028c.004-1.16-1.409-2.39.683-3.809l.051 3.837zm-1.358-5.256c-.327-2.332-.746-4.657-.908-7-.033-.483.889-1.032 1.69-1.894l.117 8.798-.899.096h0zm-.806-19.053a3.79 3.79 0 0 1 1.163 1.262c.294 1.298.117 2.455-2.245 2.137l1.082-3.399zm1.488 4.914c.636 3.644.523 3.905-1.819 4.246-1.299-2.983-1.106-3.432 1.819-4.246zm-2.472 11.08l1.648 14.312-.728.068-1.3-14.291.38-.089zm3.603 22.534l.738-.089-1.634-11.833.821-.188a25.83 25.83 0 0 1 .828 2.948c.267 1.639.327 3.312.612 4.946.247.54.558 1.048.928 1.512.472.971.873 1.977 1.303 2.968-.703.433-1.479.737-2.289.897-.783.086-1.572-.102-2.231-.534a3.39 3.39 0 0 1-1.379-1.834c-1.144-3.031-2.844-5.853-3.969-8.889-.372-1.004.307-2.397.544-3.848l-2.194.708-.989-1.76a1.55 1.55 0 0 1 .169-.389l2.648-2.169c1.485 6.213 2.022 12.557 6.093 17.554h0zm-3.718.01c-2.571.683-3.243.261-3.349-2.113-.097-2.176-.072-4.357-.109-7.095l3.458 9.208h0zm-4.535-30.978c.062.295.092.595.089.896.83 4.402.832 4.402-3.535 6.452-1.839-3.559 1.918-3.365 3.224-4.78-1.076-.849-1.076-.849-4.783.652.04-1.073-.251-2.466.167-2.728 1.301-.694 2.692-1.205 4.133-1.519a2.43 2.43 0 0 1 .705 1.027zm-.811-3.035l-4.355 1.234c-.883-2.637-.653-2.885 3.62-3.861l.735 2.627h0zm-1.371-4.524l-3.099 1.41c-.036-1.815-.465-3.443 2.165-3.405l.934 1.995zm-3.375-3.473l-.075-5.693c1.73 2.147 1.913 4.889.075 5.693zm2.216 33.137l-2.473.656-.974-3.553c-.72-.924-1.934-1.802-1.967-2.723-.03-.836 1.225-1.718 2.361-3.138l-3.404.442c-1.831-2.837-1.617-3.766 1.308-5.198l.073-.676-3.205-.245c-.532-1.258-.532-1.258 1.629-4.284l-2.479.185c-1.251-2.911-1.251-2.911 1.58-4.905l-2.894-1.186-.686-8.383.587-.13a6.3 6.3 0 0 1 .918 1.414l11.607 37.002c-1.306-1.523-4.279-2.215-1.982-5.278h0zm1.971-7.9c-1.855-4.18-1.81-4.889.31-6.55 1.475-1.154 2.224-.835 2.612 1.002.549 2.602-.521 4.313-2.922 5.548h0zm33.833 46.822c-1.692-.111-2.778-.274-3.858-.239l-14.531.539c-3.399.057-6.803-.149-10.205-.261-.828-.027-1.653-.142-2.478-.23-2.06-.218-3.22-1.148-3.359-3.429-.147-2.412-.688-4.799-1.049-7.198-.18-1.197-.271-2.331 1.42-2.495.269-.037.542-.005.795.094a1.59 1.59 0 0 1 .649.468c.173.209.29.458.34.725s.031.541-.055.798c-.601 3.035 1.527 2.962 3.364 3.24.741.112 1.523-.067 2.274.007 2.096.205 3.026-.594 2.59-2.76-.3-1.488.194-2.279 1.876-2.288 1.586-.008 2.706.167 2.477 2.197-.192 1.695.575 2.501 2.411 2.328 1.734-.164 3.509.05 5.23-.175a2.6 2.6 0 0 0 1.121-.468c.331-.242.601-.559.786-.925.391-3.031.298-3.043 3.416-2.971.072.368.134.587.154.81.111 1.196-.126 2.614.454 3.499.306.467 2.046-.129 3.107.002a27.12 27.12 0 0 1 3.516.903c-.429 2.869.595 5.678-.443 7.829zm1.66-18.377c-.412 2.517-.587 5.074-.875 7.731-1.248-.056-2.08-.145-2.908-.115-.733.026-1.461.185-2.195.286-.329-1.516-.192-3.433-1.037-4.092-.912-.711-2.784-.047-4.159-.345-1.664-.36-2.85-.309-2.562 1.755.337 2.41-.903 2.898-2.88 2.72-.822-.074-1.642-.172-2.67-.281l-.272-3.755c-2.328-.252-4.611-.592-6.9-.643-.327-.007-.987 1.394-.974 2.134.052 2.98-.22 3.352-3.187 2.906-.329-.069-.637-.214-.9-.424s-.473-.478-.614-.783c-.98-4.099-.937-4.11-5.063-4.038l-.32-3.964c3.746.297 7.127.784 10.508.785 5.965 0 11.936-.203 17.894-.513 2.479-.129 4.927-.784 7.398-1.14 1.304-.188 1.975.191 1.715 1.776zm1.127-10.932a2.18 2.18 0 0 1 .333.52c1.164 6.457 1.164 6.467-5.499 7.025-6.552.548-13.1 1.361-19.661 1.504-4.278.093-8.578-.793-12.865-1.262-1.983-.217-2.459-1.437-2.105-3.227.205-1.037.31-2.093.518-3.546a170.53 170.53 0 0 0 39.28-1.014h0zm-2.04-2.504c3.45-7.639 6.281-14.909 9.942-21.734 3.651-6.805 8.132-13.164 12.25-19.719l.766.467c-6.645 13.977-12.788 28.23-22.958 40.986h0z" class="B C"/><path d="M282.494 98.005c-9.364 6.065-14.922 14.743-21.176 22.802a52.75 52.75 0 0 0 2.063-6.196c1.288-6.264 2.399-12.564 3.528-18.86-.001-.588-.099-1.172-.292-1.728a4.61 4.61 0 0 0-1.585 1.013c-3.511 5.75-7.31 11.365-10.309 17.376-2.651 5.314-4.392 11.082-6.534 16.65 3.417-11.236 3.963-22.853 4.499-34.568-6.746 5.85-8.372 14.097-10.395 21.688l-.304-22.957c-5.806 5.809-7.306 13.419-9.247 21.413l-4.564-18.26-.948-.008c-2.647 6.549-.769 13.718-2.37 20.53-.123-8.48-4.866-15.12-8.665-22.68-2.789 7.945-.075 15.734-1.489 23.721-2.358-6.139-3.793-12.248-7.777-17.204-1.139 17.612 1.641 34.051 13.893 47.916-.653.11-.936.183-1.222.202-3.2.21-3.443.369-3.392 3.438.043 2.644.25 5.288.485 7.923l1.732 17.644c.083.379.254.732.5 1.031a2.42 2.42 0 0 0 .916.689c2.473.673 5.003 1.118 7.558 1.329 3.47.177 6.982-.121 10.442.022.434-.048.87-.07 1.306-.064.861-.172 1.745-.198 2.616-.077a7.88 7.88 0 0 1 1.752-.2 8.47 8.47 0 0 1 1.612.158c1.938-.503 3.96-.598 5.936-.276l1.084-.131a36.06 36.06 0 0 1 3.398-.198 4.37 4.37 0 0 0 1.318-2.622l.4-14.097c.124-2.446.229-4.944 2.158-6.942a3.79 3.79 0 0 0 .787-2.696c-.181-1.933-.685-3.836-1.054-5.737l-2.392-.368c.371-.602.583-.988.833-1.346 2.424-3.475 4.981-6.866 7.243-10.443a95.88 95.88 0 0 0 5.001-9.155l12.654-26.361c.134-.784.134-1.586.001-2.371zm-7.304 7.443l.695.584c-2.941 1.523-2.321 5.965-5.773 7.068l-.657-.527 5.735-7.125zm-6.614 8.635l.621.371c.032.415-.024.833-.165 1.224-4.579 6.578-7.577 13.913-10.441 21.335-.937 2.236-2.12 4.361-3.526 6.335-.362.539-1.595.491-2.428.713a10.06 10.06 0 0 1-.278-2.123c.182-.493.404-.97.665-1.426.4-1.456 1.036-2.334 2.72-1.535.349.024.699-.041 1.017-.188-2.019-1.41-1.813-2.669-1.106-4.738.978-2.867 3.239.188 4.366-1.519-1.512-.994-3.391-2.007-1.472-4.082 1.097-1.186 2.374-2.206 3.813-3.524l-1.207-1.031c2.574-3.154 4.299-7.026 7.421-9.812zm-14.647 32.207c-.604 2.43-1.419 2.836-4.472 2.378.77-3.312 1.216-3.561 4.472-2.378h0zm3.416-19.054l7.392-27.127c-2.116 9.114-3.363 18.501-7.392 27.127h0zm2.248-21.662c.761-1.419 1.723-2.73 2.61-4.082l.295.228c-.219 1.536-.526 3.058-.92 4.558-.135.433-1.057.623-1.619.924-.139-.552-.565-1.257-.366-1.627v-.001zm-2.551 4.932c1.114-2.393 1.161-2.371 3.853-1.237l-1.254 4.51c-.531-.266-1.109-.428-1.702-.475a7.7 7.7 0 0 0-1.815.877c.401.385.878.684 1.4.876 1.484.166 1.795.88 1.299 2.164-.108.281-.162.581-.26.866-.961 2.807-.962 2.808-3.692 1.565l-1.556-.731 3.727-8.415h0zm-4.315 10.568l4.461 1.038-1.612 5.473-4.96-.956 2.111-5.555zm2.4 8.153l-2.358 5.163-4.05-1.692c.719-4.345 2.156-5.183 6.408-3.471h0zm-5.494-13.332l-2.954-.155 3.367-7.921.327.088-.74 7.988h0zm.76-17.054c-.29 7.445-3.699 13.617-6.83 19.855 1.438-6.873 2.897-13.706 6.83-19.855h0zm-6.002 24.638c.851-.587 2.27-.35 3.441-.472l.157-.695-3.083-1.054c-.307-2.993.402-3.706 4.425-3.729a77.2 77.2 0 0 1-2.264 8.844c-.211.573-2.38.426-4.369.716.716-1.64.901-3.064 1.693-3.61h0zm-1.665 6.491c.501-2.264 2.243-1.145 4.192-1.123-1.422 1.54.132 4.311-2.862 4.361-2.737.047-1.586-2.084-1.33-3.238zm-1.087 9.403l.312-4.325 3.381-.045-2.703 10.555c-2.646-1.077-2.443-2.281.672-5.391l-1.662-.794zm-3.635-26.503l2.259.705c.771 11.599-1.113 23.093-2.66 34.943l3.87-2.121-.223 2.691.478.288 4.015-3.835c-.033-1.304.025-2.609.173-3.904.332-1.702.775-3.38 1.325-5.025.786-2.465 1.164-2.59 3.575-1.456.397.186.781.402 1.358.703l-1.804 3.662-2.951-1.048c-.299 1.34-.299 1.34 2.372 2.916-1.007 2.382-2.153 4.703-3.433 6.951-.455.72-1.98.878-3.055 1.061a28.35 28.35 0 0 1-3.411.133c-4.15.194-5.487-1.29-5.099-5.695l3.048-1.041-.112-.652a7.52 7.52 0 0 1-1.386-.5c-.73-.435-1.909-.885-2-1.469-.197-1.26-.191-2.767 1.784-3.038a6.59 6.59 0 0 0 1.979-1.055c-2.888-.217-3.883-.726-3.56-2.361a4.2 4.2 0 0 1 1.5-1.732c.838-.761 1.746-1.445 2.624-2.162l-.427-.532a1.55 1.55 0 0 0-.611.019c-1.022.507-2.131 1.323-2.726-.421a2.77 2.77 0 0 1 .137-2.196c.172-.337.411-.635.704-.876a2.76 2.76 0 0 1 .994-.522 27.46 27.46 0 0 0 3.065-1.383l-.252-.718-3.476.289c-.748-2.864-.037-4.109 2.582-4.927a6.43 6.43 0 0 0 1.631-1.164l-.232-.537a7.44 7.44 0 0 1-1.366.105 13.2 13.2 0 0 1-1.722-.414l3.223-13.192c-.845 3.09 1.848 6.85-2.19 9.51zm1.564-13.64l-6.245 28.455c-.274-9.852 1.87-19.622 6.245-28.455zm-9.73 35.36l-.734-.028c.004-1.16-1.409-2.39.683-3.809l.051 3.837zm-1.358-5.256c-.327-2.332-.745-4.657-.907-7-.034-.483.889-1.032 1.69-1.894l.117 8.798-.9.096h0zm-.806-19.053a3.8 3.8 0 0 1 1.164 1.262c.293 1.298.116 2.455-2.245 2.137l1.081-3.399zm1.488 4.914c.636 3.644.524 3.905-1.819 4.246-1.299-2.983-1.106-3.432 1.819-4.246zm-2.472 11.08l1.648 14.312-.727.068-1.301-14.291.38-.089zm3.603 22.534l.739-.089-1.634-11.833.821-.188c.334.966.61 1.95.827 2.948.267 1.639.327 3.312.612 4.946.247.54.559 1.048.929 1.512.472.971.872 1.977 1.303 2.968-.703.433-1.479.737-2.289.897-.783.086-1.572-.102-2.231-.534a3.39 3.39 0 0 1-1.379-1.834c-1.144-3.031-2.844-5.853-3.969-8.889-.372-1.004.307-2.397.544-3.848l-2.193.708-.989-1.76c.039-.137.095-.268.169-.389l2.648-2.169c1.485 6.213 2.022 12.557 6.092 17.554h0zm-3.717.01c-2.571.683-3.243.261-3.35-2.113-.097-2.176-.072-4.357-.108-7.095l3.458 9.208h0zm-4.536-30.978a4.15 4.15 0 0 1 .089.896c.83 4.402.832 4.402-3.535 6.452-1.839-3.559 1.919-3.365 3.224-4.78-1.075-.849-1.075-.849-4.783.652.04-1.073-.251-2.466.167-2.728a16.05 16.05 0 0 1 4.133-1.519 2.43 2.43 0 0 1 .705 1.027zm-.811-3.035l-4.355 1.234c-.883-2.637-.654-2.885 3.62-3.861l.735 2.627h0zm-1.371-4.524l-3.099 1.41c-.036-1.815-.465-3.443 2.165-3.405l.934 1.995zm-3.375-3.473l-.075-5.693c1.73 2.147 1.913 4.889.075 5.693zm2.216 33.137l-2.473.656-.974-3.553c-.72-.924-1.934-1.802-1.967-2.723-.03-.836 1.225-1.718 2.361-3.138l-3.404.442c-1.831-2.837-1.617-3.766 1.308-5.198l.073-.676-3.205-.245c-.532-1.258-.532-1.258 1.629-4.284l-2.478.185c-1.251-2.911-1.251-2.911 1.58-4.905l-2.894-1.186-.686-8.383.587-.13c.368.428.677.904.918 1.414l11.607 37.002c-1.306-1.523-4.279-2.215-1.982-5.278h0zm1.971-7.9c-1.855-4.18-1.811-4.889.31-6.55 1.474-1.154 2.224-.835 2.611 1.002.549 2.602-.521 4.313-2.921 5.548h0zm33.833 46.822c-1.692-.111-2.778-.274-3.858-.239l-14.531.539c-3.399.057-6.803-.149-10.204-.261-.828-.027-1.653-.142-2.478-.23-2.06-.218-3.22-1.148-3.36-3.429-.147-2.412-.687-4.799-1.049-7.198-.18-1.197-.271-2.331 1.42-2.495.269-.037.542-.005.795.094a1.59 1.59 0 0 1 .649.468c.173.209.29.458.34.725a1.59 1.59 0 0 1-.055.798c-.601 3.035 1.527 2.962 3.364 3.24.741.112 1.523-.067 2.274.007 2.096.205 3.026-.594 2.589-2.76-.299-1.488.195-2.279 1.876-2.288 1.586-.008 2.706.167 2.477 2.197-.192 1.695.574 2.501 2.41 2.328 1.735-.164 3.51.05 5.231-.175.405-.065.789-.226 1.12-.468a2.59 2.59 0 0 0 .786-.925c.391-3.031.298-3.043 3.416-2.971.072.368.134.587.155.81.111 1.196-.126 2.614.453 3.499.306.467 2.046-.129 3.107.002a27.1 27.1 0 0 1 3.516.903c-.429 2.869.595 5.678-.443 7.829zm1.66-18.377c-.412 2.517-.587 5.074-.875 7.731-1.248-.056-2.08-.145-2.908-.115-.733.026-1.461.185-2.195.286-.329-1.516-.192-3.433-1.037-4.092-.911-.711-2.784-.047-4.159-.345-1.664-.36-2.85-.309-2.562 1.755.337 2.41-.903 2.898-2.88 2.72-.822-.074-1.642-.172-2.67-.281l-.271-3.755c-2.329-.252-4.611-.592-6.901-.643-.326-.007-.987 1.394-.974 2.134.053 2.98-.22 3.352-3.187 2.906-.328-.069-.637-.214-.899-.424a2.16 2.16 0 0 1-.615-.783c-.979-4.099-.937-4.11-5.062-4.038l-.32-3.964c3.745.297 7.127.784 10.508.785 5.965 0 11.936-.203 17.894-.513 2.478-.129 4.927-.784 7.397-1.14 1.304-.188 1.975.191 1.716 1.776zm1.127-10.932c.135.157.247.332.333.52 1.164 6.457 1.164 6.467-5.499 7.025-6.552.548-13.1 1.361-19.662 1.504-4.277.093-8.577-.793-12.865-1.262-1.983-.217-2.459-1.437-2.105-3.227.205-1.037.31-2.093.518-3.546a170.53 170.53 0 0 0 39.28-1.014h0zm-2.04-2.504c3.45-7.639 6.281-14.909 9.942-21.734 3.65-6.805 8.132-13.164 12.25-19.719l.766.467c-6.645 13.977-12.789 28.23-22.958 40.986h0z" class="B C"/><path d="M39.799 190.747c-9.365 6.065-14.922 14.742-21.176 22.802.815-2.021 1.504-4.09 2.063-6.196 1.288-6.264 2.399-12.565 3.528-18.86a5.3 5.3 0 0 0-.291-1.728c-.593.225-1.132.57-1.585 1.013-3.511 5.75-7.31 11.365-10.31 17.376-2.651 5.314-4.392 11.082-6.534 16.65 3.418-11.236 3.963-22.853 4.499-34.569-6.746 5.85-8.372 14.097-10.395 21.688l-.304-22.956c-5.805 5.809-7.305 13.419-9.246 21.413l-4.564-18.26-.948-.008c-2.647 6.549-.769 13.717-2.37 20.529-.123-8.48-4.866-15.119-8.665-22.679-2.789 7.945-.075 15.733-1.49 23.721-2.358-6.139-3.793-12.249-7.777-17.204-1.139 17.611 1.641 34.051 13.894 47.916-.654.11-.936.183-1.222.202-3.2.21-3.443.369-3.392 3.438.044 2.643.25 5.288.485 7.923l1.733 17.644c.082.378.253.732.5 1.031s.56.535.916.689c2.473.673 5.003 1.118 7.558 1.328 3.47.178 6.982-.12 10.442.023.433-.049.869-.07 1.306-.064.861-.172 1.746-.198 2.616-.077a7.95 7.95 0 0 1 1.752-.201c.541.002 1.081.055 1.612.159a14.41 14.41 0 0 1 5.936-.277l1.084-.13c1.119-.118 2.256-.186 3.397-.198.729-.696 1.194-1.623 1.319-2.623l.399-14.096c.124-2.447.23-4.944 2.158-6.942a3.79 3.79 0 0 0 .787-2.696c-.181-1.933-.685-3.836-1.054-5.738l-2.391-.367c.371-.603.583-.988.833-1.347 2.424-3.475 4.981-6.865 7.243-10.442a96.05 96.05 0 0 0 5.001-9.155l12.654-26.361c.134-.785.134-1.586.001-2.371zm-7.304 7.443l.694.584c-2.94 1.522-2.321 5.965-5.773 7.068l-.657-.527 5.735-7.125zm-6.614 8.635l.621.371c.033.415-.023.832-.165 1.224-4.579 6.578-7.577 13.913-10.441 21.335a32.75 32.75 0 0 1-3.526 6.335c-.362.538-1.595.491-2.429.713a10.04 10.04 0 0 1-.278-2.123c.181-.493.404-.97.665-1.426.401-1.456 1.037-2.335 2.72-1.535.349.023.699-.041 1.017-.188-2.018-1.41-1.812-2.669-1.106-4.739.978-2.867 3.24.189 4.366-1.518-1.512-.994-3.391-2.007-1.472-4.082 1.097-1.186 2.374-2.207 3.813-3.524l-1.207-1.032c2.574-3.153 4.299-7.025 7.421-9.811zm-14.647 32.207c-.604 2.429-1.419 2.836-4.472 2.378.77-3.313 1.216-3.561 4.472-2.378h0zm3.415-19.055l7.392-27.126c-2.116 9.113-3.363 18.501-7.392 27.126h0zm2.248-21.661c.761-1.419 1.723-2.73 2.61-4.082l.295.228c-.218 1.535-.525 3.057-.92 4.558-.134.433-1.057.622-1.619.923-.139-.551-.565-1.256-.367-1.627h0zm-2.551 4.931c1.114-2.392 1.161-2.37 3.853-1.236l-1.254 4.51a4.64 4.64 0 0 0-1.702-.476 7.75 7.75 0 0 0-1.815.877c.401.386.878.684 1.4.877 1.484.166 1.795.879 1.3 2.164-.108.28-.163.581-.26.866-.961 2.807-.962 2.807-3.692 1.565l-1.556-.732 3.727-8.414v-.001zm-4.315 10.569l4.461 1.038-1.612 5.472-4.961-.955 2.112-5.555zm2.399 8.153l-2.357 5.163-4.051-1.692c.719-4.345 2.156-5.183 6.408-3.471h0zm-5.494-13.332l-2.954-.155 3.367-7.921.326.087-.74 7.989h0zm.76-17.055c-.29 7.446-3.699 13.618-6.83 19.856 1.438-6.873 2.897-13.707 6.83-19.856h0zm-6.002 24.639c.851-.587 2.27-.35 3.441-.472l.157-.695L2.211 214c-.308-2.993.402-3.706 4.424-3.729a77.16 77.16 0 0 1-2.263 8.844c-.211.573-2.38.426-4.369.716.715-1.641.901-3.064 1.692-3.61h0zm-1.665 6.49c.502-2.263 2.243-1.144 4.192-1.122-1.422 1.54.132 4.31-2.862 4.361-2.737.046-1.586-2.084-1.33-3.239zm-1.087 9.403l.312-4.325 3.381-.044-2.703 10.554c-2.646-1.076-2.443-2.28.672-5.39l-1.663-.795zm-3.634-26.503l2.259.706c.771 11.599-1.113 23.093-2.66 34.942l3.87-2.12-.224 2.691.478.288 4.015-3.835c-.033-1.304.025-2.609.174-3.905a40.01 40.01 0 0 1 1.324-5.024c.786-2.466 1.165-2.59 3.576-1.457.397.187.78.403 1.358.703l-1.804 3.663-2.95-1.048c-.3 1.34-.3 1.34 2.372 2.916a65.93 65.93 0 0 1-3.433 6.95c-.454.72-1.98.879-3.055 1.062-1.133.113-2.272.157-3.41.133-4.151.194-5.487-1.29-5.1-5.695l3.049-1.042-.113-.651c-.477-.121-.941-.289-1.385-.501-.731-.434-1.909-.884-2.001-1.468-.196-1.26-.19-2.767 1.784-3.038.715-.236 1.385-.593 1.979-1.055-2.888-.217-3.883-.726-3.56-2.361.33-.705.849-1.305 1.499-1.733.839-.76 1.747-1.445 2.625-2.162l-.427-.531c-.203-.035-.411-.028-.611.019-1.022.507-2.13 1.322-2.726-.421a2.76 2.76 0 0 1 .137-2.196c.172-.337.412-.635.704-.876s.631-.418.995-.523c1.049-.397 2.073-.859 3.065-1.382l-.252-.718-3.476.288c-.748-2.864-.038-4.108 2.582-4.926.601-.301 1.152-.693 1.632-1.164l-.232-.537a7.45 7.45 0 0 1-1.367.105c-.582-.099-1.157-.238-1.721-.414l3.222-13.192c-.845 3.09 1.848 6.849-2.189 9.509zm1.563-13.639l-6.245 28.455c-.274-9.853 1.87-19.623 6.245-28.455zm-9.73 35.359l-.734-.028c.004-1.159-1.409-2.389.683-3.809l.051 3.837zm-1.358-5.255c-.327-2.332-.746-4.657-.908-7-.033-.483.889-1.032 1.69-1.894l.117 8.798-.899.096h0zm-.806-19.054c.479.327.877.759 1.164 1.263.294 1.298.117 2.455-2.245 2.137l1.081-3.4zm1.488 4.915c.636 3.643.523 3.905-1.819 4.246-1.299-2.984-1.106-3.432 1.819-4.246zm-2.472 11.08l1.648 14.311-.728.069-1.3-14.291.38-.089zm3.603 22.534l.738-.09-1.634-11.832.821-.188a25.77 25.77 0 0 1 .828 2.948c.267 1.638.326 3.311.612 4.946a7.3 7.3 0 0 0 .928 1.512c.472.97.873 1.976 1.303 2.967a6.88 6.88 0 0 1-2.289.897c-.783.087-1.572-.102-2.231-.534s-1.146-1.08-1.379-1.833c-1.144-3.031-2.844-5.853-3.969-8.889-.372-1.004.307-2.398.544-3.849l-2.194.708-.989-1.759a1.58 1.58 0 0 1 .169-.39l2.648-2.169c1.485 6.214 2.022 12.557 6.093 17.555h0zm-3.718.01c-2.571.683-3.243.26-3.35-2.113-.097-2.176-.072-4.357-.109-7.095l3.458 9.208h0zm-4.535-30.978a4.15 4.15 0 0 1 .089.896c.83 4.402.832 4.402-3.535 6.451-1.839-3.558 1.918-3.364 3.224-4.779-1.075-.849-1.075-.849-4.783.652.04-1.073-.251-2.466.167-2.729 1.301-.694 2.692-1.205 4.133-1.519a2.44 2.44 0 0 1 .705 1.028zm-.811-3.036l-4.356 1.235c-.883-2.637-.653-2.885 3.621-3.861l.735 2.626h0zm-1.372-4.523l-3.099 1.41c-.036-1.816-.465-3.443 2.165-3.405l.934 1.995zm-3.374-3.474l-.076-5.692c1.73 2.146 1.913 4.889.076 5.692zm2.216 33.137l-2.473.656-.974-3.552c-.72-.924-1.934-1.802-1.967-2.723-.03-.836 1.226-1.718 2.361-3.139l-3.404.443c-1.831-2.837-1.617-3.766 1.308-5.199l.073-.676-3.205-.244c-.532-1.259-.532-1.259 1.629-4.284l-2.479.185c-1.251-2.911-1.251-2.911 1.58-4.905l-2.894-1.187-.686-8.383.587-.129a6.3 6.3 0 0 1 .918 1.414l11.607 37.001c-1.306-1.522-4.279-2.214-1.982-5.278h0zm1.971-7.899c-1.855-4.181-1.81-4.889.31-6.55 1.475-1.155 2.224-.835 2.612 1.002.549 2.601-.521 4.312-2.922 5.548h0zm33.833 46.822c-1.692-.112-2.778-.275-3.858-.239l-14.531.539c-3.399.056-6.803-.149-10.205-.261-.828-.028-1.653-.142-2.478-.23-2.06-.219-3.22-1.149-3.359-3.429-.147-2.412-.688-4.799-1.049-7.198-.18-1.197-.271-2.331 1.42-2.495.269-.037.542-.005.795.094a1.59 1.59 0 0 1 .649.468c.173.209.29.458.34.725s.031.541-.055.798c-.601 3.034 1.527 2.962 3.365 3.24.741.112 1.522-.067 2.274.006 2.096.206 3.026-.593 2.59-2.759-.3-1.488.194-2.279 1.876-2.288 1.586-.008 2.706.167 2.476 2.197-.192 1.695.575 2.501 2.411 2.327 1.734-.163 3.509.051 5.23-.175a2.6 2.6 0 0 0 1.121-.467c.331-.242.601-.559.786-.925.391-3.031.298-3.043 3.416-2.971.071.368.134.587.154.81.111 1.196-.126 2.613.453 3.498.306.468 2.046-.128 3.107.003a27.12 27.12 0 0 1 3.516.903c-.429 2.868.594 5.678-.443 7.829zm1.66-18.378c-.412 2.518-.587 5.074-.875 7.732-1.248-.056-2.08-.145-2.908-.115-.733.026-1.461.185-2.195.286-.329-1.516-.192-3.433-1.037-4.092-.912-.711-2.784-.047-4.159-.345-1.664-.36-2.851-.309-2.562 1.754.337 2.41-.903 2.898-2.88 2.721-.822-.074-1.642-.173-2.67-.282l-.271-3.754c-2.328-.253-4.611-.593-6.9-.643-.327-.008-.987 1.393-.974 2.133.052 2.981-.22 3.353-3.187 2.907a2.16 2.16 0 0 1-.9-.424c-.263-.21-.473-.478-.614-.783-.98-4.1-.937-4.11-5.063-4.039l-.32-3.963c3.746.297 7.127.784 10.508.784 5.965.001 11.936-.202 17.894-.512 2.479-.13 4.927-.785 7.398-1.14 1.304-.188 1.975.191 1.715 1.775zm1.127-10.931a2.16 2.16 0 0 1 .333.52c1.164 6.456 1.164 6.467-5.499 7.025-6.552.548-13.1 1.361-19.661 1.504-4.277.093-8.578-.793-12.865-1.262-1.983-.217-2.459-1.438-2.105-3.228.205-1.036.31-2.092.518-3.545 13.089 1.176 26.27.836 39.28-1.014h0zm-2.04-2.505c3.45-7.639 6.281-14.908 9.942-21.733 3.65-6.805 8.132-13.164 12.25-19.719l.767.467c-6.646 13.977-12.789 28.23-22.958 40.985h0z" class="B C"/><path d="M201.596 190.747c-9.365 6.065-14.922 14.742-21.176 22.802.814-2.021 1.503-4.09 2.063-6.196 1.288-6.264 2.399-12.565 3.527-18.86 0-.588-.099-1.172-.291-1.728a4.61 4.61 0 0 0-1.585 1.013c-3.512 5.75-7.31 11.365-10.31 17.376-2.651 5.314-4.391 11.082-6.534 16.65 3.418-11.236 3.964-22.853 4.5-34.569-6.746 5.85-8.372 14.097-10.395 21.688l-.305-22.956c-5.805 5.809-7.305 13.419-9.246 21.413l-4.564-18.26-.948-.008c-2.647 6.549-.769 13.717-2.37 20.529-.123-8.48-4.866-15.119-8.665-22.679-2.789 7.945-.076 15.733-1.49 23.721-2.358-6.139-3.792-12.249-7.777-17.204-1.139 17.611 1.641 34.051 13.894 47.916-.654.11-.936.183-1.223.202-3.199.21-3.443.369-3.392 3.438.044 2.643.25 5.288.485 7.923l1.733 17.644c.082.378.253.732.5 1.031a2.44 2.44 0 0 0 .916.689c2.473.673 5.003 1.118 7.558 1.328 3.47.178 6.981-.12 10.442.023a10.34 10.34 0 0 1 1.305-.064c.862-.172 1.746-.198 2.616-.077.575-.132 1.163-.199 1.752-.201.542.002 1.081.055 1.612.159a14.41 14.41 0 0 1 5.937-.277l1.084-.13c1.119-.118 2.256-.186 3.397-.198a4.37 4.37 0 0 0 1.319-2.623l.399-14.096c.124-2.447.23-4.944 2.158-6.942a3.79 3.79 0 0 0 .787-2.696c-.181-1.933-.685-3.836-1.054-5.738l-2.391-.367c.371-.603.583-.988.833-1.347 2.424-3.475 4.981-6.865 7.242-10.442a96.01 96.01 0 0 0 5.002-9.155l12.654-26.361a7.07 7.07 0 0 0 .001-2.371zm-7.304 7.443l.694.584c-2.94 1.522-2.321 5.965-5.773 7.068l-.657-.527 5.736-7.125zm-6.615 8.635l.621.371a2.93 2.93 0 0 1-.164 1.224c-4.579 6.578-7.577 13.913-10.442 21.335a32.74 32.74 0 0 1-3.525 6.335c-.362.538-1.595.491-2.429.713-.168-.696-.261-1.408-.277-2.123.181-.493.403-.97.664-1.426.401-1.456 1.037-2.335 2.72-1.535.35.023.699-.041 1.017-.188-2.018-1.41-1.812-2.669-1.106-4.739.978-2.867 3.24.189 4.366-1.518-1.512-.994-3.391-2.007-1.471-4.082 1.097-1.186 2.374-2.207 3.813-3.524l-1.207-1.032c2.574-3.153 4.298-7.025 7.42-9.811zm-14.646 32.207c-.604 2.429-1.42 2.836-4.472 2.378.769-3.313 1.215-3.561 4.472-2.378h0zm3.415-19.055l7.393-27.126c-2.116 9.113-3.363 18.501-7.393 27.126h0zm2.248-21.661c.762-1.419 1.724-2.73 2.611-4.082l.294.228c-.218 1.535-.525 3.057-.92 4.558-.134.433-1.057.622-1.618.923-.139-.551-.565-1.256-.367-1.627h0zm-2.55 4.931c1.113-2.392 1.161-2.37 3.852-1.236l-1.254 4.51c-.531-.266-1.109-.428-1.701-.476a7.74 7.74 0 0 0-1.815.877 4.03 4.03 0 0 0 1.399.877c1.485.166 1.796.879 1.3 2.164-.108.28-.163.581-.26.866-.961 2.807-.962 2.807-3.692 1.565l-1.556-.732 3.727-8.414v-.001zm-4.315 10.569l4.461 1.038-1.612 5.472-4.961-.955 2.112-5.555zm2.399 8.153l-2.357 5.163-4.051-1.692c.719-4.345 2.156-5.183 6.408-3.471h0zm-5.494-13.332l-2.953-.155 3.367-7.921.326.087-.74 7.989h0zm.761-17.055c-.291 7.446-3.7 13.618-6.831 19.856 1.439-6.873 2.897-13.707 6.831-19.856h0zm-6.003 24.639c.851-.587 2.27-.35 3.442-.472l.157-.695-3.083-1.054c-.308-2.993.402-3.706 4.424-3.729-.579 2.99-1.335 5.943-2.263 8.844-.211.573-2.38.426-4.369.716.715-1.641.901-3.064 1.692-3.61h0zm-1.665 6.49c.502-2.263 2.244-1.144 4.192-1.122-1.421 1.54.133 4.31-2.862 4.361-2.737.046-1.586-2.084-1.33-3.239zm-1.087 9.403l.313-4.325 3.381-.044-2.703 10.554c-2.646-1.076-2.444-2.28.672-5.39l-1.663-.795zm-3.634-26.503l2.259.706c.77 11.599-1.114 23.093-2.66 34.942l3.87-2.12-.224 2.691.479.288 4.014-3.835a27.99 27.99 0 0 1 .174-3.905c.332-1.701.774-3.38 1.324-5.024.787-2.466 1.165-2.59 3.576-1.457.397.187.78.403 1.357.703l-1.804 3.663-2.95-1.048c-.3 1.34-.3 1.34 2.372 2.916a65.83 65.83 0 0 1-3.434 6.95c-.454.72-1.979.879-3.055 1.062a28.34 28.34 0 0 1-3.41.133c-4.151.194-5.487-1.29-5.1-5.695l3.049-1.042-.113-.651a7.49 7.49 0 0 1-1.385-.501c-.731-.434-1.909-.884-2.001-1.468-.196-1.26-.19-2.767 1.785-3.038a6.6 6.6 0 0 0 1.979-1.055c-2.888-.217-3.883-.726-3.56-2.361a4.2 4.2 0 0 1 1.499-1.733c.839-.76 1.747-1.445 2.625-2.162l-.427-.531a1.54 1.54 0 0 0-.612.019c-1.022.507-2.13 1.322-2.725-.421-.129-.356-.184-.735-.16-1.112s.124-.747.296-1.084a2.77 2.77 0 0 1 .704-.876c.292-.241.631-.418.995-.523 1.049-.397 2.072-.859 3.065-1.382l-.253-.718-3.475.288c-.748-2.864-.038-4.108 2.581-4.926a6.46 6.46 0 0 0 1.632-1.164l-.232-.537a7.45 7.45 0 0 1-1.367.105c-.582-.099-1.157-.238-1.721-.414l3.222-13.192c-.844 3.09 1.849 6.849-2.189 9.509zm1.563-13.639l-6.244 28.455a60.34 60.34 0 0 1 6.244-28.455zm-9.73 35.359l-.733-.028c.004-1.159-1.409-2.389.683-3.809l.05 3.837zm-1.357-5.255c-.328-2.332-.746-4.657-.908-7-.033-.483.89-1.032 1.691-1.894l.116 8.798-.899.096h0zm-.806-19.054a3.8 3.8 0 0 1 1.163 1.263c.294 1.298.117 2.455-2.245 2.137l1.082-3.4zm1.488 4.915c.636 3.643.523 3.905-1.819 4.246-1.299-2.984-1.107-3.432 1.819-4.246zm-2.472 11.08l1.648 14.311-.728.069-1.3-14.291.38-.089zm3.603 22.534l.738-.09-1.633-11.832.82-.188c.334.965.611 1.95.828 2.948.266 1.638.326 3.311.612 4.946.246.54.558 1.047.928 1.512.473.97.873 1.976 1.303 2.967-.703.434-1.478.738-2.289.897-.783.087-1.572-.102-2.231-.534s-1.146-1.08-1.378-1.833c-1.144-3.031-2.844-5.853-3.969-8.889-.372-1.004.307-2.398.544-3.849l-2.194.708-.988-1.759a1.55 1.55 0 0 1 .169-.39l2.648-2.169c1.485 6.214 2.021 12.557 6.092 17.555h0zm-3.718.01c-2.57.683-3.243.26-3.349-2.113-.098-2.176-.072-4.357-.109-7.095l3.458 9.208h0zm-4.535-30.978c.062.294.092.595.089.896.83 4.402.831 4.402-3.535 6.451-1.839-3.558 1.918-3.364 3.224-4.779-1.076-.849-1.076-.849-4.783.652.04-1.073-.251-2.466.167-2.729 1.301-.694 2.692-1.205 4.133-1.519a2.44 2.44 0 0 1 .705 1.028zm-.811-3.036l-4.356 1.235c-.883-2.637-.653-2.885 3.621-3.861l.735 2.626h0zm-1.372-4.523l-3.098 1.41c-.036-1.816-.465-3.443 2.164-3.405l.934 1.995zm-3.374-3.474l-.076-5.692c1.73 2.146 1.914 4.889.076 5.692zm2.216 33.137l-2.474.656-.974-3.552c-.72-.924-1.934-1.802-1.967-2.723-.03-.836 1.226-1.718 2.362-3.139l-3.404.443c-1.832-2.837-1.618-3.766 1.308-5.199l.073-.676-3.205-.244c-.532-1.259-.532-1.259 1.629-4.284l-2.479.185c-1.25-2.911-1.25-2.911 1.58-4.905l-2.894-1.187-.686-8.383.588-.129a6.33 6.33 0 0 1 .918 1.414l11.607 37.001c-1.306-1.522-4.279-2.214-1.982-5.278h0zm1.97-7.899c-1.855-4.181-1.81-4.889.31-6.55 1.475-1.155 2.224-.835 2.612 1.002.549 2.601-.521 4.312-2.922 5.548h0zm33.833 46.822c-1.692-.112-2.778-.275-3.858-.239l-14.53.539c-3.4.056-6.804-.149-10.205-.261-.827-.028-1.653-.142-2.478-.23-2.06-.219-3.22-1.149-3.359-3.429-.148-2.412-.688-4.799-1.049-7.198-.181-1.197-.272-2.331 1.42-2.495a1.58 1.58 0 0 1 .794.094c.253.098.476.259.649.468s.29.458.34.725a1.59 1.59 0 0 1-.055.798c-.601 3.034 1.527 2.962 3.365 3.24.741.112 1.522-.067 2.273.006 2.096.206 3.026-.593 2.59-2.759-.3-1.488.194-2.279 1.876-2.288 1.585-.008 2.706.167 2.476 2.197-.191 1.695.575 2.501 2.411 2.327 1.734-.163 3.509.051 5.23-.175.405-.065.789-.225 1.121-.467a2.61 2.61 0 0 0 .786-.925c.39-3.031.297-3.043 3.416-2.971.071.368.134.587.154.81.111 1.196-.126 2.613.454 3.498.306.468 2.045-.128 3.107.003a27.14 27.14 0 0 1 3.516.903c-.43 2.868.594 5.678-.444 7.829zm1.66-18.378c-.412 2.518-.586 5.074-.874 7.732-1.248-.056-2.081-.145-2.908-.115-.733.026-1.461.185-2.196.286-.328-1.516-.192-3.433-1.036-4.092-.912-.711-2.784-.047-4.159-.345-1.665-.36-2.851-.309-2.562 1.754.337 2.41-.903 2.898-2.88 2.721-.822-.074-1.643-.173-2.67-.282l-.272-3.754c-2.328-.253-4.611-.593-6.9-.643-.327-.008-.987 1.393-.974 2.133.052 2.981-.22 3.353-3.187 2.907a2.16 2.16 0 0 1-.9-.424c-.263-.21-.473-.478-.614-.783-.98-4.1-.937-4.11-5.063-4.039l-.32-3.963c3.746.297 7.127.784 10.509.784 5.965.001 11.935-.202 17.893-.512 2.479-.13 4.927-.785 7.398-1.14 1.304-.188 1.975.191 1.715 1.775zm1.127-10.931a2.12 2.12 0 0 1 .333.52c1.164 6.456 1.164 6.467-5.499 7.025-6.552.548-13.099 1.361-19.661 1.504-4.278.093-8.578-.793-12.865-1.262-1.984-.217-2.46-1.438-2.105-3.228.205-1.036.31-2.092.517-3.545 13.089 1.176 26.27.836 39.28-1.014h0zm-2.04-2.505c3.45-7.639 6.282-14.908 9.943-21.733 3.65-6.805 8.132-13.164 12.249-19.719l.767.467c-6.646 13.977-12.789 28.23-22.959 40.985h0z" class="B C"/><path d="M363.393 190.747c-9.365 6.065-14.922 14.742-21.177 22.802a52.94 52.94 0 0 0 2.064-6.196c1.288-6.264 2.398-12.565 3.527-18.86 0-.588-.099-1.172-.291-1.728a4.6 4.6 0 0 0-1.585 1.013c-3.512 5.75-7.311 11.365-10.31 17.376-2.651 5.314-4.391 11.082-6.534 16.65 3.418-11.236 3.963-22.853 4.5-34.569-6.746 5.85-8.372 14.097-10.396 21.688l-.304-22.956c-5.805 5.809-7.305 13.419-9.247 21.413l-4.564-18.26-.947-.008c-2.647 6.549-.769 13.717-2.37 20.529-.123-8.48-4.866-15.119-8.665-22.679-2.789 7.945-.076 15.733-1.49 23.721-2.358-6.139-3.793-12.249-7.777-17.204-1.139 17.611 1.641 34.051 13.894 47.916-.654.11-.936.183-1.223.202-3.199.21-3.443.369-3.392 3.438.044 2.643.25 5.288.485 7.923l1.733 17.644c.082.378.253.732.499 1.031s.561.535.916.689a41.86 41.86 0 0 0 7.559 1.328c3.47.178 6.981-.12 10.442.023a10.34 10.34 0 0 1 1.305-.064c.862-.172 1.746-.198 2.616-.077.575-.132 1.162-.199 1.752-.201.541.002 1.081.055 1.612.159a14.41 14.41 0 0 1 5.937-.277l1.084-.13c1.119-.118 2.256-.186 3.397-.198.729-.696 1.194-1.623 1.319-2.623l.399-14.096c.124-2.447.23-4.944 2.158-6.942a3.79 3.79 0 0 0 .787-2.696c-.181-1.933-.685-3.836-1.054-5.738l-2.391-.367c.371-.603.583-.988.833-1.347 2.424-3.475 4.98-6.865 7.242-10.442a96.01 96.01 0 0 0 5.002-9.155l12.654-26.361c.133-.785.134-1.586.001-2.371zm-7.305 7.443l.695.584c-2.94 1.522-2.321 5.965-5.773 7.068l-.657-.527 5.735-7.125zm-6.614 8.635l.621.371a2.93 2.93 0 0 1-.164 1.224c-4.579 6.578-7.577 13.913-10.442 21.335a32.74 32.74 0 0 1-3.525 6.335c-.362.538-1.595.491-2.429.713a10.07 10.07 0 0 1-.278-2.123c.182-.493.404-.97.665-1.426.401-1.456 1.037-2.335 2.72-1.535.35.023.699-.041 1.017-.188-2.018-1.41-1.812-2.669-1.106-4.739.978-2.867 3.24.189 4.366-1.518-1.512-.994-3.391-2.007-1.472-4.082 1.098-1.186 2.374-2.207 3.813-3.524l-1.207-1.032c2.575-3.153 4.299-7.025 7.421-9.811zm-14.646 32.207c-.604 2.429-1.42 2.836-4.473 2.378.77-3.313 1.216-3.561 4.473-2.378h0zm3.415-19.055l7.392-27.126c-2.115 9.113-3.362 18.501-7.392 27.126h0zm2.248-21.661c.762-1.419 1.723-2.73 2.611-4.082l.294.228c-.218 1.535-.525 3.057-.92 4.558-.134.433-1.057.622-1.618.923-.139-.551-.566-1.256-.367-1.627h0zm-2.55 4.931c1.113-2.392 1.161-2.37 3.852-1.236l-1.254 4.51c-.531-.266-1.109-.428-1.701-.476-.641.212-1.251.507-1.816.877.402.386.878.684 1.4.877 1.484.166 1.796.879 1.3 2.164-.108.28-.163.581-.26.866-.961 2.807-.962 2.807-3.692 1.565l-1.557-.732 3.728-8.414v-.001zm-4.315 10.569l4.461 1.038-1.612 5.472-4.961-.955 2.112-5.555zm2.399 8.153l-2.357 5.163-4.051-1.692c.719-4.345 2.156-5.183 6.408-3.471h0zm-5.494-13.332l-2.953-.155 3.367-7.921.326.087-.74 7.989h0zm.76-17.055c-.29 7.446-3.699 13.618-6.83 19.856 1.438-6.873 2.897-13.707 6.83-19.856h0zm-6.002 24.639c.851-.587 2.27-.35 3.441-.472l.157-.695-3.082-1.054c-.308-2.993.402-3.706 4.424-3.729-.579 2.99-1.335 5.943-2.263 8.844-.212.573-2.38.426-4.369.716.715-1.641.901-3.064 1.692-3.61h0zm-1.665 6.49c.502-2.263 2.243-1.144 4.192-1.122-1.422 1.54.132 4.31-2.862 4.361-2.737.046-1.586-2.084-1.33-3.239zm-1.087 9.403l.313-4.325 3.38-.044-2.703 10.554c-2.645-1.076-2.443-2.28.673-5.39l-1.663-.795zm-3.634-26.503l2.259.706c.77 11.599-1.114 23.093-2.66 34.942l3.87-2.12-.224 2.691.479.288 4.014-3.835a27.99 27.99 0 0 1 .174-3.905c.332-1.701.774-3.38 1.324-5.024.787-2.466 1.165-2.59 3.576-1.457.397.187.78.403 1.357.703l-1.804 3.663-2.95-1.048c-.3 1.34-.3 1.34 2.372 2.916-1.008 2.382-2.154 4.703-3.434 6.95-.454.72-1.98.879-3.055 1.062a28.34 28.34 0 0 1-3.41.133c-4.151.194-5.487-1.29-5.1-5.695l3.049-1.042-.113-.651a7.49 7.49 0 0 1-1.385-.501c-.731-.434-1.91-.884-2.001-1.468-.196-1.26-.19-2.767 1.784-3.038.716-.236 1.385-.593 1.98-1.055-2.888-.217-3.883-.726-3.56-2.361a4.2 4.2 0 0 1 1.499-1.733c.839-.76 1.747-1.445 2.625-2.162l-.427-.531a1.54 1.54 0 0 0-.612.019c-1.022.507-2.13 1.322-2.725-.421-.129-.356-.184-.735-.16-1.112s.124-.747.296-1.084a2.77 2.77 0 0 1 .704-.876c.292-.241.631-.418.995-.523a27.26 27.26 0 0 0 3.064-1.382l-.252-.718-3.475.288c-.749-2.864-.038-4.108 2.581-4.926a6.46 6.46 0 0 0 1.632-1.164l-.232-.537c-.452.077-.909.112-1.367.105-.582-.099-1.157-.238-1.721-.414l3.222-13.192c-.844 3.09 1.849 6.849-2.189 9.509zm1.563-13.639l-6.245 28.455a60.35 60.35 0 0 1 6.245-28.455zm-9.73 35.359l-.733-.028c.004-1.159-1.41-2.389.682-3.809l.051 3.837zm-1.357-5.255c-.328-2.332-.746-4.657-.908-7-.033-.483.889-1.032 1.69-1.894l.117 8.798-.899.096h0zm-.806-19.054a3.8 3.8 0 0 1 1.163 1.263c.294 1.298.117 2.455-2.245 2.137l1.082-3.4zm1.488 4.915c.635 3.643.523 3.905-1.819 4.246-1.299-2.984-1.107-3.432 1.819-4.246zm-2.472 11.08l1.648 14.311-.728.069-1.3-14.291.38-.089zm3.603 22.534l.738-.09-1.633-11.832.82-.188c.334.965.611 1.95.828 2.948.266 1.638.326 3.311.611 4.946.247.54.559 1.047.929 1.512.472.97.873 1.976 1.303 2.967-.703.434-1.478.738-2.289.897-.783.087-1.572-.102-2.231-.534a3.39 3.39 0 0 1-1.379-1.833c-1.143-3.031-2.844-5.853-3.968-8.889-.372-1.004.307-2.398.544-3.849l-2.194.708-.988-1.759a1.55 1.55 0 0 1 .169-.39l2.647-2.169c1.486 6.214 2.022 12.557 6.093 17.555h0zm-3.718.01c-2.57.683-3.243.26-3.349-2.113-.098-2.176-.073-4.357-.109-7.095l3.458 9.208h0zm-4.535-30.978c.062.294.091.595.088.896.83 4.402.832 4.402-3.534 6.451-1.839-3.558 1.918-3.364 3.224-4.779-1.076-.849-1.076-.849-4.783.652.04-1.073-.251-2.466.167-2.729 1.301-.694 2.692-1.205 4.133-1.519a2.44 2.44 0 0 1 .705 1.028zm-.811-3.036l-4.356 1.235c-.883-2.637-.653-2.885 3.62-3.861l.736 2.626h0zm-1.372-4.523l-3.099 1.41c-.035-1.816-.464-3.443 2.165-3.405l.934 1.995zm-3.374-3.474l-.076-5.692c1.73 2.146 1.913 4.889.076 5.692zm2.215 33.137l-2.473.656-.974-3.552c-.72-.924-1.934-1.802-1.967-2.723-.03-.836 1.226-1.718 2.361-3.139l-3.404.443c-1.831-2.837-1.617-3.766 1.308-5.199l.074-.676-3.206-.244c-.531-1.259-.531-1.259 1.63-4.284l-2.479.185c-1.251-2.911-1.251-2.911 1.58-4.905l-2.894-1.187-.686-8.383.587-.129c.368.428.677.904.918 1.414l11.608 37.001c-1.306-1.522-4.279-2.214-1.983-5.278h0zm1.971-7.899c-1.855-4.181-1.81-4.889.31-6.55 1.475-1.155 2.224-.835 2.612 1.002.549 2.601-.522 4.312-2.922 5.548h0zm33.833 46.822c-1.692-.112-2.778-.275-3.858-.239l-14.53.539c-3.4.056-6.804-.149-10.205-.261-.828-.028-1.653-.142-2.478-.23-2.06-.219-3.22-1.149-3.359-3.429-.148-2.412-.688-4.799-1.049-7.198-.181-1.197-.272-2.331 1.419-2.495.269-.037.543-.005.795.094s.476.259.649.468.29.458.34.725a1.59 1.59 0 0 1-.055.798c-.601 3.034 1.527 2.962 3.365 3.24.741.112 1.522-.067 2.273.006 2.096.206 3.026-.593 2.59-2.759-.3-1.488.194-2.279 1.876-2.288 1.585-.008 2.706.167 2.476 2.197-.192 1.695.575 2.501 2.411 2.327 1.734-.163 3.509.051 5.23-.175.405-.065.789-.225 1.121-.467s.6-.559.785-.925c.391-3.031.298-3.043 3.417-2.971.071.368.133.587.154.81.111 1.196-.126 2.613.453 3.498.307.468 2.046-.128 3.108.003a27.14 27.14 0 0 1 3.516.903c-.43 2.868.594 5.678-.444 7.829zm1.66-18.378c-.412 2.518-.587 5.074-.874 7.732-1.249-.056-2.081-.145-2.909-.115-.732.026-1.46.185-2.195.286-.328-1.516-.192-3.433-1.036-4.092-.912-.711-2.785-.047-4.16-.345-1.664-.36-2.85-.309-2.562 1.754.338 2.41-.903 2.898-2.879 2.721-.823-.074-1.643-.173-2.671-.282l-.271-3.754c-2.328-.253-4.611-.593-6.9-.643-.327-.008-.987 1.393-.974 2.133.052 2.981-.22 3.353-3.187 2.907a2.16 2.16 0 0 1-.9-.424c-.263-.21-.473-.478-.614-.783-.98-4.1-.937-4.11-5.063-4.039l-.32-3.963c3.746.297 7.127.784 10.509.784 5.965.001 11.935-.202 17.893-.512 2.479-.13 4.927-.785 7.398-1.14 1.303-.188 1.975.191 1.715 1.775zm1.127-10.931a2.12 2.12 0 0 1 .333.52c1.164 6.456 1.164 6.467-5.499 7.025-6.552.548-13.1 1.361-19.661 1.504-4.278.093-8.578-.793-12.865-1.262-1.984-.217-2.46-1.438-2.105-3.228.205-1.036.309-2.092.517-3.545 13.089 1.176 26.27.836 39.28-1.014h0zm-2.04-2.505c3.45-7.639 6.282-14.908 9.942-21.733 3.651-6.805 8.133-13.164 12.25-19.719l.767.467c-6.646 13.977-12.789 28.23-22.959 40.985h0z" class="B C"/><path d="M120.697 283.489c-9.364 6.064-14.921 14.742-21.176 22.802a52.77 52.77 0 0 0 2.063-6.196c1.288-6.264 2.399-12.565 3.528-18.86-.001-.589-.099-1.173-.291-1.728a4.59 4.59 0 0 0-1.586 1.013c-3.511 5.75-7.31 11.364-10.309 17.376-2.651 5.314-4.392 11.082-6.534 16.649 3.418-11.236 3.963-22.852 4.499-34.568-6.746 5.85-8.372 14.097-10.395 21.688l-.305-22.956c-5.805 5.809-7.305 13.418-9.246 21.413l-4.564-18.26-.948-.009c-2.647 6.55-.769 13.718-2.37 20.53-.123-8.48-4.866-15.119-8.665-22.679-2.789 7.944-.075 15.733-1.49 23.72-2.358-6.138-3.793-12.248-7.777-17.204-1.139 17.612 1.641 34.052 13.894 47.917-.654.11-.936.183-1.222.202-3.2.21-3.443.369-3.392 3.438.044 2.643.25 5.288.485 7.923l1.733 17.644c.082.378.253.732.5 1.031a2.43 2.43 0 0 0 .916.688 41.76 41.76 0 0 0 7.558 1.329c3.47.178 6.982-.121 10.442.023.433-.049.869-.07 1.306-.064.861-.172 1.746-.199 2.616-.077a7.95 7.95 0 0 1 1.752-.201 8.39 8.39 0 0 1 1.612.159 14.41 14.41 0 0 1 5.936-.277l1.084-.131c1.119-.117 2.256-.185 3.397-.197a4.38 4.38 0 0 0 1.319-2.623l.399-14.096c.124-2.447.23-4.945 2.158-6.943.598-.764.88-1.729.787-2.695-.181-1.934-.685-3.837-1.054-5.738l-2.391-.368c.371-.602.583-.987.833-1.346 2.424-3.475 4.98-6.865 7.242-10.442a96 96 0 0 0 5.001-9.155l12.654-26.361a7.07 7.07 0 0 0 .001-2.371zm-7.304 7.442l.695.585c-2.941 1.522-2.321 5.965-5.773 7.067l-.657-.527 5.735-7.125zm-6.614 8.635l.621.372a2.93 2.93 0 0 1-.165 1.224c-4.579 6.578-7.577 13.913-10.441 21.335-.937 2.235-2.119 4.36-3.525 6.335-.362.538-1.595.491-2.429.712-.168-.695-.261-1.407-.278-2.123a9.45 9.45 0 0 1 .665-1.425c.401-1.456 1.036-2.335 2.72-1.535.35.023.699-.042 1.017-.188-2.018-1.41-1.812-2.67-1.106-4.739.978-2.867 3.24.189 4.366-1.518-1.512-.995-3.391-2.007-1.472-4.082 1.097-1.187 2.374-2.207 3.813-3.525l-1.207-1.031c2.574-3.153 4.299-7.026 7.421-9.812zm-14.647 32.207c-.604 2.43-1.419 2.837-4.472 2.379.77-3.313 1.216-3.561 4.472-2.378v-.001zm3.415-19.054l7.392-27.126c-2.116 9.113-3.362 18.5-7.392 27.126h0zm2.248-21.661c.761-1.419 1.723-2.731 2.61-4.082l.295.227c-.219 1.536-.526 3.058-.92 4.558-.134.434-1.057.623-1.619.924-.139-.551-.565-1.257-.367-1.627h0zm-2.55 4.931c1.113-2.393 1.161-2.37 3.853-1.236l-1.254 4.51a4.62 4.62 0 0 0-1.702-.476 7.75 7.75 0 0 0-1.815.877 4.04 4.04 0 0 0 1.4.877c1.484.166 1.795.879 1.3 2.164-.108.28-.163.581-.26.866-.961 2.807-.962 2.807-3.692 1.564l-1.556-.731 3.727-8.415h0zm-4.315 10.568l4.461 1.039-1.612 5.472-4.961-.956 2.112-5.555zm2.399 8.154l-2.358 5.163-4.051-1.692c.719-4.345 2.156-5.183 6.408-3.471h0zm-5.494-13.332l-2.954-.155 3.367-7.922.326.088-.74 7.989h0zm.76-17.055c-.29 7.445-3.699 13.618-6.83 19.855 1.438-6.872 2.897-13.706 6.83-19.855h0zm-6.002 24.639c.851-.587 2.27-.35 3.441-.473l.157-.694-3.083-1.055c-.308-2.993.402-3.705 4.424-3.729-.579 2.99-1.335 5.944-2.263 8.844-.211.574-2.38.426-4.369.717.715-1.641.901-3.065 1.692-3.61h0zm-1.665 6.49c.501-2.263 2.243-1.145 4.192-1.123-1.422 1.541.132 4.311-2.862 4.362-2.737.046-1.586-2.085-1.33-3.239zm-1.087 9.403l.312-4.325 3.381-.045-2.703 10.555c-2.646-1.076-2.443-2.28.672-5.39l-1.663-.795zm-3.634-26.503l2.259.705c.77 11.6-1.114 23.094-2.66 34.943l3.87-2.121-.224 2.692.478.288 4.015-3.836c-.033-1.304.025-2.608.174-3.904.332-1.702.775-3.38 1.324-5.024.787-2.466 1.165-2.59 3.576-1.457.397.187.78.403 1.358.703l-1.804 3.662-2.95-1.048c-.3 1.34-.3 1.34 2.372 2.916a65.96 65.96 0 0 1-3.433 6.951c-.454.72-1.98.878-3.055 1.062a28.14 28.14 0 0 1-3.41.132c-4.151.195-5.487-1.289-5.1-5.694l3.049-1.042-.113-.651c-.477-.121-.941-.289-1.385-.501-.731-.435-1.909-.885-2.001-1.469-.197-1.259-.19-2.767 1.784-3.038a6.59 6.59 0 0 0 1.979-1.054c-2.888-.217-3.883-.727-3.56-2.361.329-.705.849-1.305 1.499-1.733.839-.761 1.746-1.445 2.625-2.162l-.427-.532c-.203-.034-.411-.027-.611.02-1.022.507-2.13 1.322-2.726-.421-.129-.356-.183-.735-.16-1.113a2.76 2.76 0 0 1 .297-1.083c.172-.338.412-.636.704-.876a2.75 2.75 0 0 1 .995-.523 27.1 27.1 0 0 0 3.065-1.383l-.252-.718-3.476.289c-.748-2.864-.038-4.108 2.581-4.926a6.48 6.48 0 0 0 1.632-1.164l-.232-.537a7.63 7.63 0 0 1-1.367.105 13.37 13.37 0 0 1-1.721-.414l3.222-13.192c-.845 3.09 1.848 6.849-2.19 9.509zm1.563-13.64l-6.245 28.456c-.274-9.853 1.87-19.623 6.245-28.456zm-9.73 35.36l-.734-.028c.004-1.159-1.409-2.389.683-3.809l.051 3.837zm-1.358-5.256c-.327-2.331-.746-4.656-.908-6.999-.033-.483.889-1.032 1.69-1.894l.117 8.797-.899.096h0zm-.806-19.053a3.79 3.79 0 0 1 1.163 1.262c.294 1.299.117 2.455-2.245 2.138l1.082-3.4zm1.488 4.914c.636 3.644.523 3.906-1.819 4.246-1.299-2.983-1.106-3.432 1.819-4.246zm-2.472 11.081l1.648 14.311-.728.069-1.3-14.292.38-.088zm3.603 22.534l.738-.09-1.634-11.832.821-.188c.334.965.61 1.949.828 2.948.267 1.638.327 3.311.612 4.946.247.54.558 1.047.928 1.511.472.971.873 1.977 1.303 2.968a6.88 6.88 0 0 1-2.289.897c-.783.087-1.572-.102-2.231-.534s-1.146-1.08-1.379-1.833c-1.144-3.031-2.844-5.853-3.969-8.89-.372-1.004.307-2.397.544-3.848l-2.194.708-.989-1.759c.038-.137.095-.268.169-.39l2.648-2.169c1.485 6.214 2.022 12.557 6.093 17.555h0zm-3.718.01c-2.571.683-3.243.26-3.349-2.113-.097-2.176-.072-4.358-.109-7.095l3.458 9.208h0zm-4.535-30.979c.062.295.092.595.089.896.83 4.403.832 4.402-3.535 6.452-1.839-3.558 1.918-3.364 3.224-4.779-1.076-.85-1.076-.85-4.783.652.04-1.073-.251-2.466.167-2.729 1.301-.694 2.692-1.205 4.133-1.519a2.44 2.44 0 0 1 .705 1.027zm-.811-3.035l-4.355 1.235c-.883-2.637-.653-2.885 3.62-3.861l.735 2.626h0zm-1.371-4.523l-3.099 1.409c-.036-1.815-.465-3.442 2.165-3.404l.934 1.995zm-3.375-3.474l-.075-5.692c1.73 2.146 1.913 4.889.075 5.692zm2.216 33.137l-2.473.656-.974-3.552c-.72-.924-1.934-1.803-1.967-2.724-.03-.835 1.225-1.717 2.361-3.138l-3.404.442c-1.831-2.837-1.617-3.765 1.308-5.198l.073-.676-3.205-.244c-.532-1.259-.532-1.259 1.629-4.284l-2.479.185c-1.251-2.911-1.251-2.911 1.58-4.905l-2.894-1.187-.686-8.383.587-.13a6.31 6.31 0 0 1 .918 1.415l11.607 37.001c-1.306-1.522-4.279-2.215-1.982-5.278h0zm1.971-7.899c-1.855-4.181-1.81-4.889.31-6.55 1.475-1.155 2.224-.835 2.612 1.002.549 2.601-.521 4.312-2.922 5.548h0zm33.833 46.822c-1.692-.112-2.778-.275-3.858-.239l-14.531.539c-3.399.056-6.803-.149-10.205-.262-.828-.027-1.653-.141-2.478-.229-2.06-.219-3.22-1.149-3.359-3.43-.147-2.411-.688-4.798-1.049-7.197-.18-1.197-.271-2.331 1.42-2.496.269-.036.542-.004.795.094a1.6 1.6 0 0 1 .649.469 1.59 1.59 0 0 1 .34.724c.05.267.031.542-.055.799-.601 3.034 1.527 2.962 3.364 3.239.741.112 1.523-.067 2.274.007 2.096.206 3.026-.593 2.59-2.759-.3-1.488.194-2.28 1.876-2.288 1.586-.008 2.706.167 2.477 2.196-.192 1.695.575 2.501 2.411 2.328 1.734-.164 3.509.051 5.23-.175a2.6 2.6 0 0 0 1.121-.467 2.59 2.59 0 0 0 .786-.926c.391-3.03.298-3.042 3.416-2.97.072.367.134.587.154.81.111 1.195-.126 2.613.454 3.498.306.467 2.046-.128 3.107.003a26.96 26.96 0 0 1 3.516.903c-.429 2.868.595 5.677-.443 7.829zm1.66-18.378c-.412 2.518-.587 5.074-.875 7.732-1.248-.056-2.08-.145-2.908-.116-.733.027-1.461.186-2.195.287-.329-1.516-.192-3.433-1.037-4.092-.912-.712-2.784-.047-4.159-.345-1.664-.36-2.85-.309-2.562 1.754.337 2.41-.903 2.898-2.88 2.72-.822-.074-1.642-.172-2.67-.281l-.272-3.754c-2.328-.253-4.611-.593-6.9-.644-.327-.007-.987 1.394-.974 2.134.052 2.981-.22 3.353-3.187 2.907a2.17 2.17 0 0 1-.9-.424c-.263-.21-.473-.478-.614-.783-.98-4.1-.937-4.11-5.063-4.039l-.32-3.963c3.746.297 7.127.784 10.508.784 5.965.001 11.936-.202 17.894-.513 2.479-.129 4.927-.784 7.398-1.139 1.304-.188 1.975.191 1.715 1.775zm1.127-10.932c.135.157.248.332.333.521 1.164 6.456 1.164 6.467-5.499 7.024-6.552.549-13.1 1.362-19.661 1.504-4.278.093-8.578-.792-12.865-1.262-1.983-.217-2.459-1.437-2.105-3.227.205-1.036.31-2.093.518-3.546 13.089 1.177 26.27.837 39.28-1.014h0zm-2.04-2.504c3.45-7.639 6.281-14.908 9.942-21.733 3.651-6.805 8.132-13.164 12.25-19.719l.766.467c-6.645 13.977-12.788 28.23-22.958 40.985h0z" class="B C"/><path d="M282.494 283.489c-9.364 6.064-14.922 14.742-21.176 22.802a52.75 52.75 0 0 0 2.063-6.196c1.288-6.264 2.399-12.565 3.528-18.86-.001-.589-.099-1.173-.292-1.728-.592.225-1.132.569-1.585 1.013-3.511 5.75-7.31 11.364-10.309 17.376-2.651 5.314-4.392 11.082-6.534 16.649 3.417-11.236 3.963-22.852 4.499-34.568-6.746 5.85-8.372 14.097-10.395 21.688l-.304-22.956c-5.806 5.809-7.306 13.418-9.247 21.413l-4.564-18.26-.948-.009c-2.647 6.55-.769 13.718-2.37 20.53-.123-8.48-4.866-15.119-8.665-22.679-2.789 7.944-.075 15.733-1.489 23.72-2.358-6.138-3.793-12.248-7.777-17.204-1.139 17.612 1.641 34.052 13.893 47.917-.653.11-.936.183-1.222.202-3.2.21-3.443.369-3.392 3.438.043 2.643.25 5.288.485 7.923l1.732 17.644a2.45 2.45 0 0 0 .5 1.031c.246.299.56.535.916.688a41.75 41.75 0 0 0 7.558 1.329c3.47.178 6.982-.121 10.442.023.434-.049.87-.07 1.306-.064.861-.172 1.745-.199 2.616-.077a7.94 7.94 0 0 1 1.752-.201 8.39 8.39 0 0 1 1.612.159 14.41 14.41 0 0 1 5.936-.277l1.084-.131c1.119-.117 2.256-.185 3.398-.197.728-.697 1.194-1.623 1.318-2.623l.4-14.096c.124-2.447.229-4.945 2.158-6.943a3.79 3.79 0 0 0 .787-2.695c-.181-1.934-.685-3.837-1.054-5.738l-2.392-.368c.371-.602.583-.987.833-1.346 2.424-3.475 4.981-6.865 7.243-10.442a96 96 0 0 0 5.001-9.155l12.654-26.361a7.07 7.07 0 0 0 .001-2.371zm-7.304 7.442l.695.585c-2.941 1.522-2.321 5.965-5.773 7.067l-.657-.527 5.735-7.125zm-6.614 8.635l.621.372c.032.415-.024.832-.165 1.224-4.579 6.578-7.577 13.913-10.441 21.335-.937 2.235-2.12 4.36-3.526 6.335-.362.538-1.595.491-2.428.712-.168-.695-.261-1.407-.278-2.123a9.51 9.51 0 0 1 .665-1.425c.4-1.456 1.036-2.335 2.72-1.535.349.023.699-.042 1.017-.188-2.019-1.41-1.813-2.67-1.106-4.739.978-2.867 3.239.189 4.366-1.518-1.512-.995-3.391-2.007-1.472-4.082 1.097-1.187 2.374-2.207 3.813-3.525l-1.207-1.031c2.574-3.153 4.299-7.026 7.421-9.812zm-14.647 32.207c-.604 2.43-1.419 2.837-4.472 2.379.77-3.313 1.216-3.561 4.472-2.378v-.001zm3.416-19.054l7.392-27.126c-2.116 9.113-3.363 18.5-7.392 27.126h0zm2.248-21.661c.761-1.419 1.723-2.731 2.61-4.082l.295.227c-.219 1.536-.526 3.058-.92 4.558-.135.434-1.057.623-1.619.924-.139-.551-.565-1.257-.366-1.627h0zm-2.551 4.931c1.114-2.393 1.161-2.37 3.853-1.236l-1.254 4.51c-.531-.267-1.109-.428-1.702-.476a7.74 7.74 0 0 0-1.815.877c.401.386.878.684 1.4.877 1.484.166 1.795.879 1.299 2.164-.108.28-.162.581-.26.866-.961 2.807-.962 2.807-3.692 1.564l-1.556-.731 3.727-8.415h0zm-4.315 10.568l4.461 1.039-1.612 5.472-4.96-.956 2.111-5.555zm2.4 8.154l-2.358 5.163-4.05-1.692c.719-4.345 2.156-5.183 6.408-3.471h0zm-5.494-13.332l-2.954-.155 3.367-7.922.327.088-.74 7.989h0zm.76-17.055c-.29 7.445-3.699 13.618-6.83 19.855 1.438-6.872 2.897-13.706 6.83-19.855h0zm-6.002 24.639c.851-.587 2.27-.35 3.441-.473l.157-.694-3.083-1.055c-.307-2.993.402-3.705 4.425-3.729-.58 2.99-1.335 5.944-2.264 8.844-.211.574-2.38.426-4.369.717.716-1.641.901-3.065 1.693-3.61h0zm-1.665 6.49c.501-2.263 2.243-1.145 4.192-1.123-1.422 1.541.132 4.311-2.862 4.362-2.737.046-1.586-2.085-1.33-3.239zm-1.087 9.403l.312-4.325 3.381-.045-2.703 10.555c-2.646-1.076-2.443-2.28.672-5.39l-1.662-.795zm-3.635-26.503l2.259.705c.771 11.6-1.113 23.094-2.66 34.943l3.87-2.121-.223 2.692.478.288 4.015-3.836a28.13 28.13 0 0 1 .173-3.904c.332-1.702.775-3.38 1.325-5.024.786-2.466 1.164-2.59 3.575-1.457.397.187.781.403 1.358.703l-1.804 3.662-2.951-1.048c-.299 1.34-.299 1.34 2.372 2.916a65.84 65.84 0 0 1-3.433 6.951c-.455.72-1.98.878-3.055 1.062-1.133.113-2.272.157-3.411.132-4.15.195-5.487-1.289-5.099-5.694l3.048-1.042-.112-.651c-.477-.121-.941-.289-1.386-.501-.73-.435-1.909-.885-2-1.469-.197-1.259-.191-2.767 1.784-3.038.715-.236 1.385-.592 1.979-1.054-2.888-.217-3.883-.727-3.56-2.361a4.21 4.21 0 0 1 1.5-1.733c.838-.761 1.746-1.445 2.624-2.162l-.427-.532a1.55 1.55 0 0 0-.611.02c-1.022.507-2.131 1.322-2.726-.421-.129-.356-.183-.735-.16-1.113a2.77 2.77 0 0 1 .297-1.083c.172-.338.411-.636.704-.876s.63-.419.994-.523a27.1 27.1 0 0 0 3.065-1.383l-.252-.718-3.476.289c-.748-2.864-.037-4.108 2.582-4.926a6.48 6.48 0 0 0 1.631-1.164l-.232-.537a7.62 7.62 0 0 1-1.366.105 13.36 13.36 0 0 1-1.722-.414l3.223-13.192c-.845 3.09 1.848 6.849-2.19 9.509zm1.564-13.64l-6.245 28.456c-.274-9.853 1.87-19.623 6.245-28.456zm-9.73 35.36l-.734-.028c.004-1.159-1.409-2.389.683-3.809l.051 3.837zm-1.358-5.256c-.327-2.331-.745-4.656-.907-6.999-.034-.483.889-1.032 1.69-1.894l.117 8.797-.9.096h0zm-.806-19.053a3.8 3.8 0 0 1 1.164 1.262c.293 1.299.116 2.455-2.245 2.138l1.081-3.4zm1.488 4.914c.636 3.644.524 3.906-1.819 4.246-1.299-2.983-1.106-3.432 1.819-4.246zm-2.472 11.081l1.648 14.311-.727.069-1.301-14.292.38-.088zm3.603 22.534l.739-.09-1.634-11.832.821-.188a25.67 25.67 0 0 1 .827 2.948c.267 1.638.327 3.311.612 4.946a7.28 7.28 0 0 0 .929 1.511c.472.971.872 1.977 1.303 2.968-.703.434-1.479.738-2.289.897-.783.087-1.572-.102-2.231-.534s-1.147-1.08-1.379-1.833c-1.144-3.031-2.844-5.853-3.969-8.89-.372-1.004.307-2.397.544-3.848l-2.193.708-.989-1.759a1.59 1.59 0 0 1 .169-.39l2.648-2.169c1.485 6.214 2.022 12.557 6.092 17.555h0zm-3.717.01c-2.571.683-3.243.26-3.35-2.113-.097-2.176-.072-4.358-.108-7.095l3.458 9.208h0zm-4.536-30.979a4.15 4.15 0 0 1 .089.896c.83 4.403.832 4.402-3.535 6.452-1.839-3.558 1.919-3.364 3.224-4.779-1.075-.85-1.075-.85-4.783.652.04-1.073-.251-2.466.167-2.729a16.05 16.05 0 0 1 4.133-1.519c.32.276.563.63.705 1.027zm-.811-3.035l-4.355 1.235c-.883-2.637-.654-2.885 3.62-3.861l.735 2.626h0zm-1.371-4.523l-3.099 1.409c-.036-1.815-.465-3.442 2.165-3.404l.934 1.995zm-3.375-3.474l-.075-5.692c1.73 2.146 1.913 4.889.075 5.692zm2.216 33.137l-2.473.656-.974-3.552c-.72-.924-1.934-1.803-1.967-2.724-.03-.835 1.225-1.717 2.361-3.138l-3.404.442c-1.831-2.837-1.617-3.765 1.308-5.198l.073-.676-3.205-.244c-.532-1.259-.532-1.259 1.629-4.284l-2.478.185c-1.251-2.911-1.251-2.911 1.58-4.905l-2.894-1.187-.686-8.383.587-.13a6.3 6.3 0 0 1 .918 1.415l11.607 37.001c-1.306-1.522-4.279-2.215-1.982-5.278h0zm1.971-7.899c-1.855-4.181-1.811-4.889.31-6.55 1.474-1.155 2.224-.835 2.611 1.002.549 2.601-.521 4.312-2.921 5.548h0zm33.833 46.822c-1.692-.112-2.778-.275-3.858-.239l-14.531.539c-3.399.056-6.803-.149-10.204-.262-.828-.027-1.653-.141-2.478-.229-2.06-.219-3.22-1.149-3.36-3.43-.147-2.411-.687-4.798-1.049-7.197-.18-1.197-.271-2.331 1.42-2.496a1.61 1.61 0 0 1 .795.094c.252.099.476.26.649.469s.29.458.34.724.031.542-.055.799c-.601 3.034 1.527 2.962 3.364 3.239.741.112 1.523-.067 2.274.007 2.096.206 3.026-.593 2.589-2.759-.299-1.488.195-2.28 1.876-2.288 1.586-.008 2.706.167 2.477 2.196-.192 1.695.574 2.501 2.41 2.328 1.735-.164 3.51.051 5.231-.175.405-.065.789-.225 1.12-.467s.601-.559.786-.926c.391-3.03.298-3.042 3.416-2.97.072.367.134.587.155.81.111 1.195-.126 2.613.453 3.498.306.467 2.046-.128 3.107.003a26.94 26.94 0 0 1 3.516.903c-.429 2.868.595 5.677-.443 7.829zm1.66-18.378c-.412 2.518-.587 5.074-.875 7.732-1.248-.056-2.08-.145-2.908-.116-.733.027-1.461.186-2.195.287-.329-1.516-.192-3.433-1.037-4.092-.911-.712-2.784-.047-4.159-.345-1.664-.36-2.85-.309-2.562 1.754.337 2.41-.903 2.898-2.88 2.72-.822-.074-1.642-.172-2.67-.281l-.271-3.754c-2.329-.253-4.611-.593-6.901-.644-.326-.007-.987 1.394-.974 2.134.053 2.981-.22 3.353-3.187 2.907a2.17 2.17 0 0 1-.899-.424c-.263-.21-.474-.478-.615-.783-.979-4.1-.937-4.11-5.062-4.039l-.32-3.963c3.745.297 7.127.784 10.508.784 5.965.001 11.936-.202 17.894-.513 2.478-.129 4.927-.784 7.397-1.139 1.304-.188 1.975.191 1.716 1.775zm1.127-10.932a2.19 2.19 0 0 1 .333.521c1.164 6.456 1.164 6.467-5.499 7.024-6.552.549-13.1 1.362-19.662 1.504-4.277.093-8.577-.792-12.865-1.262-1.983-.217-2.459-1.437-2.105-3.227.205-1.036.31-2.093.518-3.546 13.089 1.177 26.269.837 39.28-1.014h0zm-2.04-2.504c3.45-7.639 6.281-14.908 9.942-21.733 3.65-6.805 8.132-13.164 12.25-19.719l.766.467c-6.645 13.977-12.789 28.23-22.958 40.985h0z" class="B C"/></g><defs><linearGradient id="B" x1="0" y1="0" x2="0" y2="323" gradientUnits="userSpaceOnUse"><stop stop-color="#56ccf2"/><stop offset="1" stop-color="#2f80ed"/></linearGradient><linearGradient id="C" x1="0" y1="0" x2="0" y2="323" gradientUnits="userSpaceOnUse"><stop stop-color="#00c6ff"/><stop offset="1" stop-color="#0072ff"/></linearGradient></defs></svg>