<svg xmlns="http://www.w3.org/2000/svg" width="35" height="156" fill="#121113" stroke="#121113" stroke-width="3" xmlns:v="https://vecta.io/nano"><path d="M31.506 60.502l-1.881 18.764c-1.975 19.863-3.073 30.905-4.365 37.081-.838 4.008-1.682 5.493-2.49 6.125-.79.618-1.83.682-4.272.682-2.411 0-3.612-.052-4.577-.729-.956-.67-1.97-2.195-3.014-6.154-2.074-7.861-3.909-23.705-7.418-55.78-1.746-15.956-2.151-27.593-1.651-36.069.501-8.5 1.907-13.694 3.676-16.863 1.72-3.08 3.799-4.279 5.919-4.777 1.725-.405 3.44-.36 5.243-.313l1.821.032c.561 0 1.13-.016 1.679-.031l.098-.003 1.721-.028c1.13.006 2.176.083 3.151.335 1.836.474 3.63 1.615 5.102 4.7 1.518 3.183 2.668 8.399 3.008 16.92.339 8.494-.13 20.145-1.751 36.11z"/><circle cx="18" cy="144" r="10.5"/></svg>