<svg height='100px' width='100px'  fill="#121113" xmlns="http://www.w3.org/2000/svg" data-name="Слой 1" viewBox="0 0 100 100" x="0px" y="0px"><title>кактус 5</title><g><path d="M56.84911,38.08268l2.39305,2.51806a5.61584,5.61584,0,0,0,.96461-1.05455,38.6904,38.6904,0,0,0,2.03494-4.195,25.76034,25.76034,0,0,0,.66336-3.129,4.85269,4.85269,0,0,1,.57559-1.0802c0.20949,0.38031.434,0.75341,0.622,1.144a4.68679,4.68679,0,0,1,.20259.74349c0.55706-.72433,1.86994-0.42891,1.77331-1.79427a3.15222,3.15222,0,0,1,.71861-1.315l1.01214,1.4835,1.61077-.08125a1.10621,1.10621,0,0,0-.06219-0.261c-0.22621-.37061-0.45938-0.737-0.69032-1.10468a1.48309,1.48309,0,0,1,.68316-0.37781,0.94388,0.94388,0,0,1,.75742,1.16067,0.98008,0.98008,0,0,0,.54141.77949,5.77245,5.77245,0,0,0,1.64261.13872c0.13752-.0004.271-0.31176,0.41223-0.31693,0.54133-.01976,1.08509.027,1.628,0.04886l-0.85223,1.11356c0.35124,0.60726.72935,1.3576,1.19648,2.04768,0.86422,1.27668.45314,2.37887-.3547,3.47062-0.45856.6197-.85912,1.28366-1.3375,1.88669a1.30627,1.30627,0,0,1-.79984.54627,1.37921,1.37921,0,0,0-1.5534.96838,0.60987,0.60987,0,0,1-.52239.28761c-1.50826-.52413-2.52064.58691-3.77583,1.07864l0.69436,1.29942-0.196.28007c-0.47908-.20166-0.95227-0.41909-1.43878-0.60081a11.58077,11.58077,0,0,0-1.69969-.5647c-1.10725-.22616-2.2299-0.3769-3.40335-0.5683l0.26971,4.49561c0.80393-.70223,1.96481-0.602,2.14713-1.986,0.092-.698.89023-0.76271,1.55917-0.48311,0.63092,0.26372,1.26465.52069,1.8975,0.77975a5.24673,5.24673,0,0,1,1.22236.51807c0.77157,0.5903,1.48043,1.2297,2.57557.85826a1.84,1.84,0,0,1,.68871.41075c-1.37865.55816-1.2017,1.674-1.21669,2.69138-0.03492,2.36976-1.07769,2.81966-2.85563,3.556-0.80785.33457-1.95059,0.24927-2.15118,1.51576a0.8789,0.8789,0,0,1-.74579.17725c-0.95-.58818-1.76831-0.15147-2.62338.21035-0.73192.30972-1.48389,0.57205-2.227,0.85533l0.06549,0.3695c1.685-.14968,3.59551.13862,4.98854-0.57839,1.26636-.6518,2.21593.23915,3.26327-0.16143a3.70192,3.70192,0,0,1,1.1-.08033A1.2326,1.2326,0,0,1,69.637,57.23531c-0.14649,1.666-.26782,3.33493-0.46085,4.99551a1.12409,1.12409,0,0,1-.5658.81379c-1.24537.38409-1.43358,1.29746-1.509,2.42378-0.16553,2.47413-.36722,4.94977-0.67662,7.4094-0.44283,3.52039-.86631,7.05205-1.543,10.53125-0.50587,2.60085-1.09936,5.24568-2.728,7.45182a1.69527,1.69527,0,0,1-1.27971.54627c-1.13644-.072-2.2568-0.39106-3.39336-0.46924-2.704-.186-5.4156-0.42388-8.1206-0.38637-2.43729.03378-4.86752,0.43965-7.30579,0.61128a18.46441,18.46441,0,0,1-2.76618-.11863,1.45085,1.45085,0,0,1-1.41612-1.54907c-0.11581-1.95361-.23147-3.90732-0.33224-5.86175-0.177-3.43175-.3093-6.86621-0.52546-10.29541-0.13279-2.10659-.37522-4.20673-0.59311-6.30722a15.48983,15.48983,0,0,0-.33391-1.85274,0.81763,0.81763,0,0,0-.34013-0.5528c-2.41838-.674-1.04366-2.614-1.2796-3.97446a3.74678,3.74678,0,0,1,.47325-2.04629c0.82815-1.74931,2.44559-.85163,3.73713-0.97335,1.53267-.14441,3.07769-0.15763,4.61736-0.22773l0.13319-.291c-0.89255-.70791-1.79416-1.40482-2.673-2.12939-0.33116-.273-0.95452-0.44184-0.52274-1.10706a0.46308,0.46308,0,0,0,.00749-0.42408c-0.85609-1.08554-1.71408-2.17075-2.61166-3.22182a15.37031,15.37031,0,0,0-1.33253-1.22576l1.03848-.6404c-0.27141-1.704-.34292-1.81073-2.00947-1.83064-2.85261-.0341-4.88468-1.47719-6.5667-3.62575-0.59588-.76118-1.01616-1.78181-2.25294-1.80608a0.81293,0.81293,0,0,1-.41049-0.64894,3.44432,3.44432,0,0,0-.838-2.31392c-1.08224-1.638.0819-4.62716,1.99319-5.1438A5.56265,5.56265,0,0,1,33.665,35.249c0.36756,0.49443.76973,0.96312,1.14864,1.43456l2.49843-6.59182a7.38184,7.38184,0,0,0-.79221-0.51331c-1.81663-.9639-2.59477-2.79034-3.68949-4.3615a10.62779,10.62779,0,0,0-1.2534-1.29923c-0.369-.372-0.74292-0.739-1.11466-1.10824l0.24016-.32469,1.261,0.19949c-0.03986-2.0226-.38466-4.11689,1.16353-5.84529a2.69942,2.69942,0,0,1-.29028-0.459c-0.13248-.34854-0.2326-0.7094-0.34595-1.06522,0.33064,0.02889.66143,0.08118,0.99189,0.0792a2.27747,2.27747,0,0,0,.7838-0.11878,4.55557,4.55557,0,0,1,.88272-0.45559,0.9469,0.9469,0,0,0,.90237-1.45552,1.21514,1.21514,0,0,1,.06582-0.46192c0.84354-.1352,1.0155.42605,1.17309,1.01129a2.86666,2.86666,0,0,0,3.9925,1.31776c0.58541-.447,1.22269-0.96141,1.92653.04132l-1.85715,1.44007a7.13936,7.13936,0,0,1,1.7692,7.00784c-0.36235,1.55743-1.68384,2.40082-2.05561,3.83283a1.92459,1.92459,0,0,1-.18956.3738c3.94339,0.41775,5.2792,3.44123,6.63924,6.44418,0.27174,0.6.59426,1.17744,0.85535,1.7817a9.89027,9.89027,0,0,1,.92068,4.64795,6.468,6.468,0,0,0,.21013,1.39245L53.038,38.01977l-4.042-6.10635,1.0852,0.16918c0-.17487.00876-0.28238-0.00131-0.3881-0.15327-1.60854-.37795-3.21484-0.42423-4.82634a4.19692,4.19692,0,0,1,.68117-1.57025,3.64783,3.64783,0,0,0,.50323-2.788,1.37028,1.37028,0,0,1,.62637-0.02481c1.16676,0.6388,1.794-.3214,2.39734-0.92064A1.80763,1.80763,0,0,1,56.3834,21.384c0.816,0.72076,1.54873,1.69719,2.89248,1.39845a0.89248,0.89248,0,0,1,.30587.60979c-0.452,1.07675.22108,1.581,0.96974,2.06621a0.96576,0.96576,0,0,1,.39459,1.2739,15.97221,15.97221,0,0,0-.04236,3.31656,3.0536,3.0536,0,0,1-.09786,1.08881,16.79176,16.79176,0,0,0-1.06579,2.37037A7.87593,7.87593,0,0,1,56.84911,38.08268Zm5.79258,0.19878L60.369,41.133c3.54787,1.508,6.49324.55945,9.08509-.9723V38.47522L70.76133,39.24c2.24153-.73186,3.73338-2.48686,2.6796-4.076l-1.28986.65675L72.356,33.63916c-3.394-2.56019-8.034-.30427-9.487,4.2008ZM37.51142,43.77l-0.02153-.01765a12.36648,12.36648,0,0,0,.36071,1.49829,37.09841,37.09841,0,0,0,2.26454,5.7208A37.73237,37.73237,0,0,0,43.98132,55.876a15.69147,15.69147,0,0,0,1.3669,1.30847l-0.15386.34742L53.463,57.1433c-0.10195-1.51509-.09695-1.50758,1.04263-2.26619a2.28557,2.28557,0,0,0,.52509-0.5537,23.62747,23.62747,0,0,0,1.74266-2.42612c0.69036-1.22794,1.27056-2.5204,1.855-3.80479a6.81968,6.81968,0,0,0-1.0103-7.349c-0.96563-1.30461-1.36605-1.71658-3.29063-1.13279a6.70275,6.70275,0,0,0-2.876,1.93981,7.08612,7.08612,0,0,0-1.85153,6.74674c0.22948,0.88906.80967,1.82818-.30448,2.59583a1.36453,1.36453,0,0,0-.05054.75576c-0.00532,1.157.02416,2.31519-.02179,3.47046a2.69938,2.69938,0,0,1-.34436,1.23653,2.92846,2.92846,0,0,1-.848.65015,3.85432,3.85432,0,0,1-.34332-1.20476c0.05964-1.06582.3273-2.124,0.3426-3.1876,0.0563-3.91509.09123-7.83195,0.02715-11.74638a12.46608,12.46608,0,0,0-.63164-3.34927A17.26072,17.26072,0,0,0,44.195,31.0241c-1.28869-1.4926-2.6027-2.07653-3.72829-1.20279a12.368,12.368,0,0,0-2.63451,2.93145,9.804,9.804,0,0,0-1.46405,5.05586A9.97081,9.97081,0,0,0,37.51142,43.77ZM56.61634,76.55527c1.76253-.24819,4.2373-0.52906,6.6792-0.98569,0.65057-.12166,1.61094-0.21937,1.75634-1.2509,0.22154-1.57166.50351-3.13659,0.66839-4.71393,0.15857-1.517.24009-3.04527,0.27525-4.57043a1.16715,1.16715,0,0,0-.91558-1.434,22.27641,22.27641,0,0,0-3.97756-.2153c-3.50478.27777-6.9955,0.72845-10.4977,1.04549a28.94788,28.94788,0,0,1-3.85552.05152c-2.87705-.12506-5.75131-0.31444-8.62659-0.47972a0.64044,0.64044,0,0,0-.75423.822c0.0385,0.445.0536,0.89226,0.0999,1.33637,0.25013,2.39875.5617,4.79266,0.74409,7.19645,0.15117,1.99231.3886,2.32333,2.3475,2.52222,2.19293,0.22267,4.381.56324,6.579,0.64818C50.05707,76.64022,52.98289,76.55527,56.61634,76.55527Zm7.20107,5.58966c-8.46058,2.0354-16.73537.79435-25.16595,0.0638,0.16215,2.20457.306,4.3395,0.48374,6.4716a1.04163,1.04163,0,0,0,1.15814,1.07521c1.551,0.002,3.1031.104,4.65273,0.07093,2.9484-.063,5.89561-0.27413,8.84287-0.266,2.11261,0.0058,4.22346.28936,6.33778,0.39531a1.39032,1.39032,0,0,0,1.04995-.38814C62.74469,87.41974,63.26114,84.88649,63.81742,82.14494ZM38.52687,77.253c0.033,0.29357.10228,0.79994,0.14406,1.30856A3.83715,3.83715,0,0,0,38.83831,80.3a3.807,3.807,0,0,0,1.61127.568,19.2858,19.2858,0,0,0,6.90152.80267c1.62592-.01647,3.26126-0.06729,4.877.07378a26.71924,26.71924,0,0,0,9.80619-.53556,3.35273,3.35273,0,0,0,1.95846-1.08977,11.6595,11.6595,0,0,0,.7611-3.0046c-4.50783.32224-8.84963,0.858-13.194,0.8797C47.22578,78.01587,42.88917,77.52234,38.52687,77.253Zm17.1562-39.15954c0.69259-1.08744,1.44073-2.15154,2.07453-3.27985a13.74822,13.74822,0,0,0,1.4854-7.98052,1.76294,1.76294,0,0,0-.3506-0.92267,17.52991,17.52991,0,0,0-1.58846-1.73017,3.29952,3.29952,0,0,0-1.371-.99025c-1.52227-.286-2.56654.44875-3.54973,1.65384-1.12341,1.37695-1.878,3.83628-1.26026,5.48333,1.201-.03889,1.75307.90344,1.29238,2.32388-0.28965-.10989-0.57483-0.21807-0.8587-0.32585C51.47432,34.05892,53.79415,37.323,55.68307,38.09348ZM42.234,22.21206l-1.57275-1.13075,1.33083-.92632a4.53613,4.53613,0,0,0-2.25864-2.99431c-3.026-1.862-5.629-1.01186-6.34678,2.61376a7.80491,7.80491,0,0,0,1.03984,5.53089c0.40963,0.71072.65015,1.61452,1.716,1.72227a1.3002,1.3002,0,0,1,1.31684,1.21147,2.11545,2.11545,0,0,0,1.34166.90354,2.42037,2.42037,0,0,0,.75341-0.99089c0.34539-.68258.604-1.40846,0.9197-2.10681C41.07382,24.71852,41.6882,23.39878,42.234,22.21206ZM36.20594,45.17318a18.79459,18.79459,0,0,0-2.93383-8.37082,5.07886,5.07886,0,0,0-2.93558-2.42511c-1.70977-.44-2.85465-0.09284-3.72945,1.2857-0.5528.87111-.26237,2.22862,0.71145,3.36842q1.87932,2.19961,3.74957,4.407C32.41345,45.02962,34.20266,45.25235,36.20594,45.17318Zm28.51074,7.35807a13.44216,13.44216,0,0,0,1.781-.4998c1.83251-.78671,2.15324-2.29795.83889-3.72694-0.09151-.09948-0.0987-0.275-0.18772-0.37857a2.86562,2.86562,0,0,0-.83545-0.86744,6.03674,6.03674,0,0,0-5.00169,1.16434,0.55359,0.55359,0,0,0-.13526.29151c-0.0817.7219-.15041,1.44526-0.23851,2.31962a2.28136,2.28136,0,0,1-.832-0.34679c-0.64462-.7079-0.95682-0.449-1.38861.25572-0.72858,1.18915-1.60106,2.28916-2.37777,3.45023-0.37586.56187-.67169,1.17726-1.00376,1.76841l0.33175,0.29,8.28782-3.91679a8.8998,8.8998,0,0,1-.32166-1.41157,2.54255,2.54255,0,0,1,.25787-0.84458,1.95469,1.95469,0,0,1,.788.62122A8.69347,8.69347,0,0,1,64.71668,52.53126ZM42.11143,58.68357c-0.10621,1.16954-.24868,2.26051-0.27347,3.35415a1.01094,1.01094,0,0,0,.58253.78072c1.10529,0.2015,2.23225.28417,3.615,0.43916-1.04992-1.47327-1.46012-2.92536-.53725-4.574H42.11143ZM65.89864,57.489l-0.01232-.30263-5.27432.32279c1.17986,0.56855,1.3021,1.20237.98072,2.07151A23.20833,23.20833,0,0,0,60.959,62.1158h3.53609C63.49467,59.34187,63.88178,58.15566,65.89864,57.489Zm-6.807,4.89609a18.8849,18.8849,0,0,1,.24892-2.417,19.46993,19.46993,0,0,1,.84225-2.30133l-3.5036.17027a16.62932,16.62932,0,0,1-.01736,2.36675c-0.32963,2.087-.06878,2.41608,1.9423,2.21087C58.78779,62.39587,58.973,62.392,59.09161,62.38506Zm-21.486-3.63014c-0.1425.70345-.27091,1.33286-0.39739,1.96267-0.27349,1.36186.24794,1.97386,1.61805,1.91575,0.40523-.0172.8118-0.00267,1.17569-0.00267,0-.61807-0.03876-1.17087.00672-1.71665,0.19472-2.33633.20375-2.33612-2.16713-2.24218A0.97091,0.97091,0,0,0,37.60561,58.75492Zm12.03634,4.73755,0.18243-.33721c-1.60413-1.59732.17849-2.9556,0.18554-4.44157-1.37367-.65611-2.27332-0.2738-2.41178,1.1566-0.049.5063-.30446,1.00118-0.305,1.50145-0.00065.63483-.05562,1.55716,0.30876,1.8335A4.48685,4.48685,0,0,0,49.64195,63.49246ZM54.2735,58.133l-1.96708.14356L52.049,63.10978l2.22449-.30932V58.133Z"></path><path d="M62.869,37.84c0.61142-.00419,1.278-0.89272,1.82637.11387-1.054,1.14142-1.65388,1.23712-2.0537.32763Z"></path><path d="M45.29114,49.60483c-0.24559-1.29291-.50431-2.58364-0.71952-3.88158a1.18942,1.18942,0,0,1,.28542-0.52739,1.82236,1.82236,0,0,1,.77734.53653,12.36179,12.36179,0,0,1,.26667,2.007,5.17345,5.17345,0,0,1,.04865,1.20778,2.8524,2.8524,0,0,1-.39686.80737Z"></path><path d="M43.57091,52.55964a1.972,1.972,0,0,1-1.67306-1.80312,1.08942,1.08942,0,0,1,.65067-0.38317A3.28014,3.28014,0,0,1,43.57091,52.55964Z"></path><path d="M54.5833,45.63318a0.90249,0.90249,0,0,1-.19244-1.63245c0.33383-.33786.01168-1.33508,0.903-0.99425a3.6404,3.6404,0,0,1-.16275,1.49181A6.15236,6.15236,0,0,1,54.5833,45.63318Z"></path><path d="M43.30648,42.44313c-0.09267-.67273-0.21036-1.34375-0.25644-2.01966a0.61618,0.61618,0,0,1,.39171-0.39789,1.02515,1.02515,0,0,1,.63981.4507,17.6652,17.6652,0,0,1-.22448,2.00736Z"></path><path d="M39.35264,37.25668a6.29351,6.29351,0,0,1-.81442.43664,10.24479,10.24479,0,0,1-.94655-1.49322,2.89988,2.89988,0,0,1,.56143-0.48349Z"></path><path d="M43.30412,36.9708c0.04764-.62762.06992-1.25921,0.16706-1.87907a0.59716,0.59716,0,0,1,.52695-0.22024,0.80228,0.80228,0,0,1,.46765.51744,15.56922,15.56922,0,0,1-.55449,1.71343Z"></path><path d="M41.62962,35.00139a2.43522,2.43522,0,0,1-.63327-0.94794,2.60085,2.60085,0,0,1,.50246-1.05576l0.44756,0.07175L42.0876,34.8057Z"></path><path d="M46.9021,53.26647a1.52722,1.52722,0,0,1-.4189-2.0074,0.66516,0.66516,0,0,1,.54323-0.20652,0.5121,0.5121,0,0,1,.23662.42C47.19233,51.99426,47.06141,52.50783,46.9021,53.26647Z"></path><path d="M51.8029,45.08558l-0.5575,1.463a2.15826,2.15826,0,0,1-.63406-0.56048,6.2276,6.2276,0,0,1,.664-1.16869Z"></path><path d="M37.51142,43.77l0.77-.90123,0.78187,0.72805a3.304,3.304,0,0,1-.87639.425,1.6066,1.6066,0,0,1-.69554-0.26826Z"></path><path d="M42.34766,45.6714l-0.89679-1.524a2.93491,2.93491,0,0,1,1.1283.09607,5.05438,5.05438,0,0,1,.24953,1.25167Z"></path><path d="M51.66725,53.4259l-0.54819-1.78508C52.53855,52.13057,52.61,52.37578,51.66725,53.4259Z"></path><path d="M56.03966,48.168a3.85162,3.85162,0,0,1-.62945-1.08834A1.58532,1.58532,0,0,1,55.99,46.51493a2.98026,2.98026,0,0,1,.59615.8224A2.226,2.226,0,0,1,56.03966,48.168Z"></path><path d="M56.14056,26.56014c-0.29116.76252-.4964,1.39507-0.78411,1.98756a0.71906,0.71906,0,0,1-.59913.23283,0.964,0.964,0,0,1-.32237-0.7147,8.0664,8.0664,0,0,1,.60767-1.64544,0.67431,0.67431,0,0,1,.54579-0.33213A1.66365,1.66365,0,0,1,56.14056,26.56014Z"></path><path d="M55.82859,33.74772a1.98268,1.98268,0,0,1-.43908.95079A2.0183,2.0183,0,0,1,54.363,34.453l-0.03406-.2932,1.19845-.70215Z"></path><path d="M36.91856,20.92007l1.16691,1.1474a2.74,2.74,0,0,1-.6886.63714,3.40149,3.40149,0,0,1-1.04315-.9044A3.47629,3.47629,0,0,1,36.91856,20.92007Z"></path><path d="M37.7035,24.10389c1.15632,0.3328.86636,1.127,0.89676,1.75336a0.64,0.64,0,0,1-.48966.25958A1.03874,1.03874,0,0,1,37.572,25.5304,6.88521,6.88521,0,0,1,37.7035,24.10389Z"></path><path d="M67.91712,39.594l-1.40217.64267a4.24358,4.24358,0,0,1-.20622-0.76977,11.96894,11.96894,0,0,1,1.36892-.47892Z"></path><path d="M31.77084,37.51033c-1.08026.11272-1.65322-.04031-1.579-0.83135a2.01123,2.01123,0,0,1,.87239-0.566Z"></path><path d="M31.23024,41.076l0.97259,1.179a1.29108,1.29108,0,0,1-.55357.37961,0.92962,0.92962,0,0,1-.77687-1.25075Z"></path><path d="M29.11707,39.18875a7.60172,7.60172,0,0,1-.82041-1.16088,1.99721,1.99721,0,0,1,.51581-0.53054,7.17516,7.17516,0,0,1,.85526.9146A3.16467,3.16467,0,0,1,29.11707,39.18875Z"></path><path d="M32.40239,40.76067l1.44384-.11783a9.6038,9.6038,0,0,1-.22478,1.168,0.5207,0.5207,0,0,1-.44486.08148A12.58012,12.58012,0,0,1,32.40239,40.76067Z"></path></g></svg>