<svg xmlns="http://www.w3.org/2000/svg" height="100" width="100" fill="#121113" xmlns:v="https://vecta.io/nano"><path d="M56.849 38.083l2.393 2.518a5.616 5.616 0 0 0 .965-1.055 38.69 38.69 0 0 0 2.035-4.195 25.76 25.76 0 0 0 .663-3.129 4.853 4.853 0 0 1 .576-1.08l.622 1.144a4.687 4.687 0 0 1 .203.743c.557-.724 1.87-.429 1.773-1.794a3.152 3.152 0 0 1 .719-1.315l1.012 1.483 1.611-.081a1.106 1.106 0 0 0-.062-.261l-.69-1.105a1.483 1.483 0 0 1 .683-.378.944.944 0 0 1 .757 1.161.98.98 0 0 0 .541.779 5.772 5.772 0 0 0 1.643.139c.138 0 .271-.312.412-.317.541-.02 1.085.027 1.628.049l-.852 1.114 1.196 2.048c.864 1.277.453 2.379-.355 3.471l-1.338 1.887a1.306 1.306 0 0 1-.8.546 1.379 1.379 0 0 0-1.553.968.61.61 0 0 1-.522.288c-1.508-.524-2.521.587-3.776 1.079l.694 1.299-.196.28-1.439-.601a11.581 11.581 0 0 0-1.7-.565l-3.403-.568.27 4.496c.804-.702 1.965-.602 2.147-1.986.092-.698.89-.763 1.559-.483l1.897.78a5.247 5.247 0 0 1 1.222.518c.772.59 1.48 1.23 2.576.858a1.84 1.84 0 0 1 .689.411c-1.379.558-1.202 1.674-1.217 2.691-.035 2.37-1.078 2.82-2.856 3.556-.808.335-1.951.249-2.151 1.516a.879.879 0 0 1-.746.177c-.95-.588-1.768-.151-2.623.21l-2.227.855.065.37c1.685-.15 3.596.139 4.989-.578 1.266-.652 2.216.239 3.263-.161a3.702 3.702 0 0 1 1.1-.08 1.233 1.233 0 0 1 1.39 1.452l-.461 4.996a1.124 1.124 0 0 1-.566.814c-1.245.384-1.434 1.297-1.509 2.424l-.677 7.409c-.443 3.52-.866 7.052-1.543 10.531-.506 2.601-1.099 5.246-2.728 7.452a1.695 1.695 0 0 1-1.28.546c-1.136-.072-2.257-.391-3.393-.469-2.704-.186-5.416-.424-8.121-.386-2.437.034-4.868.44-7.306.611a18.464 18.464 0 0 1-2.766-.119 1.451 1.451 0 0 1-1.416-1.549l-.332-5.862-.525-10.295c-.133-2.107-.375-4.207-.593-6.307a15.49 15.49 0 0 0-.334-1.853.818.818 0 0 0-.34-.553c-2.418-.674-1.044-2.614-1.28-3.974a3.747 3.747 0 0 1 .473-2.046c.828-1.749 2.446-.852 3.737-.973 1.533-.144 3.078-.158 4.617-.228l.133-.291-2.673-2.129c-.331-.273-.955-.442-.523-1.107a.463.463 0 0 0 .007-.424l-2.612-3.222a15.37 15.37 0 0 0-1.333-1.226l1.038-.64c-.271-1.704-.343-1.811-2.009-1.831-2.853-.034-4.885-1.477-6.567-3.626-.596-.761-1.016-1.782-2.253-1.806a.813.813 0 0 1-.41-.649 3.444 3.444 0 0 0-.838-2.314c-1.082-1.638.082-4.627 1.993-5.144a5.563 5.563 0 0 1 6.415 2.254c.368.494.77.963 1.149 1.435l2.498-6.592a7.382 7.382 0 0 0-.792-.513c-1.817-.964-2.595-2.79-3.689-4.361a10.628 10.628 0 0 0-1.253-1.299l-1.115-1.108.24-.325 1.261.199c-.04-2.023-.385-4.117 1.164-5.845a2.699 2.699 0 0 1-.29-.459c-.132-.349-.233-.709-.346-1.065.331.029.661.081.992.079a2.277 2.277 0 0 0 .784-.119 4.556 4.556 0 0 1 .883-.456.947.947 0 0 0 .902-1.456 1.215 1.215 0 0 1 .066-.462c.844-.135 1.016.426 1.173 1.011a2.867 2.867 0 0 0 3.992 1.318c.585-.447 1.223-.961 1.927.041l-1.857 1.44a7.139 7.139 0 0 1 1.769 7.008c-.362 1.557-1.684 2.401-2.056 3.833a1.925 1.925 0 0 1-.19.374c3.943.418 5.279 3.441 6.639 6.444.272.6.594 1.177.855 1.782a9.89 9.89 0 0 1 .921 4.648 6.468 6.468 0 0 0 .21 1.392l3.536-4.174-4.042-6.106 1.085.169c0-.175.009-.282-.001-.388-.153-1.609-.378-3.215-.424-4.826a4.197 4.197 0 0 1 .681-1.57 3.648 3.648 0 0 0 .503-2.788 1.37 1.37 0 0 1 .626-.025c1.167.639 1.794-.321 2.397-.921a1.808 1.808 0 0 1 2.52-.18c.816.721 1.549 1.697 2.892 1.398a.892.892 0 0 1 .306.61c-.452 1.077.221 1.581.97 2.066a.966.966 0 0 1 .395 1.274 15.972 15.972 0 0 0-.042 3.317 3.054 3.054 0 0 1-.098 1.089 16.792 16.792 0 0 0-1.066 2.37 7.876 7.876 0 0 1-2.891 4.575zm5.793.199l-2.273 2.852c3.548 1.508 6.493.559 9.085-.972v-1.685l1.307.765c2.242-.732 3.733-2.487 2.68-4.076l-1.29.657.205-2.182c-3.394-2.56-8.034-.304-9.487 4.201zm-25.13 5.489l-.022-.018a12.366 12.366 0 0 0 .361 1.498 37.098 37.098 0 0 0 2.265 5.721 37.732 37.732 0 0 0 3.866 4.905 15.691 15.691 0 0 0 1.367 1.308l-.154.347 8.269-.389c-.102-1.515-.097-1.508 1.043-2.266a2.286 2.286 0 0 0 .525-.554 23.627 23.627 0 0 0 1.743-2.426c.69-1.228 1.271-2.52 1.855-3.805a6.82 6.82 0 0 0-1.01-7.349c-.966-1.305-1.366-1.717-3.291-1.133a6.703 6.703 0 0 0-2.876 1.94 7.086 7.086 0 0 0-1.852 6.747c.229.889.81 1.828-.304 2.596a1.365 1.365 0 0 0-.051.756c-.005 1.157.024 2.315-.022 3.47a2.699 2.699 0 0 1-.344 1.237 2.928 2.928 0 0 1-.848.65 3.854 3.854 0 0 1-.343-1.205c.06-1.066.327-2.124.343-3.188l.027-11.746a12.466 12.466 0 0 0-.632-3.349 17.261 17.261 0 0 0-3.231-6.494c-1.289-1.493-2.603-2.077-3.728-1.203a12.368 12.368 0 0 0-2.635 2.931 9.804 9.804 0 0 0-1.464 5.056 9.971 9.971 0 0 0 1.143 5.961zm19.105 32.785c1.763-.248 4.237-.529 6.679-.986.651-.122 1.611-.219 1.756-1.251.222-1.572.504-3.137.668-4.714.159-1.517.24-3.045.275-4.57a1.167 1.167 0 0 0-.916-1.434 22.276 22.276 0 0 0-3.978-.215c-3.505.278-6.995.728-10.498 1.045a28.948 28.948 0 0 1-3.856.052l-8.627-.48a.64.64 0 0 0-.754.822l.1 1.336.744 7.196c.151 1.992.389 2.323 2.347 2.522 2.193.223 4.381.563 6.579.648 2.918.113 5.844.028 9.478.028zm7.201 5.59c-8.461 2.035-16.735.794-25.166.064l.484 6.472a1.042 1.042 0 0 0 1.158 1.075c1.551.002 3.103.104 4.653.071 2.948-.063 5.896-.274 8.843-.266 2.113.006 4.223.289 6.338.395a1.39 1.39 0 0 0 1.05-.388c1.568-2.148 2.084-4.681 2.641-7.423zm-25.291-4.892c.033.294.102.8.144 1.309a3.837 3.837 0 0 0 .167 1.738 3.807 3.807 0 0 0 1.611.568 19.286 19.286 0 0 0 6.902.803c1.626-.016 3.261-.067 4.877.074a26.719 26.719 0 0 0 9.806-.536 3.353 3.353 0 0 0 1.958-1.09 11.66 11.66 0 0 0 .761-3.005c-4.508.322-8.85.858-13.194.88-4.334.022-8.671-.472-13.033-.741zm17.156-39.16c.693-1.087 1.441-2.152 2.075-3.28a13.748 13.748 0 0 0 1.485-7.981 1.763 1.763 0 0 0-.351-.923 17.53 17.53 0 0 0-1.588-1.73 3.3 3.3 0 0 0-1.371-.99c-1.522-.286-2.567.449-3.55 1.654-1.123 1.377-1.878 3.836-1.26 5.483 1.201-.039 1.753.903 1.292 2.324l-.859-.326c-.082 1.734 2.238 4.998 4.126 5.768zM42.234 22.212l-1.573-1.131 1.331-.926a4.536 4.536 0 0 0-2.259-2.994c-3.026-1.862-5.629-1.012-6.347 2.614a7.805 7.805 0 0 0 1.04 5.531c.41.711.65 1.615 1.716 1.722a1.3 1.3 0 0 1 1.317 1.211 2.115 2.115 0 0 0 1.342.904 2.42 2.42 0 0 0 .753-.991c.345-.683.604-1.408.92-2.107l1.76-3.833zm-6.028 22.961a18.795 18.795 0 0 0-2.934-8.371 5.079 5.079 0 0 0-2.936-2.425c-1.71-.44-2.855-.093-3.729 1.286-.553.871-.262 2.229.711 3.368q1.879 2.2 3.75 4.407c1.345 1.591 3.135 1.814 5.138 1.735zm28.511 7.358a13.442 13.442 0 0 0 1.781-.5c1.833-.787 2.153-2.298.839-3.727-.092-.099-.099-.275-.188-.379a2.866 2.866 0 0 0-.835-.867 6.037 6.037 0 0 0-5.002 1.164.554.554 0 0 0-.135.292l-.239 2.32a2.281 2.281 0 0 1-.832-.347c-.645-.708-.957-.449-1.389.256-.729 1.189-1.601 2.289-2.378 3.45-.376.562-.672 1.177-1.004 1.768l.332.29 8.288-3.917a8.9 8.9 0 0 1-.322-1.412 2.543 2.543 0 0 1 .258-.845 1.955 1.955 0 0 1 .788.621 8.693 8.693 0 0 1 .037 1.831zm-22.605 6.152c-.106 1.17-.249 2.261-.273 3.354a1.011 1.011 0 0 0 .583.781c1.105.202 2.232.284 3.615.439-1.05-1.473-1.46-2.925-.537-4.574h-3.387zm23.787-1.195l-.012-.303-5.274.323c1.18.569 1.302 1.202.981 2.072a23.208 23.208 0 0 0-.634 2.535h3.536c-1-2.774-.613-3.96 1.404-4.627zm-6.807 4.896a18.885 18.885 0 0 1 .249-2.417 19.47 19.47 0 0 1 .842-2.301l-3.504.17a16.629 16.629 0 0 1-.017 2.367c-.33 2.087-.069 2.416 1.942 2.211.184-.019.369-.023.487-.03zm-21.486-3.63l-.397 1.963c-.273 1.362.248 1.974 1.618 1.916.405-.017.812-.003 1.176-.003 0-.618-.039-1.171.007-1.717.195-2.336.204-2.336-2.167-2.242a.971.971 0 0 0-.236.083zm12.036 4.738l.182-.337c-1.604-1.597.178-2.956.186-4.442-1.374-.656-2.273-.274-2.412 1.157-.049.506-.304 1.001-.305 1.501-.001.635-.056 1.557.309 1.834a4.487 4.487 0 0 0 2.04.287zm4.632-5.359l-1.967.144-.257 4.833 2.224-.309v-4.667z"/><path d="M62.869 37.84c.611-.004 1.278-.893 1.826.114-1.054 1.141-1.654 1.237-2.054.328zM45.291 49.605l-.72-3.882a1.189 1.189 0 0 1 .285-.527 1.822 1.822 0 0 1 .777.537 12.362 12.362 0 0 1 .267 2.007 5.173 5.173 0 0 1 .049 1.208 2.852 2.852 0 0 1-.397.807zm-1.72 2.955a1.972 1.972 0 0 1-1.673-1.803 1.089 1.089 0 0 1 .651-.383 3.28 3.28 0 0 1 1.022 2.186zm11.012-6.927a.902.902 0 0 1-.192-1.632c.334-.338.012-1.335.903-.994a3.64 3.64 0 0 1-.163 1.492 6.152 6.152 0 0 1-.548 1.135zm-11.277-3.19l-.256-2.02a.616.616 0 0 1 .392-.398 1.025 1.025 0 0 1 .64.451 17.665 17.665 0 0 1-.224 2.007zm-3.953-5.186a6.294 6.294 0 0 1-.814.437 10.245 10.245 0 0 1-.947-1.493 2.9 2.9 0 0 1 .561-.483zm3.951-.286l.167-1.879a.597.597 0 0 1 .527-.22.802.802 0 0 1 .468.517 15.569 15.569 0 0 1-.554 1.713zm-1.674-1.97a2.435 2.435 0 0 1-.633-.948 2.601 2.601 0 0 1 .502-1.056l.448.072.141 1.736zm5.272 18.265a1.527 1.527 0 0 1-.419-2.007.665.665 0 0 1 .543-.207.512.512 0 0 1 .237.42c-.071.522-.202 1.035-.361 1.794zm4.901-8.18l-.557 1.463a2.158 2.158 0 0 1-.634-.56 6.228 6.228 0 0 1 .664-1.169zM37.511 43.77l.77-.901.782.728a3.304 3.304 0 0 1-.876.425 1.607 1.607 0 0 1-.696-.268zm4.837 1.901l-.897-1.524a2.935 2.935 0 0 1 1.128.096 5.054 5.054 0 0 1 .25 1.252zm9.319 7.755l-.548-1.785c1.419.49 1.491.735.548 1.785zm4.373-5.258a3.852 3.852 0 0 1-.629-1.088 1.585 1.585 0 0 1 .58-.565 2.98 2.98 0 0 1 .596.822 2.226 2.226 0 0 1-.546.831zm.101-21.608l-.784 1.988a.719.719 0 0 1-.599.233.964.964 0 0 1-.322-.715 8.066 8.066 0 0 1 .608-1.645.674.674 0 0 1 .546-.332 1.664 1.664 0 0 1 .552.472zm-.312 7.188a1.983 1.983 0 0 1-.439.951 2.018 2.018 0 0 1-1.027-.246l-.034-.293 1.198-.702zM36.919 20.92l1.167 1.147a2.74 2.74 0 0 1-.689.637 3.401 3.401 0 0 1-1.043-.904 3.476 3.476 0 0 1 .565-.88zm.785 3.184c1.156.333.866 1.127.897 1.753a.64.64 0 0 1-.49.26 1.039 1.039 0 0 1-.539-.586 6.885 6.885 0 0 1 .131-1.427zm30.213 15.49l-1.402.643a4.244 4.244 0 0 1-.206-.77 11.969 11.969 0 0 1 1.369-.479zM31.771 37.51c-1.08.113-1.653-.04-1.579-.831a2.011 2.011 0 0 1 .872-.566zm-.541 3.566l.973 1.179a1.291 1.291 0 0 1-.554.38.93.93 0 0 1-.777-1.251zm-2.113-1.887a7.602 7.602 0 0 1-.82-1.161 1.997 1.997 0 0 1 .516-.531 7.175 7.175 0 0 1 .855.915 3.165 3.165 0 0 1-.551.777zm3.285 1.572l1.444-.118a9.604 9.604 0 0 1-.225 1.168.521.521 0 0 1-.445.081 12.58 12.58 0 0 1-.774-1.132z"/></svg>