<svg height='100px' width='100px'  fill="#121113" xmlns="http://www.w3.org/2000/svg" data-name="Слой 1" viewBox="0 0 100 100" x="0px" y="0px"><title>plant 11</title><g><path d="M68.43545,71.24107c-2.96347.59551-6.59906,1.31883-10.22677,2.06939a1.06154,1.06154,0,0,0-.72539.4768c-1.15533,2.87629-3.8604,4.15094-6.34506,5.41175a8.1014,8.1014,0,0,1-5.14929.15842,47.65946,47.65946,0,0,1-7.42058-2.85484,3.31882,3.31882,0,0,1-1.80882-1.69728C36.43031,73.08564,35.30719,73.233,34.1,72.932a44.3089,44.3089,0,0,1-6.16055-2.06893,2.21857,2.21857,0,0,1-1.16923-2.77254c0.17367-.84513.30454-1.70239,0.48058-2.54682,0.518-2.48507,1.10893-4.87885,4.57817-4.43869a6.1689,6.1689,0,0,0,1.86887-.44492c-2.037-2.50593-3.81611-4.92864-5.84266-7.13267a38.73714,38.73714,0,0,1-6.84245-10.902c-0.50964-1.164-.15187-2.637-0.1916-3.96842,1.40387,0.185,2.82109.27932,4.20585,0.59389A11.71362,11.71362,0,0,1,27.468,40.632a48.53142,48.53142,0,0,1-1.72428-4.81762,16.05762,16.05762,0,0,1-.56532-4.80932c0.04343-.5728,1.35765-1.3362,2.144-1.32694,2.652,0.03123,4.33995,1.96559,5.73806,3.9644,1.66138,2.37522,3.08433,4.90238,4.53921,7.24863-0.85434-2.93131-1.957-6.008-2.59753-9.13876a44.21319,44.21319,0,0,1-.58883-7.45418c-0.06616-2.04334,1.46528-2.936,3.08268-3.53751,0.45426-.16895,1.21427.33738,1.91972,0.56113a40.51758,40.51758,0,0,1-.6741-5.82617A14.749,14.749,0,0,1,39.815,10.75757c0.561-1.517,2.19078-1.6458,3.52321-1.24539a3.88291,3.88291,0,0,1,2.04255,2.22631c0.7594,2.36123,1.19463,4.79889,1.836,7.53773,0.23662-1.6736.40725-3.09048,0.641-4.49189A13.64355,13.64355,0,0,1,52.7891,6.5317a2.92333,2.92333,0,0,1,4.0836-.06784,5.60023,5.60023,0,0,1,1.57986,3.81335c-0.11824,3.33018-1.95586,5.97016-3.60417,8.67078-1.57865,2.5864-2.937,5.31576-4.27521,7.76794a85.08863,85.08863,0,0,1,6.58542-6.886c2.63078-2.23887,5.42921-4.32036,9.198-4.8965,2.35563-.36011,5.03782,1.6802,4.33086,4.33508a10.34363,10.34363,0,0,1-3.80273,6.19267c-1.01858.73287-1.90516,1.6363-3.04506,2.6315,5.86464-1.25838,6.37664-.86821,6.68229,4.93254,2.84966-1.06,5.01464.76282,7.12071,2.35185a4.55327,4.55327,0,0,1-.47876,7.31132c-1.87544,1.33968-4.20733,2.08652-6.33868,3.09219-0.31835.15023-.654,0.26872-1.09455,0.44775,3.95668,3.20474.34044,5.147-.67876,7.85026,1.34753-.18681,2.41316-0.39271,3.49915-0.47162,1.711-.12437,3.50836-0.211,4.70333,1.51577,1.10626,1.59862,1.11472,4.48136-.04254,5.7295A24.5402,24.5402,0,0,1,73.078,64.52845a2.21936,2.21936,0,0,0-1.04408,2.42667,13.70235,13.70235,0,0,1-.52571,2.70456,4.37333,4.37333,0,0,0,.03957,2.241,25.15992,25.15992,0,0,1,2.2383,12.06239,7.7398,7.7398,0,0,1-5.42328,6.97924c-5.21644,1.94335-10.68269,3.55685-16.49207,3.37733A113.6648,113.6648,0,0,1,38.95186,92.7043,17.28741,17.28741,0,0,1,33.58267,91.412c-6.29943-3.23986-7.00916-7.22951-6.47947-12.88938a35.02333,35.02333,0,0,1,.95774-4.69944,4.79525,4.79525,0,0,1,.60555-1.12949q0.295,0.10645.58994,0.213a26.45352,26.45352,0,0,1-.59976,3.40529c-0.36633,1.19168.1493,1.69721,1.20665,2.18,5.04713,2.30487,7.68227,6.25624,7.54695,11.39424A1.38818,1.38818,0,0,0,38.746,91.592c5.13114,0.59712,10.34732,1.79036,15.37041,1.55805,4.61923-.2137,9.04346-1.93632,13.52165-3.08753a5.089,5.089,0,0,0,1.942-1.31772c2.20437-2.00041,2.1425-1.97705-.0442-4.39952-2.72889-3.023-3.22012-6.62513-2.88009-10.19956C66.77291,72.91475,68.01772,71.88364,68.43545,71.24107ZM55.18551,27.32024A3.314,3.314,0,0,1,54.82471,26a12.54639,12.54639,0,0,1,.81409-2.09331l-0.63932-.3401q-1.69211,3.33116-3.38426,6.66232l0.5109,0.33287,3.03825-3.268c3.51943-1.71808,4.32881-5.89305,6.92058-8.45213l0.54715,0.44171q-0.43345.99193-.86693,1.984l0.46961,0.37555Q64.37761,19.37,66.52043,17.097l-0.60312-.73346c-1.45292.77894-2.88478,1.59495-4.36386,2.32788a7.65286,7.65286,0,0,0-4.39652,4.7594A22.55369,22.55369,0,0,1,55.18551,27.32024ZM28.81336,64.62872c-1.36082,4.79248-1.52563,5.16108,3.24041,6.70917a12.38069,12.38069,0,0,0,2.82524.61928c8.4392,0.64743,16.899,1.27643,25.11641-.18251A69.338,69.338,0,0,0,69.919,68.98295c0.51519-.17334.54543-1.50435,0.7999-2.3001a6.02108,6.02108,0,0,0-1.87192-.32649c-1.46152.23621-2.85026,0.79028-4.32045,0.96106A114.47074,114.47074,0,0,1,52.026,68.4734c-4.14406.02514-8.14236,1.53029-12.44469,0.109-2.06515-.68218-4.23788-0.95575-6.29172-1.669A35.84175,35.84175,0,0,1,28.81336,64.62872Zm27.04644,9.20741c-5.96009-.035-11.88094-0.06976-17.80176-0.10456l-0.138.63293c2.59794,2.58754,6.00171,3.38389,9.36713,3.96615C50.41508,78.87181,54.63731,76.48411,55.85979,73.83614Zm6.32839-20.14457q0.00915-.33881.01836-0.67753c0.8709,0.0718,1.74332.11237,2.61224,0.22674a5.77958,5.77958,0,0,0,1.62116.35057c1.56555-.3606,3.49925-3.19753,3.47146-4.88069-6.24214-1.77319-9.48045-1.475-12.597,4.555l0.36208,0.39315q3.0983-2.74435,6.19664-5.4887l0.415,0.38253c-0.47492.70926-.94987,1.41856-1.65222,2.46744,1.81832-.81079,3.23-1.44026,4.72387-2.10633,0.89215,1.0819,1.02675,1.91511-.68966,2.21179-0.7256.12542-1.3963,0.49727-2.12659,0.56349-3.72947.33852-6.32178,2.62258-9.31227,4.46793,2.737,1.36761,3.73376,1.28508,5.60762-.3279l-2.44928-.38-0.00192-.83858c0.95572,0.08609,2.11351-.14789,2.82421.32643,1.376,0.91842,2.0271.2602,3.04851-.50854C63.42357,54.13082,62.80587,53.91117,62.18818,53.69156ZM35.45734,91.051C37.57,87.315,33.40245,80.44012,28.5519,79.46979,27.4667,84.066,29.44814,88.24421,35.45734,91.051ZM70.38383,72.024c-2.20876,1.14315-2.89628,2.03906-2.56586,4.28564,0.437,2.97128,1.00169,6.00475,4.20184,8.104C73.00807,80.03352,71.72717,76.06467,70.38383,72.024Zm7.3455-33.59349c-7.77938.96044-10.57546,1.97839-12.05673,3.94237,1.19536,0.5113,2.43147,1.02855,3.65829,1.57047a5.69846,5.69846,0,0,0,1.37979.68276c2.08067,0.21959,5.7269-2.27961,6.40211-4.387l-4.33221-.563C74.30388,38.0289,76.63211,40.032,77.72933,38.43048Zm-16.634-11.74309,0.047,0.49946c-2.02225.87041-5.36272-.87458-6.25945,2.80313,1.44721-.20424,2.912-0.07857,3.97522-0.63155a44.43534,44.43534,0,0,0,5.9036-3.89,25.182,25.182,0,0,0,2.69857-2.685l-0.30746-.40908c-1.39038.649-3.09864-1.66374-4.4055,0.25555l2.66,0.75972-0.00371.54433c-1.27291.05018-2.5421,0.14744-3.81975,0.13811a2.96589,2.96589,0,0,0-2.97372,1.95768C59.54262,26.27646,60.319,26.48192,61.09536,26.68739Zm-2.16207,11.9105c1.84445-1.62983-.01433-4.92451,2.82759-6.5187l-0.9164,3.64893c1.59265-1.71843,2.94425-3.0736,4.17183-4.53386,0.998-1.187,1.88023-1.40987,3.07766.43347q-3.00526,2.33669-6.0443,4.69976a5.39393,5.39393,0,0,0,2.17831-.76235c0.707-.34577,1.46773-0.59652,2.17178-0.947,1.58055-.78671,2.793-3.47529,1.87291-4.6934-1.29527-1.7147-2.80822-.57922-4.06612-0.08662C60.40023,31.32888,58.22634,34.001,58.93329,38.59789Zm-2.38194-5.23521A18.95317,18.95317,0,0,0,46.94873,41.26c2.07205-.93583,3.73491-1.5817,5.29431.36552C53.7515,38.73245,55.17983,35.99315,56.55136,33.36268ZM75.1841,57.605c-1.8883-1.70593-5.813-2.18858-7.19607-.92959-1.32214,1.20348-2.55508,2.50215-3.81172,3.774a7.21358,7.21358,0,0,0-.64115.93694c4.00846-.01668,5.35379-3.89827,8.47676-4.88718l0.31274,0.39751q-1.54093,1.392-3.08178,2.78394a8.5163,8.5163,0,0,0,2.57605-1.59182c0.70065-.53144,1.47406-1.67479,2.10226.30247C74.33247,58.13523,74.68069,57.91841,75.1841,57.605ZM32.70542,51.21681l0.50519-.29027a25.13342,25.13342,0,0,0-1.41385-2.45131c-0.375-.51845-1.13193-0.81189-1.43341-1.34571a16.483,16.483,0,0,0-5.60979-6.22814c0.10125,2.08352,1.542,3.34781,3.03008,4.58314A8.87643,8.87643,0,0,1,29.075,46.56488C30.31552,48.09243,31.49986,49.66269,32.70542,51.21681Zm36.29405-6.17838a8.51256,8.51256,0,0,0-11.41582,1.94723c2.98126-1.35716,5.96451-2.764,9.64955-1.386C67.66474,45.76108,68.2918,45.28008,68.99947,45.03843ZM40.96855,56.11283c-1.47759-4.32506-4.03041-8.32309-4.33846-12.94637C35.01478,48.312,38.6579,52.04926,40.96855,56.11283ZM56.92218,10.59824l-0.52981-.26788c-1.60662,1.41787-4.10358,2.05321-4.14692,5.21488,1.12367-.86421,2.95541.76857,3.48785-1.27633C56.05809,13.02153,56.52118,11.82024,56.92218,10.59824Zm4.997,53.92275,0.1009-.661a20.02276,20.02276,0,0,0,2.72764.52724A3.97,3.97,0,0,0,66.2047,63.883c-1.52291-.79587.19884-1.20925,0.21549-1.90095l-7.69759,1.8468,0.04866,0.42629q2.25816,0.67555,4.51632,1.35114l0.06057-.27881Q62.63368,64.92419,61.91922,64.521ZM30.8016,38.01465l0.55872-.11666c-0.37151-1.70552-.65461-3.43034-1.1644-5.10578a3.40374,3.40374,0,0,0-1.428-1.43378,1.302,1.302,0,0,0-1.1949.00513,1.2517,1.2517,0,0,0,.05223,1.11956C28.64691,34.34452,29.73558,36.1742,30.8016,38.01465Zm6.06234,25.60778c-1.00027-1.618-4.91278-1.79892-6.67267.0314,0.89411,1.185,1.70865,1.67029,3.14539.79059C34.32155,63.84137,35.72882,63.86262,36.86395,63.62243ZM58.126,50.06282c-2.94843,1.1705-4.36106,3.601-5.65632,6.40347C56.18931,55.71391,55.98892,51.8779,58.126,50.06282Zm1.14836,11.76009q0.13872,0.28274.2774,0.56558a4.69305,4.69305,0,0,0,1.95277-.51424c1.61052-1.494,3.08123-3.134,4.89657-5.02344C63.08362,57.77238,61.47227,60.16593,59.27439,61.82291ZM32.849,56.96337l6.14551,6.2734c-0.80512-1.74326-1.92184-3.28877-2.75917-4.95305C35.4461,56.7151,34.44674,56.40111,32.849,56.96337ZM53.9208,62.95616c4.36191,0.86347,4.66238-2.84579,6.99187-3.96563l-0.52843-.681C58.33778,59.78076,56.29127,61.252,53.9208,62.95616ZM41.91169,43.43473L42.40932,36.503l-0.60423-.09127C40.55479,38.59163,40.02349,40.87757,41.91169,43.43473ZM54.73428,61.0379c-2.08892.73434-4.54821,0.88793-5.88237,2.98031C52.12263,65.14532,53.02359,62.4102,54.73428,61.0379ZM48.211,65.49645l0.0396,0.74334q3.83719,0.39968,7.67439.7994l0.01968-.6028C53.37436,65.95119,50.83443,64.77569,48.211,65.49645ZM46.28938,52.71378c0.76251-2.29909,1.151-4.27222.12259-6.63351C44.826,48.17107,45.02712,50.191,46.28938,52.71378ZM34.03095,55.13519c-0.40662-2.75575-2.36607-2.594-4.29716-2.49661C31.66643,55.63537,31.76992,55.6954,34.03095,55.13519Zm7.30977-31.63678c1.06625,3.0444,1.99557,5.69786,2.9249,8.35136C43.61813,29.12055,44.80918,25.88325,41.34072,23.49842ZM56.87444,63.94515c-0.433.10066-1.34618,0.31294-2.606,0.60587,2.47851,1.03425,4.39295,2.858,6.67755,1.79026C59.81479,65.67557,58.59036,64.955,56.87444,63.94515Zm-13.28418-3.046c2.40026-4.23653,2.59652-6.73689.98071-8.53785C44.26619,55.01475,43.95017,57.76592,43.59026,60.8992ZM42.9022,43.28848c-1.20082,2.20147-1.67846,4.39089-.03018,6.9885,0.3687-1.02686.67244-1.8729,0.97624-2.71893l-0.40115.00923Zm29.50869-9.093c-2.884.20383-2.59158,3.3826-4.41168,4.58293C70.79524,38.49213,71.19663,35.96313,72.41089,34.19547ZM63.325,40.51742L62.80438,40.026l-6.0689,5.283a12.02026,12.02026,0,0,0,3.76985-1.95284A31.68419,31.68419,0,0,0,63.325,40.51742ZM34.18757,44.75116l0.84783,0.00178c-0.29869-1.9426,2.28373-3.87735-.69805-5.9258C34.28563,40.87328,34.23659,42.81219,34.18757,44.75116ZM52.51632,33.81734a5.66758,5.66758,0,0,0-5.32269,4.23675C48.89875,36.69686,50.60382,35.33963,52.51632,33.81734ZM76.57017,58.30961c-2.09263.91609-3.93284,1.72171-5.773,2.52733a1.805,1.805,0,0,0,1.32891.1776,4.55351,4.55351,0,0,1,1.46609-.23987C75.41058,61.11231,76.18036,60.58376,76.57017,58.30961ZM54.60366,16.57018c-2.65108-.01818-3.322.58575-3.87587,3.1504C53.14359,20.12865,53.33217,17.9824,54.60366,16.57018ZM37.83207,23.62932c-0.03027,1.87787-.14912,3.49705,1.50286,4.79291C40.33439,26.03076,40.06114,25.07926,37.83207,23.62932Zm7.69238-2.811q-0.35986.00389-.71978,0.00769l0.119,7.36857q0.34392,0.02443.68778,0.04882Q45.568,24.53088,45.52445,20.81832ZM68.80653,35.56685l-0.441-.27922q-2.34177,2.48386-4.68345,4.96772l0.72573,0.61071C67.06747,40.089,67.1793,37.1998,68.80653,35.56685ZM32.40276,41.60269q0.41321,0.012.82647,0.0241-0.12449-3.22872-.24888-6.45739l-0.81288-.01828Q32.28509,38.37691,32.40276,41.60269Zm8.67632-23.63224c-1.19206,2.61857,1.01845,3.854,2.37844,5.4691Q42.26832,20.705,41.07907,17.97045ZM57.97841,36.853l-0.55413-.17809c-1.77477,1.46379-.84059,3.81076-1.48923,5.64171l0.69043,0.21873Q57.30192,39.69418,57.97841,36.853ZM55.1919,40.47446l-0.83982-.266L53.4185,44.90129q0.49991,0.13741.9998,0.27472Q54.80508,42.82524,55.1919,40.47446Zm-6.05673,1.62142c-2.30759.83309-2.53215,1.87992-1.01327,4.10545C48.46876,44.79583,48.77342,43.56144,49.13517,42.09588Zm-1.21166-8.201q0.35027,0.22507.70059,0.45018,1.31779-2.50048,2.63563-5.001l-0.60463-.3539Q49.28928,31.44252,47.92351,33.89486ZM72.91836,62.59117a7.40825,7.40825,0,0,1-2.067-.1723c-0.53914-.23546-0.93483-0.83111-1.46628-1.12208a1.02974,1.02974,0,0,0-.96654.182,0.96852,0.96852,0,0,0,.02566.91752C68.83676,63.01751,71.81457,63.31464,72.91836,62.59117ZM51.64079,58.9285l0.17153,0.58923c1.30788-.33008,2.61575-0.66015,4.215-1.06373C53.87255,56.91295,52.71677,57.77722,51.64079,58.9285ZM42.995,16.82386c1.37141-2.11054,1.1346-3.629-.52166-4.09624ZM51.6335,56.36932l-0.54744-.38218q-1.87327,1.97553-3.74648,3.95111l0.49871,0.463Q49.73587,58.38531,51.6335,56.36932ZM68.86341,18.92861c-1.39662.68084-2.43718,1.18806-3.47774,1.69533C66.8858,20.96248,68.81549,22.20458,68.86341,18.92861ZM39.05956,34.10756a3.78691,3.78691,0,0,0,1.27709-4.62134C39.85754,31.21993,39.45852,32.66372,39.05956,34.10756ZM26.38028,46.13974l-0.43319.531c0.5576,1.344,1.20413,2.5685,3.55977,2.26368ZM51.76067,31.752L51.89795,32.347c1.54962,0.23992,3.06433.39573,4.15261-1.65982C54.333,31.11351,53.04684,31.43271,51.76067,31.752ZM27.006,33.82778c-0.10241,2.78774.35535,3.50453,2.42384,3.8672C28.62545,36.4115,27.90019,35.25436,27.006,33.82778Zm17.0879,11.41513c1.18248-2.56262,1.19853-4.03529.07964-4.95275C44.1483,41.86149,44.125,43.30958,44.09394,45.24292Zm1.36732-28.80036-0.85114-.28949q-0.47939,2.24309-.95877,4.48624l0.33042,0.086Q44.72148,18.58391,45.46126,16.44256ZM52.458,47.69619l-0.82-.75882q-1.13223,1.52493-2.2644,3.0499l0.50919,0.45206Q51.17038,49.06776,52.458,47.69619Zm-20.7511-4.40054L31.0502,43.836q1.118,1.32642,2.2361,2.65283l0.59632-.48261Q32.79471,44.65095,31.70689,43.29565ZM50.86524,12.6701l0.64284,0.2098q0.73572-1.78248,1.47139-3.565L52.3666,9.024Q51.61594,10.847,50.86524,12.6701Zm3.29317-2.49581,0.34076,0.23451A18.65778,18.65778,0,0,0,56.18469,8.9021a1.82553,1.82553,0,0,0,.02967-0.94545,1.81581,1.81581,0,0,0-.96443.14778A18.28726,18.28726,0,0,0,54.15841,10.17429ZM34.50942,47.334q-0.32731.14379-.65458,0.28753l2.30033,3.36157L36.6064,50.733Q35.55789,49.03354,34.50942,47.334Zm24.00208-5.7405,0.23111,0.2226q1.19129-1.54089,2.38248-3.08183l-0.46873-.40671Q59.5839,39.96045,58.5115,41.59347ZM37.0459,27.53734l-0.90039.13454q0.42125,1.45464.84256,2.90932l0.63182-.11685Z"></path><path d="M58.40178,79.89279a16.84233,16.84233,0,0,1,3.56515,1.29892c2.76429,1.62065,3.24115,4.10737,1.37124,6.36513-3.97163,4.7952-8.23723,4.48506-13.49751,1.06971-0.97962-.636-1.34656-2.34732-1.87273-3.60387a1.34216,1.34216,0,0,1,.37421-1.163C49.92522,82.28507,55.43943,79.98346,58.40178,79.89279Zm-0.61389,1.35638c-2.60531.54335-5.62873,1.0657-7.47471,3.74535-1.05931,1.53773-.92595,2.54216.86005,3.32854,4.28549,1.887,6.91972,2.997,10.11765-.52226,0.96825-1.06553,2.35626-1.85161,1.54766-3.70731C61.99479,82.15683,60.28713,81.12448,57.78789,81.24917Z"></path><path d="M67.15657,41.21262l5.78056,1.72194-0.17253.831q-2.91951-.767-5.839-1.534Z"></path></g></svg>