<svg xmlns="http://www.w3.org/2000/svg" height="100" width="100" fill="#121113" xmlns:v="https://vecta.io/nano"><path d="M68.435 71.241L58.209 73.31a1.062 1.062 0 0 0-.725.477c-1.155 2.876-3.86 4.151-6.345 5.412a8.101 8.101 0 0 1-5.149.158 47.659 47.659 0 0 1-7.421-2.855 3.319 3.319 0 0 1-1.809-1.697c-.329-1.72-1.452-1.572-2.66-1.873a44.309 44.309 0 0 1-6.161-2.069 2.219 2.219 0 0 1-1.169-2.773l.481-2.547c.518-2.485 1.109-4.879 4.578-4.439a6.169 6.169 0 0 0 1.869-.445l-5.843-7.133a38.737 38.737 0 0 1-6.842-10.902c-.51-1.164-.152-2.637-.192-3.968l4.206.594a11.714 11.714 0 0 1 2.441 1.381 48.531 48.531 0 0 1-1.724-4.818 16.058 16.058 0 0 1-.565-4.809c.043-.573 1.358-1.336 2.144-1.327 2.652.031 4.34 1.966 5.738 3.964 1.661 2.375 3.084 4.902 4.539 7.249l-2.598-9.139a44.213 44.213 0 0 1-.589-7.454c-.066-2.043 1.465-2.936 3.083-3.538.454-.169 1.214.337 1.92.561a40.518 40.518 0 0 1-.674-5.826 14.749 14.749 0 0 1 1.073-4.738c.561-1.517 2.191-1.646 3.523-1.245a3.883 3.883 0 0 1 2.043 2.226c.759 2.361 1.195 4.799 1.836 7.538l.641-4.492a13.644 13.644 0 0 1 4.931-8.253 2.923 2.923 0 0 1 4.084-.068 5.6 5.6 0 0 1 1.58 3.813c-.118 3.33-1.956 5.97-3.604 8.671l-4.275 7.768a85.089 85.089 0 0 1 6.585-6.886c2.631-2.239 5.429-4.32 9.198-4.896 2.356-.36 5.038 1.68 4.331 4.335a10.344 10.344 0 0 1-3.803 6.193c-1.019.733-1.905 1.636-3.045 2.631 5.865-1.258 6.377-.868 6.682 4.933 2.85-1.06 5.015.763 7.121 2.352a4.553 4.553 0 0 1-.479 7.311c-1.875 1.34-4.207 2.087-6.339 3.092-.318.15-.654.269-1.095.448 3.957 3.205.34 5.147-.679 7.85 1.348-.187 2.413-.393 3.499-.472 1.711-.124 3.508-.211 4.703 1.516 1.106 1.599 1.115 4.481-.043 5.73a24.54 24.54 0 0 1-4.134 3.676 2.219 2.219 0 0 0-1.044 2.427 13.702 13.702 0 0 1-.526 2.705 4.373 4.373 0 0 0 .04 2.241 25.16 25.16 0 0 1 2.238 12.062 7.74 7.74 0 0 1-5.423 6.979c-5.216 1.943-10.683 3.557-16.492 3.377a113.665 113.665 0 0 1-12.919-1.615 17.287 17.287 0 0 1-5.369-1.292c-6.299-3.24-7.009-7.23-6.479-12.889a35.023 35.023 0 0 1 .958-4.699 4.795 4.795 0 0 1 .606-1.129q.295.106.59.213a26.454 26.454 0 0 1-.6 3.405c-.366 1.192.149 1.697 1.207 2.18 5.047 2.305 7.682 6.256 7.547 11.394a1.388 1.388 0 0 0 1.336 1.706c5.131.597 10.347 1.79 15.37 1.558 4.619-.214 9.043-1.936 13.522-3.088a5.089 5.089 0 0 0 1.942-1.318c2.204-2 2.142-1.977-.044-4.4-2.729-3.023-3.22-6.625-2.88-10.2.117-1.231 1.362-2.262 1.78-2.905zM55.186 27.32a3.314 3.314 0 0 1-.361-1.32 12.546 12.546 0 0 1 .814-2.093l-.639-.34q-1.692 3.331-3.384 6.662l.511.333 3.038-3.268c3.519-1.718 4.329-5.893 6.921-8.452l.547.442q-.433.992-.867 1.984l.47.376q2.143-2.273 4.286-4.546l-.603-.733c-1.453.779-2.885 1.595-4.364 2.328a7.653 7.653 0 0 0-4.397 4.759 22.554 22.554 0 0 1-1.971 3.869zM28.813 64.629c-1.361 4.792-1.526 5.161 3.24 6.709a12.381 12.381 0 0 0 2.825.619c8.439.647 16.899 1.276 25.116-.183a69.338 69.338 0 0 0 9.924-2.792c.515-.173.545-1.504.8-2.3a6.021 6.021 0 0 0-1.872-.326c-1.462.236-2.85.79-4.32.961a114.471 114.471 0 0 1-12.501 1.156c-4.144.025-8.142 1.53-12.445.109-2.065-.682-4.238-.956-6.292-1.669a35.842 35.842 0 0 1-4.476-2.285zm27.046 9.207l-17.802-.105-.138.633c2.598 2.588 6.002 3.384 9.367 3.966 3.128.541 7.35-1.847 8.573-4.495zm6.328-20.145q.009-.339.018-.678c.871.072 1.743.112 2.612.227a5.78 5.78 0 0 0 1.621.351c1.566-.361 3.499-3.198 3.471-4.881-6.242-1.773-9.48-1.475-12.597 4.555l.362.393q3.098-2.744 6.197-5.489l.415.383-1.652 2.467 4.724-2.106c.892 1.082 1.027 1.915-.69 2.212-.726.125-1.396.497-2.127.563-3.729.339-6.322 2.623-9.312 4.468 2.737 1.368 3.734 1.285 5.608-.328l-2.449-.38-.002-.839c.956.086 2.114-.148 2.824.326 1.376.918 2.027.26 3.049-.509l-2.072-.737zm-26.73 37.36c2.113-3.736-2.055-10.611-6.905-11.581-1.085 4.596.896 8.774 6.905 11.581zm34.926-19.027c-2.209 1.143-2.896 2.039-2.566 4.286.437 2.971 1.002 6.005 4.202 8.104.988-4.38-.293-8.349-1.636-12.39zm7.346-33.593c-7.779.96-10.575 1.978-12.057 3.942l3.658 1.57a5.698 5.698 0 0 0 1.38.683c2.081.22 5.727-2.28 6.402-4.387l-4.332-.563c1.523-1.647 3.852.356 4.949-1.246zM61.095 26.687l.047.499c-2.022.87-5.363-.875-6.259 2.803 1.447-.204 2.912-.079 3.975-.632a44.435 44.435 0 0 0 5.904-3.89 25.182 25.182 0 0 0 2.699-2.685l-.307-.409c-1.39.649-3.099-1.664-4.406.256l2.66.76-.004.544c-1.273.05-2.542.147-3.82.138a2.966 2.966 0 0 0-2.974 1.958l2.485.658zm-2.162 11.91c1.844-1.63-.014-4.925 2.828-6.519l-.916 3.649c1.593-1.718 2.944-3.074 4.172-4.534.998-1.187 1.88-1.41 3.078.433q-3.005 2.337-6.044 4.7a5.394 5.394 0 0 0 2.178-.762c.707-.346 1.468-.597 2.172-.947 1.581-.787 2.793-3.475 1.873-4.693-1.295-1.715-2.808-.579-4.066-.087-3.806 1.491-5.98 4.163-5.273 8.76zm-2.382-5.235a18.953 18.953 0 0 0-9.603 7.897c2.072-.936 3.735-1.582 5.294.366l4.308-8.263zm18.633 24.242c-1.888-1.706-5.813-2.189-7.196-.93-1.322 1.203-2.555 2.502-3.812 3.774a7.214 7.214 0 0 0-.641.937c4.008-.017 5.354-3.898 8.477-4.887l.313.398q-1.541 1.392-3.082 2.784a8.516 8.516 0 0 0 2.576-1.592c.701-.531 1.474-1.675 2.102.302l1.263-.786zm-42.479-6.388l.505-.29a25.133 25.133 0 0 0-1.414-2.451c-.375-.518-1.132-.812-1.433-1.346a16.483 16.483 0 0 0-5.61-6.228c.101 2.084 1.542 3.348 3.03 4.583a8.876 8.876 0 0 1 1.291 1.08c1.241 1.528 2.425 3.098 3.63 4.652zm36.294-6.178a8.513 8.513 0 0 0-11.416 1.947c2.981-1.357 5.965-2.764 9.65-1.386.432.161 1.059-.32 1.766-.561zm-28.03 11.075c-1.478-4.325-4.03-8.323-4.338-12.946-1.615 5.146 2.028 8.883 4.338 12.946zm15.954-45.515l-.53-.268c-1.607 1.418-4.104 2.053-4.147 5.215 1.124-.864 2.955.769 3.488-1.276.325-1.247.788-2.449 1.189-3.671zm4.997 53.923l.101-.661a20.023 20.023 0 0 0 2.728.527 3.97 3.97 0 0 0 1.457-.504c-1.523-.796.199-1.209.215-1.901l-7.698 1.847.049.426q2.258.676 4.516 1.351l.061-.279q-.714-.403-1.429-.806zM30.802 38.015l.559-.117c-.372-1.706-.655-3.43-1.164-5.106a3.404 3.404 0 0 0-1.428-1.434 1.302 1.302 0 0 0-1.195.005 1.252 1.252 0 0 0 .052 1.12c1.022 1.861 2.11 3.691 3.176 5.532zm6.062 25.608c-1-1.618-4.913-1.799-6.673.031.894 1.185 1.709 1.67 3.145.791.985-.603 2.392-.582 3.527-.822zm21.262-13.56c-2.948 1.17-4.361 3.601-5.656 6.403 3.72-.752 3.519-4.588 5.656-6.403zm1.148 11.76q.139.283.277.566a4.693 4.693 0 0 0 1.953-.514c1.611-1.494 3.081-3.134 4.897-5.023-3.317.922-4.929 3.315-7.127 4.972zm-26.425-4.86l6.146 6.273c-.805-1.743-1.922-3.289-2.759-4.953-.789-1.569-1.789-1.883-3.386-1.32zm21.072 5.993c4.362.863 4.662-2.846 6.992-3.966l-.528-.681-6.463 4.647zM41.912 43.435l.498-6.932-.604-.091c-1.25 2.18-1.782 4.466.107 7.023zm12.823 17.603c-2.089.734-4.548.888-5.882 2.98 3.271 1.127 4.172-1.608 5.882-2.98zm-6.523 4.459l.04.743q3.837.4 7.674.799l.02-.603c-2.57-.485-5.11-1.661-7.734-.94zM46.29 52.714c.763-2.299 1.151-4.272.123-6.634-1.586 2.091-1.385 4.111-.123 6.634zm-12.258 2.421c-.407-2.756-2.366-2.594-4.297-2.497 1.933 2.997 2.036 3.057 4.297 2.497zm7.31-31.637l2.925 8.351c-.647-2.729.544-5.967-2.925-8.351zm15.534 40.447l-2.606.606c2.479 1.034 4.393 2.858 6.678 1.79l-4.072-2.396zM43.59 60.899c2.4-4.237 2.597-6.737.981-8.538l-.981 8.538zm-.688-17.611c-1.201 2.201-1.678 4.391-.03 6.989l.976-2.719-.401.009zm29.509-9.093c-2.884.204-2.592 3.383-4.412 4.583 2.796-.286 3.197-2.815 4.412-4.583zm-9.086 6.322l-.521-.491-6.069 5.283a12.02 12.02 0 0 0 3.77-1.953 31.684 31.684 0 0 0 2.82-2.839zm-29.137 4.234l.848.002c-.299-1.943 2.284-3.877-.698-5.926l-.15 5.924zm18.329-10.934a5.668 5.668 0 0 0-5.323 4.237l5.323-4.237zM76.57 58.31l-5.773 2.527a1.805 1.805 0 0 0 1.329.178 4.554 4.554 0 0 1 1.466-.24c1.818.338 2.588-.191 2.978-2.465zM54.604 16.57c-2.651-.018-3.322.586-3.876 3.15 2.416.408 2.604-1.738 3.876-3.15zm-16.772 7.059c-.03 1.878-.149 3.497 1.503 4.793.999-2.391.726-3.343-1.503-4.793zm7.692-2.811q-.36.004-.72.008l.119 7.369q.344.024.688.049-.043-3.713-.087-7.425zm23.282 14.749l-.441-.279q-2.342 2.484-4.683 4.968l.726.611c2.66-.777 2.771-3.666 4.399-5.299zm-36.404 6.036q.413.012.826.024-.124-3.229-.249-6.457l-.813-.018q.118 3.226.235 6.452zm8.676-23.632c-1.192 2.619 1.018 3.854 2.378 5.469q-1.189-2.735-2.378-5.469zm16.899 18.883l-.554-.178c-1.775 1.464-.841 3.811-1.489 5.642l.69.219q.676-2.841 1.353-5.682zm-2.787 3.621l-.84-.266-.934 4.693q.5.137 1 .275.387-2.351.774-4.702zm-6.057 1.621c-2.308.833-2.532 1.88-1.013 4.105l1.013-4.105zm-1.212-8.201q.35.225.701.45 1.318-2.5 2.636-5.001l-.605-.354q-1.366 2.452-2.732 4.905zm24.995 28.696a7.408 7.408 0 0 1-2.067-.172c-.539-.235-.935-.831-1.466-1.122a1.03 1.03 0 0 0-.967.182.969.969 0 0 0 .026.918c.393.621 3.37.918 4.474.195zm-21.278-3.663l.172.589 4.215-1.064c-2.155-1.541-3.311-.677-4.387.474zm-8.646-42.105c1.371-2.111 1.135-3.629-.522-4.096zm8.639 39.545l-.547-.382q-1.873 1.976-3.746 3.951l.499.463q1.898-2.016 3.795-4.032zm17.23-37.441l-3.478 1.695c1.5.339 3.43 1.581 3.478-1.695zM39.06 34.108a3.787 3.787 0 0 0 1.277-4.621l-1.277 4.621zM26.38 46.14l-.433.531c.558 1.344 1.204 2.569 3.56 2.264zm25.38-14.388l.137.595c1.55.24 3.064.396 4.153-1.66l-4.29 1.065zm-24.755 2.076c-.102 2.788.355 3.505 2.424 3.867l-2.424-3.867zm17.088 11.415c1.182-2.563 1.199-4.035.08-4.953l-.08 4.953zm1.367-28.8l-.851-.289q-.479 2.243-.959 4.486l.33.086q.74-2.141 1.48-4.283zm6.997 31.254l-.82-.759q-1.132 1.525-2.264 3.05l.509.452q1.288-1.372 2.575-2.743zm-20.751-4.401l-.657.54q1.118 1.326 2.236 2.653l.596-.483q-1.088-1.355-2.176-2.711zM50.865 12.67l.643.21q.736-1.782 1.471-3.565l-.613-.291q-.751 1.823-1.501 3.646zm3.293-2.496l.341.235a18.658 18.658 0 0 0 1.686-1.507 1.826 1.826 0 0 0 .03-.945 1.816 1.816 0 0 0-.964.148 18.287 18.287 0 0 0-1.092 2.07zm-19.649 37.16q-.327.144-.655.288l2.3 3.362.451-.25q-1.049-1.699-2.097-3.399zm24.002-5.74l.231.223q1.191-1.541 2.382-3.082l-.469-.407q-1.072 1.633-2.145 3.266zM37.046 27.537l-.9.135q.421 1.455.843 2.909l.632-.117zm21.356 52.356a16.842 16.842 0 0 1 3.565 1.299c2.764 1.621 3.241 4.107 1.371 6.365-3.972 4.795-8.237 4.485-13.498 1.07-.98-.636-1.347-2.347-1.873-3.604a1.342 1.342 0 0 1 .374-1.163c1.583-1.575 7.097-3.876 10.06-3.967zm-.614 1.356c-2.605.543-5.629 1.066-7.475 3.745-1.059 1.538-.926 2.542.86 3.329 4.285 1.887 6.92 2.997 10.118-.522.968-1.066 2.356-1.852 1.548-3.707-.844-1.937-2.551-2.969-5.051-2.844z"/><path d="M67.157 41.213l5.781 1.722-.173.831q-2.92-.767-5.839-1.534z"/></svg>