<svg height='100px' width='100px'  fill="#121113" xmlns="http://www.w3.org/2000/svg" data-name="Слой 1" viewBox="0 0 100 100" x="0px" y="0px"><title>plant 5</title><path d="M87.84433,10.90928c-9.36454,6.0646-14.92167,14.74244-21.17609,22.80186a52.83689,52.83689,0,0,0,2.06317-6.19586C70.01958,21.25145,71.13028,14.9507,72.259,8.65521a5.30179,5.30179,0,0,0-.29132-1.72811,4.60294,4.60294,0,0,0-1.58509,1.01307C66.8711,13.69044,63.07228,19.305,60.073,25.31646c-2.6511,5.31376-4.39155,11.08186-6.53407,16.64933,3.41774-11.236,3.96329-22.8524,4.49943-34.56814-6.746,5.84987-8.37161,14.09692-10.39516,21.6879-0.09863-7.436-.20152-15.19624-0.30444-22.95641-5.80543,5.80892-7.30538,13.41888-9.24649,21.4133-1.61412-6.458-3.08911-12.35909-4.564-18.26019L32.58052,9.274c-2.64692,6.54922-.76895,13.71767-2.36978,20.52959-0.1234-8.48-4.866-15.11943-8.66513-22.6793-2.78913,7.94452-.07545,15.73333-1.48981,23.72062C17.69811,24.7061,16.2633,18.59656,12.279,13.64082,11.14,31.25268,13.91979,47.6924,26.17261,61.55726c-0.65382.11016-.93628,0.18322-1.22242,0.202-3.19986.20994-3.44306,0.36916-3.39227,3.43819,0.04383,2.64322.25,5.28777,0.48515,7.92274,0.52549,5.88637,1.075,11.77146,1.73256,17.64384A2.4353,2.4353,0,0,0,25.19119,92.484a41.83647,41.83647,0,0,0,7.5582,1.32852c3.47009,0.17756,6.98169-.12056,10.44208.02293a10.3908,10.3908,0,0,1,1.30553-.064,7.82511,7.82511,0,0,1,2.61583-.07729,7.93948,7.93948,0,0,1,1.75212-.20049,8.45646,8.45646,0,0,1,1.61223.15845,14.41479,14.41479,0,0,1,5.93616-.27661c0.36117-.045.72186-0.09256,1.08414-0.13064,1.11894-.11763,2.25594-0.18547,3.39734-0.19773a4.37452,4.37452,0,0,0,1.31882-2.62257c0.13318-4.699.161-9.40287,0.39931-14.09625,0.12421-2.44676.22958-4.94454,2.1579-6.94243a3.78754,3.78754,0,0,0,.78695-2.69557c-0.18065-1.93331-.68467-3.83635-1.05389-5.73759-0.81907-.126-1.50878-0.23214-2.3914-0.36794,0.37095-.60228.583-0.98749,0.83317-1.34613,2.42364-3.47491,4.98057-6.86523,7.24244-10.44219a96.01726,96.01726,0,0,0,5.00141-9.15527c4.28314-8.75529,8.47735-17.55421,12.65408-26.36085A7.07586,7.07586,0,0,0,87.84433,10.90928ZM80.54026,18.352l0.69453,0.58417C78.2944,20.45865,78.914,24.90113,75.462,26.004L74.805,25.477Q77.67265,21.91454,80.54026,18.352ZM73.926,26.987l0.62106,0.37125a2.93318,2.93318,0,0,1-.16466,1.22393c-4.57881,6.5782-7.577,13.91306-10.44138,21.33515a32.75257,32.75257,0,0,1-3.52542,6.33488c-0.36212.53848-1.59526,0.49117-2.42857,0.71278a10.03149,10.03149,0,0,1-.27775-2.123,9.42065,9.42065,0,0,1,.66486-1.42559c0.40054-1.45623,1.0365-2.33471,2.71983-1.535a2.09216,2.09216,0,0,0,1.01705-.18832c-2.01828-1.40984-1.81228-2.66913-1.10624-4.73845,0.97838-2.86714,3.23956.18851,4.36614-1.51842-1.5121-.99443-3.39079-2.00678-1.47167-4.08184,1.09718-1.18645,2.374-2.20679,3.81306-3.52453-0.02332-.01995-0.46041-0.39335-1.20707-1.03121C69.07937,33.64508,70.80411,29.77282,73.926,26.987Zm-14.64651,32.207c-0.60381,2.42974-1.41935,2.83638-4.47226,2.37828C55.57694,58.25961,56.02289,58.01128,59.27953,59.19408Zm3.41531-19.05441L70.0872,13.01316C67.97143,22.12663,66.72463,31.51391,62.69484,40.13967Zm2.24806-21.66116c0.76148-1.41907,1.7234-2.73067,2.61048-4.08237L67.848,14.62391a40.22288,40.22288,0,0,1-.91982,4.558c-0.13446.43355-1.05726,0.62268-1.61872,0.9238C65.17033,19.55427,64.7443,18.84882,64.94289,18.47851Zm-2.55046,4.93128c1.11343-2.39277,1.161-2.37062,3.85257-1.23652-0.40084,1.44191-.80946,2.9118-1.25382,4.51029a4.61722,4.61722,0,0,0-1.70175-.47587,7.73917,7.73917,0,0,0-1.81515.87688,4.039,4.039,0,0,0,1.39987.8768c1.48418,0.16617,1.79528.87936,1.29962,2.164-0.10813.28043-.1626,0.58108-0.26014,0.86607-0.96086,2.807-.96228,2.80735-3.69223,1.56442-0.40792-.18567-0.8116-0.38095-1.55615-0.7312C59.9589,28.89209,61.12741,26.12854,62.39243,23.40979ZM58.0777,33.97794c1.43587,0.33428,2.78826.64909,4.461,1.03845-0.59387,2.01541-1.096,3.71964-1.61237,5.47213-1.63377-.31478-3.08192-0.59376-4.96056-0.95576C56.66239,37.70043,57.33421,35.93348,58.0777,33.97794Zm2.39918,8.15332c-0.8,1.75215-1.54575,3.38528-2.35744,5.16289-1.47128-.61457-2.7704-1.15723-4.05066-1.69194C54.78812,41.25728,56.22513,40.41912,60.47687,42.13126Zm-5.4938-13.3322c-1.03909-.05441-1.83022-0.09587-2.95351-0.15474,1.18222-2.7816,2.2745-5.35149,3.36678-7.92143l0.32645,0.08771C55.47945,23.43835,55.23616,26.06607,54.98307,28.79906Zm0.76014-17.05435C55.45287,19.19,52.044,25.3621,48.9129,31.59986,50.35124,24.72711,51.81,17.89373,55.74321,11.74471Zm-6.0023,24.63843c0.851-.58682,2.27007-0.3498,3.44128-0.47222q0.07849-.34738.15708-0.69473c-1.01859-.34832-2.03712-0.69668-3.08276-1.05422-0.30762-2.99313.40193-3.70566,4.42437-3.7292a77.13758,77.13758,0,0,1-2.26349,8.84411c-0.21119.5735-2.38,0.426-4.36893,0.71623C48.76392,38.35255,48.94967,36.9288,49.74091,36.38314ZM48.07585,42.8736c0.50151-2.26349,2.24335-1.14458,4.19206-1.12282-1.42166,1.54049.13229,4.31095-2.86182,4.36151C46.66916,46.15852,47.82,44.028,48.07585,42.8736ZM46.989,52.2767c0.1022-1.41544.20411-2.82565,0.31238-4.3251,1.1258-.01493,2.0705-0.02747,3.38082-0.04483-0.91569,3.57565-1.78277,6.96163-2.70292,10.55492-2.64592-1.07659-2.44323-2.28054.67224-5.39027C48.0568,52.78718,47.53314,52.53687,46.989,52.2767ZM43.35462,25.77364c0.90419,0.28229,1.50184.46885,2.2587,0.70515,0.77051,11.59944-1.11345,23.09332-2.6596,34.94276,1.6039-.87886,2.64352-1.44849,3.87-2.12056-0.09556,1.1502-.15965,1.9206-0.22364,2.69105l0.47833,0.28823c1.41149-1.34849,2.82289-2.697,4.01453-3.83546a28.00351,28.00351,0,0,1,.1736-3.90425,39.99708,39.99708,0,0,1,1.32434-5.02428c0.7865-2.46568,1.16464-2.59006,3.57568-1.45676,0.39708,0.18662.78023,0.40293,1.35752,0.70317-0.62432,1.26728-1.20281,2.44155-1.8042,3.66222l-2.9503-1.0479c-0.29968,1.33977-.29968,1.33977,2.37193,2.916a65.97638,65.97638,0,0,1-3.4335,6.95054c-0.45431.72016-1.97972,0.87833-3.0549,1.06172a28.29,28.29,0,0,1-3.41041.13251c-4.15057.19436-5.487-1.28968-5.0997-5.69452l3.0486-1.04157L43.079,55.05031a7.4829,7.4829,0,0,1-1.38533-.50067c-0.73083-.43475-1.90948-0.88482-2.00062-1.46888-0.19648-1.25962-.19043-2.76686,1.78425-3.038a6.58649,6.58649,0,0,0,1.97911-1.05444c-2.88784-.21715-3.88285-0.72635-3.56-2.36084a4.20068,4.20068,0,0,1,1.49939-1.7329c0.83863-.7607,1.74655-1.44506,2.62491-2.16194q-0.2136-.26592-0.42726-0.53182a1.55274,1.55274,0,0,0-.61139.01942c-1.022.50708-2.13034,1.32236-2.72571-.42115a2.76032,2.76032,0,0,1,1.83509-3.59454,27.244,27.244,0,0,0,3.06479-1.38279l-0.2522-.71777c-1.16338.09668-2.32671,0.1933-3.4756,0.28873-0.74816-2.864-.03753-4.10864,2.58153-4.92629a6.4679,6.4679,0,0,0,1.63171-1.16408l-0.23206-.537a7.52,7.52,0,0,1-1.36655.105,13.216,13.216,0,0,1-1.72131-.4143c1.09027-4.46354,2.15631-8.82779,3.22234-13.192C44.69947,19.35406,47.39239,23.1136,43.35462,25.77364ZM44.918,12.13393c-2.17968,9.93216-4.3594,19.86429-6.24475,28.45537A60.34089,60.34089,0,0,1,44.918,12.13393ZM35.18815,47.49356q-0.36681-.014-0.73365-0.02783c0.004-1.15959-1.4092-2.38948.68277-3.80924Zm-1.35758-5.2557c-0.32743-2.33147-.74571-4.65673-0.90756-6.99969-0.03343-.483.8892-1.0321,1.6903-1.894,0.04335,3.27035.08,6.034,0.11666,8.79775Q34.28033,42.18984,33.83058,42.23786ZM33.02435,23.1847a3.79108,3.79108,0,0,1,1.16352,1.26223c0.29363,1.29843.11688,2.45487-2.245,2.1372C32.32531,25.382,32.6748,24.28333,33.02435,23.1847Zm1.4883,4.91412c0.63558,3.64375.52346,3.90542-1.81932,4.246C31.3946,29.36166,31.58692,28.91284,34.51265,28.09882Zm-2.472,11.08033q0.82389,7.1557,1.64787,14.3115l-0.72769.06865q-0.65016-7.14575-1.30029-14.29153Zm3.6031,22.53406,0.73838-.08966q-0.81691-5.91622-1.63377-11.83248l0.82071-.1877a25.77743,25.77743,0,0,1,.82748,2.94768c0.26661,1.63864.32651,3.31164,0.61173,4.94613a7.27329,7.27329,0,0,0,.92851,1.51162c0.47242,0.9708.8729,1.97669,1.30339,2.96794a6.89631,6.89631,0,0,1-2.28932.89686,3.38686,3.38686,0,0,1-3.60962-2.3673c-1.14363-3.031-2.844-5.8531-3.96886-8.88944-0.372-1.004.3072-2.39725,0.5443-3.84825-0.72158.23292-1.37753,0.44464-2.19364,0.708-0.341-.60677-0.69492-1.23652-0.98864-1.75914a1.57163,1.57163,0,0,1,.16909-0.38989C27.65395,45.706,28.41,45.091,29.5512,44.15871,31.03633,50.37234,31.57319,56.71575,35.64372,61.7132Zm-3.71764.01011c-2.57075.68272-3.24324,0.26042-3.3495-2.113-0.09746-2.176-.07238-4.35739-0.10869-7.09506C29.72723,55.8684,30.82254,58.78494,31.92608,61.72332ZM27.39063,30.745a4.15628,4.15628,0,0,1,.08868.89583c0.82991,4.40236.83186,4.402-3.5347,6.45185-1.83905-3.55841,1.9184-3.3646,3.224-4.77946-1.07545-.84941-1.07545-0.84941-4.78322.6521,0.04026-1.07319-.25089-2.46616.16734-2.72861a16.03119,16.03119,0,0,1,4.13263-1.519A2.4341,2.4341,0,0,1,27.39063,30.745Zm-0.8113-3.03531c-1.54049.43664-2.95044,0.83632-4.35552,1.23457-0.88282-2.6372-.65327-2.88494,3.62046-3.86107C26.10853,26.02726,26.32666,26.80688,26.57933,27.70968ZM25.20791,23.1864c-1.06662.48515-1.968,0.89522-3.09867,1.40948-0.03589-1.81526-.46473-3.44245,2.16456-3.40458Zm-3.37458-3.47374c-0.02641-1.9907-.05179-3.90534-0.0755-5.6922C23.4881,16.16654,23.67126,18.90925,21.83333,19.71266Zm2.21588,33.137-2.47312.65586c-0.33715-1.22958-.675-2.4622-0.974-3.55245-0.72022-.92372-1.93392-1.80216-1.9671-2.72315-0.03-.83562,1.22543-1.71749,2.36131-3.13834-1.48808.19339-2.41414,0.31366-3.40411,0.4423-1.83133-2.83694-1.61738-3.76575,1.308-5.19814l0.07336-.67611c-1.02834-.07846-2.05662-0.15689-3.20532-0.24454-0.53168-1.25842-.53168-1.25842,1.62939-4.284-0.99892.07472-1.7388,0.13006-2.47875,0.18533-1.25064-2.91124-1.25064-2.91124,1.58025-4.905-1.03224-.42327-1.829-0.75-2.894-1.18679-0.2162-2.6411-.45122-5.51208-0.68623-8.38306q0.29372-.0649.58737-0.12978a6.30079,6.30079,0,0,1,.918,1.4145q5.83093,18.49216,11.60719,37.00142C24.72535,56.6052,21.75267,55.91281,24.0492,52.84964Zm1.97056-7.89939c-1.85462-4.18053-1.81035-4.88918.31013-6.54981,1.47479-1.15488,2.2239-.83543,2.61176,1.00179C29.49074,42.00374,28.42022,43.71452,26.01976,44.95025ZM59.853,91.77224c-1.69191-.11175-2.77815-0.27455-3.85792-0.23916-4.84438.15864-9.68553,0.45885-14.53066,0.53909-3.39926.05634-6.80337-.14878-10.20456-0.26128-0.82762-.02736-1.65308-0.14173-2.47808-0.22944-2.05963-.21882-3.21995-1.14887-3.35937-3.42952-0.14736-2.41155-.68762-4.7988-1.04907-7.19775-0.18035-1.197-.27145-2.33094,1.41987-2.49533a1.59485,1.59485,0,0,1,1.72869,2.08554c-0.60078,3.03425,1.52706,2.96189,3.36446,3.23959,0.741,0.112,1.52249-.06706,2.27377.00663,2.09588,0.20553,3.02584-.59345,2.58953-2.75917-0.29987-1.48819.19414-2.27954,1.87566-2.28812,1.58585-.00811,2.706.16678,2.47652,2.1966-0.19158,1.69487.57467,2.501,2.41091,2.32771,1.73418-.16366,3.50907.0506,5.23012-0.17508a2.59682,2.59682,0,0,0,1.90642-1.39268c0.39081-3.03071.29781-3.04266,3.41634-2.97045,0.07146,0.36746.13357,0.58671,0.15424,0.80985,0.11108,1.19556-.12607,2.61324.45342,3.49825,0.3062,0.46746,2.04553-.12811,3.10739.00281a27.07094,27.07094,0,0,1,3.51567.90293C59.86707,86.81168,60.89078,89.62084,59.853,91.77224Zm1.66-18.37774c-0.41221,2.51767-.58679,5.07424-0.87465,7.73186-1.24811-.05617-2.08025-0.14533-2.90807-0.1154-0.73287.02644-1.46091,0.18545-2.19512,0.2865-0.32868-1.51633-.192-3.43328-1.0367-4.09243-0.9116-.71119-2.78417-0.04689-4.15918-0.34465-1.66425-.36033-2.8505-0.30893-2.562,1.75413,0.33707,2.41-.903,2.89806-2.87973,2.72031-0.82227-.07389-1.6424-0.17218-2.67035-0.28132-0.08949-1.23816-.17486-2.419-0.27143-3.75447-2.32835-.25229-4.611-0.59247-6.90005-0.6431-0.32654-.00727-0.987,1.39363-0.97406,2.13374,0.05235,2.9807-.22024,3.35268-3.18693,2.90667a2.1596,2.1596,0,0,1-1.514-1.207c-0.97978-4.09967-.937-4.10987-5.06287-4.0386-0.103-1.27642-.20712-2.566-0.31993-3.96335,3.74572,0.29672,7.127.7838,10.50844,0.78416,5.96527,0.00059,11.93554-.20216,17.89368-0.51271,2.47853-.12922,4.92688-0.78408,7.39752-1.13978C61.10122,71.43144,61.77246,71.81025,61.513,73.3945Zm1.12716-10.93169a2.16618,2.16618,0,0,1,.333.52054c1.164,6.45619,1.16377,6.46684-5.49924,7.02443-6.552.54831-13.0997,1.36151-19.66137,1.50416-4.27748.09306-8.57762-.79283-12.86522-1.262-1.98334-.217-2.45939-1.43737-2.10485-3.22739,0.20526-1.03642.30979-2.09278,0.51767-3.54579A170.50014,170.50014,0,0,0,62.64017,62.46281Zm-2.04-2.50416c3.44994-7.63916,6.28142-14.9086,9.94211-21.73326,3.65043-6.80513,8.1322-13.16425,12.24951-19.71894l0.76664,0.467C76.91278,32.95014,70.76972,47.20313,60.60016,59.95866Z"></path></svg>