<svg xmlns="http://www.w3.org/2000/svg" height="100" width="100" fill="#121113" xmlns:v="https://vecta.io/nano"><path d="M87.844 10.909c-9.365 6.065-14.922 14.742-21.176 22.802a52.837 52.837 0 0 0 2.063-6.196c1.288-6.264 2.399-12.565 3.528-18.86a5.302 5.302 0 0 0-.291-1.728 4.603 4.603 0 0 0-1.585 1.013c-3.511 5.75-7.31 11.365-10.31 17.376-2.651 5.314-4.392 11.082-6.534 16.649 3.418-11.236 3.963-22.852 4.499-34.568-6.746 5.85-8.372 14.097-10.395 21.688l-.304-22.956c-5.805 5.809-7.305 13.419-9.246 21.413l-4.564-18.26-.948-.008c-2.647 6.549-.769 13.718-2.37 20.53-.123-8.48-4.866-15.119-8.665-22.679-2.789 7.945-.075 15.733-1.49 23.721-2.358-6.139-3.793-12.248-7.777-17.204-1.139 17.612 1.641 34.052 13.894 47.916-.654.11-.936.183-1.222.202-3.2.21-3.443.369-3.392 3.438.044 2.643.25 5.288.485 7.923l1.733 17.644a2.435 2.435 0 0 0 1.416 1.72 41.836 41.836 0 0 0 7.558 1.329c3.47.178 6.982-.121 10.442.023a10.391 10.391 0 0 1 1.306-.064 7.825 7.825 0 0 1 2.616-.077 7.939 7.939 0 0 1 1.752-.2 8.456 8.456 0 0 1 1.612.158 14.415 14.415 0 0 1 5.936-.277l1.084-.131a36.27 36.27 0 0 1 3.397-.198 4.375 4.375 0 0 0 1.319-2.623l.399-14.096c.124-2.447.23-4.945 2.158-6.942a3.788 3.788 0 0 0 .787-2.696c-.181-1.933-.685-3.836-1.054-5.738l-2.391-.368c.371-.602.583-.987.833-1.346 2.424-3.475 4.981-6.865 7.242-10.442a96.017 96.017 0 0 0 5.001-9.155L87.844 13.28a7.076 7.076 0 0 0 .001-2.371zm-7.304 7.443l.695.584c-2.94 1.522-2.321 5.965-5.773 7.068l-.657-.527q2.868-3.562 5.735-7.125zm-6.614 8.635l.621.371a2.933 2.933 0 0 1-.165 1.224c-4.579 6.578-7.577 13.913-10.441 21.335a32.753 32.753 0 0 1-3.525 6.335c-.362.538-1.595.491-2.429.713a10.031 10.031 0 0 1-.278-2.123 9.421 9.421 0 0 1 .665-1.426c.401-1.456 1.036-2.335 2.72-1.535a2.092 2.092 0 0 0 1.017-.188c-2.018-1.41-1.812-2.669-1.106-4.738.978-2.867 3.24.189 4.366-1.518-1.512-.994-3.391-2.007-1.472-4.082 1.097-1.186 2.374-2.207 3.813-3.525l-1.207-1.031c2.574-3.154 4.299-7.026 7.421-9.812zM59.279 59.194c-.604 2.43-1.419 2.836-4.472 2.378.77-3.313 1.216-3.561 4.472-2.378zm3.415-19.054l7.392-27.126c-2.116 9.113-3.363 18.501-7.392 27.127zm2.248-21.661c.761-1.419 1.723-2.731 2.61-4.082l.295.228a40.223 40.223 0 0 1-.92 4.558c-.134.434-1.057.623-1.619.924-.139-.551-.565-1.257-.367-1.627zm-2.55 4.931c1.113-2.393 1.161-2.371 3.853-1.237l-1.254 4.51a4.617 4.617 0 0 0-1.702-.476 7.739 7.739 0 0 0-1.815.877 4.039 4.039 0 0 0 1.4.877c1.484.166 1.795.879 1.3 2.164-.108.28-.163.581-.26.866-.961 2.807-.962 2.807-3.692 1.564l-1.556-.731 3.727-8.415zm-4.315 10.568l4.461 1.038-1.612 5.472-4.961-.956 2.112-5.555zm2.399 8.153l-2.357 5.163-4.051-1.692c.719-4.345 2.156-5.183 6.408-3.471zm-5.494-13.332l-2.954-.155 3.367-7.921.326.088-.74 7.988zm.76-17.054c-.29 7.445-3.699 13.617-6.83 19.855 1.438-6.873 2.897-13.706 6.83-19.855zm-6.002 24.638c.851-.587 2.27-.35 3.441-.472q.078-.347.157-.695l-3.083-1.054c-.308-2.993.402-3.706 4.424-3.729a77.138 77.138 0 0 1-2.263 8.844c-.211.574-2.38.426-4.369.716.715-1.641.901-3.064 1.692-3.61zm-1.665 6.49c.502-2.263 2.243-1.145 4.192-1.123-1.422 1.54.132 4.311-2.862 4.362-2.737.046-1.586-2.084-1.33-3.239zm-1.087 9.403l.312-4.325 3.381-.045-2.703 10.555c-2.646-1.077-2.443-2.281.672-5.39l-1.663-.795zm-3.634-26.503l2.259.705c.771 11.599-1.113 23.093-2.66 34.943l3.87-2.121-.224 2.691.478.288 4.015-3.835a28.004 28.004 0 0 1 .174-3.904 39.997 39.997 0 0 1 1.324-5.024c.786-2.466 1.165-2.59 3.576-1.457.397.187.78.403 1.358.703l-1.804 3.662-2.95-1.048c-.3 1.34-.3 1.34 2.372 2.916a65.976 65.976 0 0 1-3.434 6.951c-.454.72-1.98.878-3.055 1.062a28.29 28.29 0 0 1-3.41.133c-4.151.194-5.487-1.29-5.1-5.695l3.049-1.042-.113-.651a7.483 7.483 0 0 1-1.385-.501c-.731-.435-1.909-.885-2.001-1.469-.196-1.26-.19-2.767 1.784-3.038a6.586 6.586 0 0 0 1.979-1.054c-2.888-.217-3.883-.726-3.56-2.361a4.201 4.201 0 0 1 1.499-1.733c.839-.761 1.747-1.445 2.625-2.162q-.214-.266-.427-.532a1.553 1.553 0 0 0-.611.019c-1.022.507-2.13 1.322-2.726-.421a2.76 2.76 0 0 1 1.835-3.595 27.244 27.244 0 0 0 3.065-1.383l-.252-.718-3.476.289c-.748-2.864-.038-4.109 2.582-4.926a6.468 6.468 0 0 0 1.632-1.164l-.232-.537a7.52 7.52 0 0 1-1.367.105 13.216 13.216 0 0 1-1.721-.414l3.222-13.192c-.845 3.09 1.848 6.85-2.189 9.51zm1.563-13.64l-6.245 28.455a60.341 60.341 0 0 1 6.245-28.455zm-9.73 35.36q-.367-.014-.734-.028c.004-1.16-1.409-2.389.683-3.809zm-1.358-5.256c-.327-2.331-.746-4.657-.908-7-.033-.483.889-1.032 1.69-1.894l.117 8.798q-.45.048-.899.096zm-.806-19.053a3.791 3.791 0 0 1 1.164 1.262c.294 1.298.117 2.455-2.245 2.137l1.081-3.399zm1.488 4.914c.636 3.644.523 3.905-1.819 4.246-1.299-2.983-1.106-3.432 1.819-4.246zm-2.472 11.08q.824 7.156 1.648 14.312l-.728.069q-.65-7.146-1.3-14.292zm3.603 22.534l.738-.09q-.817-5.916-1.634-11.832l.821-.188a25.777 25.777 0 0 1 .827 2.948c.267 1.639.327 3.312.612 4.946a7.273 7.273 0 0 0 .929 1.512c.472.971.873 1.977 1.303 2.968a6.896 6.896 0 0 1-2.289.897 3.387 3.387 0 0 1-3.61-2.367c-1.144-3.031-2.844-5.853-3.969-8.889-.372-1.004.307-2.397.544-3.848l-2.194.708-.989-1.759a1.572 1.572 0 0 1 .169-.39l2.648-2.169c1.485 6.214 2.022 12.557 6.093 17.554zm-3.718.01c-2.571.683-3.243.26-3.349-2.113-.097-2.176-.072-4.357-.109-7.095l3.458 9.208zm-4.535-30.978a4.156 4.156 0 0 1 .089.896c.83 4.402.832 4.402-3.535 6.452-1.839-3.558 1.918-3.365 3.224-4.779-1.075-.849-1.075-.849-4.783.652.04-1.073-.251-2.466.167-2.729a16.031 16.031 0 0 1 4.133-1.519 2.434 2.434 0 0 1 .705 1.027zm-.811-3.035l-4.356 1.235c-.883-2.637-.653-2.885 3.62-3.861l.735 2.626zm-1.371-4.523l-3.099 1.409c-.036-1.815-.465-3.442 2.165-3.405zm-3.375-3.474l-.076-5.692c1.73 2.146 1.913 4.889.076 5.692zm2.216 33.137l-2.473.656-.974-3.552c-.72-.924-1.934-1.802-1.967-2.723-.03-.836 1.225-1.717 2.361-3.138l-3.404.442c-1.831-2.837-1.617-3.766 1.308-5.198l.073-.676-3.205-.245c-.532-1.258-.532-1.258 1.629-4.284l-2.479.185c-1.251-2.911-1.251-2.911 1.58-4.905l-2.894-1.187-.686-8.383q.294-.065.587-.13a6.301 6.301 0 0 1 .918 1.415q5.831 18.492 11.607 37.001c-1.306-1.523-4.279-2.215-1.982-5.278zm1.971-7.899c-1.855-4.181-1.81-4.889.31-6.55 1.475-1.155 2.224-.835 2.612 1.002.549 2.601-.521 4.312-2.922 5.548zm33.833 46.822c-1.692-.112-2.778-.275-3.858-.239l-14.531.539c-3.399.056-6.803-.149-10.205-.261-.828-.027-1.653-.142-2.478-.229-2.06-.219-3.22-1.149-3.359-3.43-.147-2.412-.688-4.799-1.049-7.198-.18-1.197-.271-2.331 1.42-2.495a1.595 1.595 0 0 1 1.729 2.086c-.601 3.034 1.527 2.962 3.364 3.24.741.112 1.522-.067 2.274.007 2.096.206 3.026-.593 2.59-2.759-.3-1.488.194-2.28 1.876-2.288 1.586-.008 2.706.167 2.477 2.197-.192 1.695.575 2.501 2.411 2.328 1.734-.164 3.509.051 5.23-.175a2.597 2.597 0 0 0 1.906-1.393c.391-3.031.298-3.043 3.416-2.97.071.367.134.587.154.81.111 1.196-.126 2.613.453 3.498.306.467 2.046-.128 3.107.003a27.071 27.071 0 0 1 3.516.903c-.429 2.868.594 5.678-.443 7.829zm1.66-18.378c-.412 2.518-.587 5.074-.875 7.732-1.248-.056-2.08-.145-2.908-.115-.733.026-1.461.185-2.195.287-.329-1.516-.192-3.433-1.037-4.092-.912-.711-2.784-.047-4.159-.345-1.664-.36-2.85-.309-2.562 1.754.337 2.41-.903 2.898-2.88 2.72-.822-.074-1.642-.172-2.67-.281l-.271-3.754c-2.328-.252-4.611-.592-6.9-.643-.327-.007-.987 1.394-.974 2.134.052 2.981-.22 3.353-3.187 2.907a2.16 2.16 0 0 1-1.514-1.207c-.98-4.1-.937-4.11-5.063-4.039l-.32-3.963c3.746.297 7.127.784 10.508.784 5.965.001 11.936-.202 17.894-.513 2.479-.129 4.927-.784 7.398-1.14 1.304-.188 1.975.191 1.715 1.775zm1.127-10.932a2.166 2.166 0 0 1 .333.521c1.164 6.456 1.164 6.467-5.499 7.024-6.552.548-13.1 1.362-19.661 1.504-4.277.093-8.578-.793-12.865-1.262-1.983-.217-2.459-1.437-2.105-3.227.205-1.036.31-2.093.518-3.546a170.5 170.5 0 0 0 39.28-1.014zm-2.04-2.504c3.45-7.639 6.281-14.909 9.942-21.733 3.65-6.805 8.132-13.164 12.25-19.719l.767.467C76.913 32.95 70.77 47.203 60.6 59.959z"/></svg>