<svg xmlns="http://www.w3.org/2000/svg" width="266" height="157" fill="#f4f4f3" xmlns:v="https://vecta.io/nano"><circle cx="133" cy="79" r="20"/><path fill-rule="evenodd" d="M9.581 78.75c122.868 147.461 228.868 23.736 247.14 0-18.272-23.736-124.272-147.461-247.14 0zM132.5 134c30.652 0 55.5-24.848 55.5-55.5S163.152 23 132.5 23 77 47.848 77 78.5s24.848 55.5 55.5 55.5z"/><path d="M9.581 78.75l-5.378-4.481L.469 78.75l3.734 4.481 5.378-4.481zm247.14 0l5.547 4.27 3.287-4.27-3.287-4.27-5.547 4.27zm-247.14 0l5.378 4.481 3.734-4.481-3.734-4.481-5.378 4.481zm247.14 0l-5.547-4.27-3.287 4.27 3.287 4.27 5.547-4.27zM4.203 83.231c31.331 37.601 62.046 58.464 91.133 67.736 29.157 9.295 56.069 6.746 79.353-1.412 46.145-16.167 78.255-54.423 87.579-66.535l-11.094-8.54c-8.949 11.624-38.975 47.099-81.114 61.863-20.858 7.307-44.627 9.524-70.472 1.286-25.916-8.261-54.526-27.231-84.629-63.36L4.203 83.231zm258.065-8.751c-9.324-12.112-41.434-50.368-87.579-66.535-23.284-8.158-50.196-10.707-79.353-1.412-29.087 9.272-59.803 30.135-91.133 67.736l10.756 8.962c30.104-36.129 58.714-55.098 84.63-63.36 25.845-8.239 49.614-6.022 70.472 1.286 42.139 14.764 72.165 50.238 81.114 61.863l11.094-8.54zM181 78.5c0 26.786-21.714 48.5-48.5 48.5v14c34.518 0 62.5-27.982 62.5-62.5h-14zM132.5 30c26.786 0 48.5 21.714 48.5 48.5h14c0-34.518-27.982-62.5-62.5-62.5v14zM84 78.5C84 51.714 105.714 30 132.5 30V16C97.982 16 70 43.982 70 78.5h14zm48.5 48.5C105.714 127 84 105.286 84 78.5H70c0 34.518 27.982 62.5 62.5 62.5v-14zM1.061 79.406l3.142 3.825 10.756-8.962-3.019-3.675-10.878 8.813zm261.207 3.614l2.188-2.917.578-.803.156-.222.045-.065c.006-.008.011-.015.014-.02.009-.012.009-.012-5.749-3.993l-5.757-3.981c-.004.005-.011.015-.022.031l-.109.154-.476.662-1.962 2.615 11.094 8.54zM11.939 86.906l3.019-3.675-10.756-8.962-3.142 3.825 10.878 8.813zm239.235-3.886l1.962 2.615.476.662.109.154.022.031c-.001 0-.001-.001 5.757-3.981l5.757-3.981c-.011-.017-.016-.024-.022-.032l-.045-.064-.156-.222-.578-.803-2.188-2.917-11.094 8.54z"/></svg>